<svg id="Ebene_1-2" xmlns="http://www.w3.org/2000/svg" width="284.585" height="234.392" viewBox="0 0 284.585 234.392">
  <g id="Gruppe_169" data-name="Gruppe 169" transform="translate(0 1.5)">
    <g id="Gruppe_164" data-name="Gruppe 164" transform="translate(26.477 57.116)">
      <path id="Pfad_280" data-name="Pfad 280" d="M190.29,59.01H94.442L26.66,110.058v72.182l67.782,51.048H190.29l67.772-51.048V110.058Z" transform="translate(-26.66 -59.01)" fill="#404040" stroke="#000" stroke-miterlimit="10" stroke-width="3"/>
      <g id="Gruppe_163" data-name="Gruppe 163" transform="translate(1.013 101.509)">
        <rect id="Rechteck_183" data-name="Rechteck 183" width="94.815" height="22.187" transform="translate(67.206 51.048)" fill="none" stroke="#000" stroke-miterlimit="10" stroke-width="1"/>
        <path id="Pfad_281" data-name="Pfad 281" d="M191.118,234.455l67-51.087.3-22.048L190.83,212.268" transform="translate(-28.799 -161.221)" fill="none" stroke="#000" stroke-miterlimit="10" stroke-width="1"/>
        <path id="Pfad_282" data-name="Pfad 282" d="M94.886,212.268,27.68,161.22l.159,21.412,67.047,51.822" transform="translate(-27.68 -161.22)" fill="none" stroke="#000" stroke-miterlimit="10" stroke-width="1"/>
      </g>
    </g>
    <path id="Pfad_283" data-name="Pfad 283" d="M182.319,46.07h-76.4L51.88,86.769v57.543l54.037,40.7h76.4l54.037-40.7V86.769Z" transform="translate(-0.356 -1.806)" fill="#333"/>
    <path id="Pfad_284" data-name="Pfad 284" d="M51.83,178.928l-5.79-4.608V111.98h5.8Z" transform="translate(-0.316 -2.258)"/>
    <path id="Pfad_285" data-name="Pfad 285" d="M236.73,177.078l5.79-3.128V111.61h-5.8Z" transform="translate(-1.623 -2.255)"/>
    <g id="Gruppe_166" data-name="Gruppe 166" transform="translate(42.556)">
      <path id="Pfad_286" data-name="Pfad 286" d="M184.621,1.5H101.575L42.85,45.725v62.548l58.725,44.235h83.047l58.725-44.235V45.725Z" transform="translate(-42.85 -1.5)" fill="#404040" stroke="#000" stroke-miterlimit="10" stroke-width="3"/>
      <g id="Gruppe_165" data-name="Gruppe 165" transform="translate(0.884 87.953)">
        <rect id="Rechteck_184" data-name="Rechteck 184" width="82.153" height="19.227" transform="translate(58.228 44.235)" fill="none" stroke="#000" stroke-miterlimit="10" stroke-width="1"/>
        <path id="Pfad_287" data-name="Pfad 287" d="M185.348,153.512,243.4,109.248l.258-19.1L185.1,134.3" transform="translate(-44.709 -90.061)" fill="none" stroke="#000" stroke-miterlimit="10" stroke-width="1"/>
        <path id="Pfad_288" data-name="Pfad 288" d="M101.968,134.295,43.74,90.06l.129,18.552,58.1,44.9" transform="translate(-43.74 -90.06)" fill="none" stroke="#000" stroke-miterlimit="10" stroke-width="1"/>
      </g>
    </g>
    <g id="Gruppe_167" data-name="Gruppe 167" transform="translate(0 128.046)">
      <path id="Pfad_289" data-name="Pfad 289" d="M18.961,185.664l-2.751-.914v2.4Z" transform="translate(-0.111 -130.802)" fill="#020304"/>
      <path id="Pfad_290" data-name="Pfad 290" d="M18.961,165.694l-2.751-.914v2.393Z" transform="translate(-0.111 -130.665)" fill="#020304"/>
      <path id="Pfad_291" data-name="Pfad 291" d="M18.961,175.684l-2.751-.924v2.4Z" transform="translate(-0.111 -130.734)" fill="#020304"/>
      <path id="Pfad_292" data-name="Pfad 292" d="M16.21,144.376,23,146.64V144.4l-6.028-2.115-.765.417Z" transform="translate(-0.111 -130.511)" fill="#020304"/>
      <path id="Pfad_293" data-name="Pfad 293" d="M18.961,170.684l-2.751-.914v2.4Z" transform="translate(-0.111 -130.7)" fill="#020304"/>
      <path id="Pfad_294" data-name="Pfad 294" d="M18.961,160.694l-2.751-.914v2.4Z" transform="translate(-0.111 -130.631)" fill="#020304"/>
      <path id="Pfad_295" data-name="Pfad 295" d="M19.516,140.91l-2.066,1.112,5.562,1.947v-1.887h0Z" transform="translate(-0.12 -130.502)" fill="#020304"/>
      <path id="Pfad_296" data-name="Pfad 296" d="M16.21,142.2l2.751-1.48-2.751-.914Z" transform="translate(-0.111 -130.494)" fill="#020304"/>
      <path id="Pfad_297" data-name="Pfad 297" d="M18.961,145.714,16.21,144.8v2.4Z" transform="translate(-0.111 -130.528)" fill="#020304"/>
      <path id="Pfad_298" data-name="Pfad 298" d="M18.961,150.714l-2.751-.924v2.4Z" transform="translate(-0.111 -130.563)" fill="#020304"/>
      <path id="Pfad_299" data-name="Pfad 299" d="M18.961,155.7l-2.751-.914v2.393Z" transform="translate(-0.111 -130.597)" fill="#020304"/>
      <path id="Pfad_300" data-name="Pfad 300" d="M18.961,180.674l-2.751-.914v2.393Z" transform="translate(-0.111 -130.768)" fill="#020304"/>
      <path id="Pfad_301" data-name="Pfad 301" d="M23.012,197.012h0l-3.5-1.172-2.066,1.112,5.562,1.947Z" transform="translate(-0.12 -130.878)" fill="#020304"/>
      <path id="Pfad_302" data-name="Pfad 302" d="M23,199.325l-6.028-2.105-.765.407v2.135H23Z" transform="translate(-0.111 -130.888)" fill="#020304"/>
      <path id="Pfad_303" data-name="Pfad 303" d="M16.21,134.386,23,136.65v-2.245L16.975,132.3l-.765.407Z" transform="translate(-0.111 -130.443)" fill="#020304"/>
      <path id="Pfad_304" data-name="Pfad 304" d="M18.9,130.78H16.21v1.44Z" transform="translate(-0.111 -130.432)" fill="#020304"/>
      <path id="Pfad_305" data-name="Pfad 305" d="M23.031,131.674v-.894H20.32Z" transform="translate(-0.139 -130.432)" fill="#020304"/>
      <path id="Pfad_306" data-name="Pfad 306" d="M16.21,194.74v2.393l2.751-1.48Z" transform="translate(-0.111 -130.871)" fill="#020304"/>
      <path id="Pfad_307" data-name="Pfad 307" d="M23.012,192.012h0l-3.5-1.162-2.066,1.112,5.562,1.937Z" transform="translate(-0.12 -130.844)" fill="#020304"/>
      <path id="Pfad_308" data-name="Pfad 308" d="M19.516,135.92l-2.066,1.112,5.562,1.937v-1.887h0Z" transform="translate(-0.12 -130.467)" fill="#020304"/>
      <path id="Pfad_309" data-name="Pfad 309" d="M16.21,137.213l2.751-1.48-2.751-.924Z" transform="translate(-0.111 -130.46)" fill="#020304"/>
      <path id="Pfad_310" data-name="Pfad 310" d="M18.961,190.664l-2.751-.924v2.4Z" transform="translate(-0.111 -130.837)" fill="#020304"/>
      <path id="Pfad_311" data-name="Pfad 311" d="M16.21,179.326,23,181.59v-2.245l-6.028-2.105-.765.407Z" transform="translate(-0.111 -130.751)" fill="#020304"/>
      <path id="Pfad_312" data-name="Pfad 312" d="M23,189.335l-6.028-2.105-.765.407v1.678L23,191.58Z" transform="translate(-0.111 -130.819)" fill="#020304"/>
      <path id="Pfad_313" data-name="Pfad 313" d="M23.012,187.022l-3.5-1.172-2.066,1.112,5.562,1.947v-1.887Z" transform="translate(-0.12 -130.81)" fill="#020304"/>
      <path id="Pfad_314" data-name="Pfad 314" d="M16.21,184.326,23,186.59v-2.245l-6.028-2.105-.765.407Z" transform="translate(-0.111 -130.785)" fill="#020304"/>
      <path id="Pfad_315" data-name="Pfad 315" d="M23.012,177.032l-3.5-1.162-2.066,1.112,5.562,1.937v-1.887Z" transform="translate(-0.12 -130.741)" fill="#020304"/>
      <rect id="Rechteck_185" data-name="Rechteck 185" width="1.976" height="68.537" transform="translate(13.576 0.348)" fill="#020304"/>
      <path id="Pfad_316" data-name="Pfad 316" d="M16.21,174.336,23,176.6v-2.245l-6.028-2.105-.765.407Z" transform="translate(-0.111 -130.717)" fill="#020304"/>
      <path id="Pfad_317" data-name="Pfad 317" d="M23.012,133.979v-1.887h0l-3.5-1.172-2.066,1.112Z" transform="translate(-0.12 -130.433)" fill="#020304"/>
      <path id="Pfad_318" data-name="Pfad 318" d="M2.731,130.778H.844L0,131.026v2.324l1.649-.487a.539.539,0,0,1,.109-.02.283.283,0,0,1,.248.109c.06.089,0,.2-.139.248L0,133.747v1.827l1.649-.487a.539.539,0,0,1,.109-.02.283.283,0,0,1,.248.109c.06.089,0,.2-.139.238L0,135.962v2.324l1.649-.487a.539.539,0,0,1,.109-.02.283.283,0,0,1,.248.109c.06.089,0,.2-.139.248L0,138.683v1.827l1.649-.487a.54.54,0,0,1,.109-.02.283.283,0,0,1,.248.109c.06.089,0,.2-.139.238L0,140.9v2.324l1.649-.487a.539.539,0,0,1,.109-.02.283.283,0,0,1,.248.109c.06.089,0,.2-.139.238L0,143.609v1.827l1.649-.487a.539.539,0,0,1,.109-.02.283.283,0,0,1,.248.109c.06.089,0,.2-.139.248L0,145.834v2.324l1.649-.487a.541.541,0,0,1,.109-.02.282.282,0,0,1,.248.109c.06.089,0,.2-.139.238L0,148.545v1.827l1.649-.487a.539.539,0,0,1,.109-.02.283.283,0,0,1,.248.109c.06.089,0,.2-.139.238L0,150.76v2.324l1.649-.487a.539.539,0,0,1,.109-.02.283.283,0,0,1,.248.109c.06.089,0,.2-.139.238L0,153.471V155.3l1.649-.487a.54.54,0,0,1,.109-.02.283.283,0,0,1,.248.109c.06.089,0,.2-.139.238L0,155.686v2.324l1.649-.487a.539.539,0,0,1,.109-.02.283.283,0,0,1,.248.109c.06.089,0,.2-.139.248L0,158.407v1.827l1.649-.487a.539.539,0,0,1,.109-.02.283.283,0,0,1,.248.109c.06.089,0,.2-.139.238L0,160.621v2.324l1.649-.487a.541.541,0,0,1,.109-.02.282.282,0,0,1,.248.109c.06.089,0,.2-.139.238L0,163.333v1.827l1.649-.487a.539.539,0,0,1,.109-.02.283.283,0,0,1,.248.109c.06.089,0,.2-.139.238L0,165.547v2.324l1.649-.487a.54.54,0,0,1,.109-.02.283.283,0,0,1,.248.109c.06.089,0,.2-.139.248L0,168.269V170.1l1.649-.487a.539.539,0,0,1,.109-.02.283.283,0,0,1,.248.109c.06.089,0,.2-.139.238L0,170.483v2.324l1.649-.487a.539.539,0,0,1,.109-.02.283.283,0,0,1,.248.109c.06.089,0,.2-.139.238L0,173.195v1.827l1.649-.487a.54.54,0,0,1,.109-.02.283.283,0,0,1,.248.109c.06.089,0,.2-.139.238L0,175.409v2.324l1.649-.487a1.033,1.033,0,0,1,.109-.01.283.283,0,0,1,.248.109c.06.089,0,.2-.139.248L0,178.14v1.827l1.649-.487a.539.539,0,0,1,.109-.02.283.283,0,0,1,.248.109c.06.089,0,.2-.139.238L0,180.355v2.324l1.649-.487a.539.539,0,0,1,.109-.02.282.282,0,0,1,.248.109c.06.089,0,.2-.139.238L0,183.066v1.827l1.649-.487a.539.539,0,0,1,.109-.02.282.282,0,0,1,.248.109c.06.089,0,.2-.139.248L0,185.291v2.324l1.649-.487a.539.539,0,0,1,.109-.02.283.283,0,0,1,.248.109c.06.089,0,.2-.139.248L0,188.012v1.827l1.649-.487a.54.54,0,0,1,.109-.02.283.283,0,0,1,.248.109c.06.089,0,.2-.139.238L0,190.227v2.324l1.649-.487a.539.539,0,0,1,.109-.02.283.283,0,0,1,.248.109c.06.089,0,.2-.139.248L0,192.948v1.827l1.649-.487a.539.539,0,0,1,.109-.02.283.283,0,0,1,.248.109c.06.089,0,.2-.139.238L0,195.163v2.324L1.649,197a.541.541,0,0,1,.109-.02.283.283,0,0,1,.248.109c.06.089,0,.2-.139.238L0,197.874v1.082H2.731V130.778Z" transform="translate(0 -130.43)" fill="#020304"/>
      <path id="Pfad_319" data-name="Pfad 319" d="M16.21,139.376,23,141.64V139.4l-6.028-2.105-.765.417Z" transform="translate(-0.111 -130.477)" fill="#020304"/>
      <path id="Pfad_320" data-name="Pfad 320" d="M23,194.326l-6.028-2.106-.765.417v1.668L23,196.57Z" transform="translate(-0.111 -130.854)" fill="#020304"/>
      <path id="Pfad_321" data-name="Pfad 321" d="M23.012,172.042l-3.5-1.172-2.066,1.112,5.562,1.947v-1.887Z" transform="translate(-0.12 -130.707)" fill="#020304"/>
      <path id="Pfad_322" data-name="Pfad 322" d="M16.21,159.356,23,161.62v-2.245l-6.028-2.105-.765.407Z" transform="translate(-0.111 -130.614)" fill="#020304"/>
      <path id="Pfad_323" data-name="Pfad 323" d="M23.012,157.062l-3.5-1.172L17.45,157l5.562,1.947v-1.887Z" transform="translate(-0.12 -130.604)" fill="#020304"/>
      <path id="Pfad_324" data-name="Pfad 324" d="M16.21,154.356,23,156.62v-2.245l-6.028-2.105-.765.417Z" transform="translate(-0.111 -130.58)" fill="#020304"/>
      <path id="Pfad_325" data-name="Pfad 325" d="M23.012,147.072l-3.5-1.162-2.066,1.1,5.562,1.947v-1.887Z" transform="translate(-0.12 -130.536)" fill="#020304"/>
      <path id="Pfad_326" data-name="Pfad 326" d="M23.012,152.062l-3.5-1.162-2.066,1.112,5.562,1.937v-1.887Z" transform="translate(-0.12 -130.57)" fill="#020304"/>
      <path id="Pfad_327" data-name="Pfad 327" d="M16.21,149.366,23,151.63v-2.245l-6.028-2.105-.765.407Z" transform="translate(-0.111 -130.545)" fill="#020304"/>
      <path id="Pfad_328" data-name="Pfad 328" d="M16.21,169.336,23,171.6v-2.245l-6.028-2.105-.765.417Z" transform="translate(-0.111 -130.682)" fill="#020304"/>
      <path id="Pfad_329" data-name="Pfad 329" d="M23.012,167.042l-3.5-1.162-2.066,1.112,5.562,1.947v-1.9Z" transform="translate(-0.12 -130.673)" fill="#020304"/>
      <path id="Pfad_330" data-name="Pfad 330" d="M16.21,164.346,23,166.61v-2.245l-6.028-2.105-.765.407Z" transform="translate(-0.111 -130.648)" fill="#020304"/>
      <path id="Pfad_331" data-name="Pfad 331" d="M23.012,162.052l-3.5-1.162-2.066,1.1,5.562,1.947v-1.887Z" transform="translate(-0.12 -130.639)" fill="#020304"/>
      <path id="Pfad_332" data-name="Pfad 332" d="M23.012,182.032l-3.5-1.172-2.066,1.112,5.562,1.947v-1.887Z" transform="translate(-0.12 -130.776)" fill="#020304"/>
      <path id="Pfad_333" data-name="Pfad 333" d="M7.36,140.724l2.7,1.46V139.82Z" transform="translate(-0.05 -130.494)" fill="#020304"/>
      <path id="Pfad_334" data-name="Pfad 334" d="M7.36,155.7l2.7,1.46V154.8Z" transform="translate(-0.05 -130.597)" fill="#020304"/>
      <path id="Pfad_335" data-name="Pfad 335" d="M7.36,165.694l2.7,1.46V164.79Z" transform="translate(-0.05 -130.665)" fill="#020304"/>
      <path id="Pfad_336" data-name="Pfad 336" d="M7.36,150.714l2.7,1.45V149.81Z" transform="translate(-0.05 -130.563)" fill="#020304"/>
      <path id="Pfad_337" data-name="Pfad 337" d="M7.36,145.714l2.7,1.46V144.82Z" transform="translate(-0.05 -130.529)" fill="#020304"/>
      <path id="Pfad_338" data-name="Pfad 338" d="M7.36,160.694l2.7,1.46V159.8Z" transform="translate(-0.05 -130.631)" fill="#020304"/>
      <rect id="Rechteck_186" data-name="Rechteck 186" width="1.917" height="68.537" transform="translate(10.557 0.348)" fill="#020304"/>
      <path id="Pfad_339" data-name="Pfad 339" d="M6.8,190.85l-3.5,1.162h0V193.9l5.552-1.937Z" transform="translate(-0.023 -130.844)" fill="#020304"/>
      <path id="Pfad_340" data-name="Pfad 340" d="M7.36,185.664l2.7,1.46V184.77Z" transform="translate(-0.05 -130.802)" fill="#020304"/>
      <path id="Pfad_341" data-name="Pfad 341" d="M7.36,180.674l2.7,1.46V179.77Z" transform="translate(-0.05 -130.768)" fill="#020304"/>
      <path id="Pfad_342" data-name="Pfad 342" d="M7.36,175.684l2.7,1.45V174.78Z" transform="translate(-0.05 -130.734)" fill="#020304"/>
      <path id="Pfad_343" data-name="Pfad 343" d="M7.36,170.684l2.7,1.46V169.79Z" transform="translate(-0.05 -130.7)" fill="#020304"/>
      <path id="Pfad_344" data-name="Pfad 344" d="M10.034,197.6l-.715-.377L3.3,199.325v.437h6.734Z" transform="translate(-0.023 -130.888)" fill="#020304"/>
      <path id="Pfad_345" data-name="Pfad 345" d="M3.3,131.674,6,130.78H3.3Z" transform="translate(-0.023 -130.432)" fill="#020304"/>
      <path id="Pfad_346" data-name="Pfad 346" d="M10.062,132.2v-1.42H7.43Z" transform="translate(-0.051 -130.432)" fill="#020304"/>
      <path id="Pfad_347" data-name="Pfad 347" d="M3.3,132.092h0v1.887l5.552-1.947L6.8,130.92Z" transform="translate(-0.023 -130.433)" fill="#020304"/>
      <path id="Pfad_348" data-name="Pfad 348" d="M24.464,197.67c-.139-.04-.2-.149-.139-.238a.308.308,0,0,1,.248-.109.214.214,0,0,1,.109.02l1.539.457v-2.324l-1.758-.516c-.139-.04-.2-.149-.139-.238a.308.308,0,0,1,.248-.109.214.214,0,0,1,.109.02l1.539.457v-1.827l-1.758-.516c-.139-.04-.2-.149-.139-.248a.308.308,0,0,1,.248-.109.214.214,0,0,1,.109.02l1.539.457V190.54l-1.758-.516c-.139-.04-.2-.149-.139-.238a.308.308,0,0,1,.248-.109.214.214,0,0,1,.109.02l1.539.457v-1.827l-1.758-.516c-.139-.04-.2-.149-.139-.248a.308.308,0,0,1,.248-.109.214.214,0,0,1,.109.02l1.539.457V185.6l-1.758-.516c-.139-.04-.2-.149-.139-.248a.308.308,0,0,1,.248-.109.214.214,0,0,1,.109.02l1.539.457v-1.827l-1.758-.516c-.139-.04-.2-.149-.139-.238a.308.308,0,0,1,.248-.109.214.214,0,0,1,.109.02l1.539.457v-2.324l-1.758-.516c-.139-.04-.2-.149-.139-.238a.308.308,0,0,1,.248-.109.214.214,0,0,1,.109.02l1.539.457v-1.827l-1.758-.516c-.139-.04-.2-.149-.139-.248a.308.308,0,0,1,.248-.109.407.407,0,0,1,.109.01l1.539.457v-2.324l-1.758-.516c-.139-.04-.2-.149-.139-.238a.308.308,0,0,1,.248-.109.214.214,0,0,1,.109.02l1.539.457v-1.827l-1.758-.516c-.139-.04-.2-.149-.139-.238a.308.308,0,0,1,.248-.109.214.214,0,0,1,.109.02l1.539.457V170.8l-1.758-.517c-.139-.04-.2-.149-.139-.238a.308.308,0,0,1,.248-.109.213.213,0,0,1,.109.02l1.539.457v-1.827l-1.758-.516c-.139-.04-.2-.149-.139-.248a.308.308,0,0,1,.248-.109.214.214,0,0,1,.109.02l1.539.457V165.86l-1.758-.516c-.139-.04-.2-.149-.139-.238a.308.308,0,0,1,.248-.109.214.214,0,0,1,.109.02l1.539.457v-1.827l-1.758-.516c-.139-.04-.2-.149-.139-.238a.308.308,0,0,1,.248-.109.214.214,0,0,1,.109.02l1.539.457v-2.324l-1.758-.516c-.139-.04-.2-.149-.139-.238a.308.308,0,0,1,.248-.109.214.214,0,0,1,.109.02l1.539.457V158.72l-1.758-.516c-.139-.04-.2-.149-.139-.248a.308.308,0,0,1,.248-.109.214.214,0,0,1,.109.02l1.539.457V156l-1.758-.516c-.139-.04-.2-.149-.139-.238a.308.308,0,0,1,.248-.109.214.214,0,0,1,.109.02l1.539.457v-1.827l-1.758-.516c-.139-.04-.2-.149-.139-.238a.308.308,0,0,1,.248-.109.214.214,0,0,1,.109.02l1.539.457v-2.324l-1.758-.516c-.139-.04-.2-.149-.139-.238a.308.308,0,0,1,.248-.109.214.214,0,0,1,.109.02l1.539.457v-1.827l-1.758-.516c-.139-.04-.2-.149-.139-.238a.308.308,0,0,1,.248-.109.214.214,0,0,1,.109.02l1.539.457v-2.324l-1.758-.516c-.139-.04-.2-.149-.139-.248a.308.308,0,0,1,.248-.109.214.214,0,0,1,.109.02l1.539.457v-1.827l-1.758-.516c-.139-.04-.2-.149-.139-.238a.308.308,0,0,1,.248-.109.214.214,0,0,1,.109.02l1.539.457V141.21l-1.758-.516c-.139-.04-.2-.149-.139-.238a.308.308,0,0,1,.248-.109.214.214,0,0,1,.109.02l1.539.457V139l-1.758-.516c-.139-.04-.2-.149-.139-.248a.308.308,0,0,1,.248-.109.214.214,0,0,1,.109.02l1.539.457v-2.324l-1.758-.516c-.139-.04-.2-.149-.139-.238a.308.308,0,0,1,.248-.109.214.214,0,0,1,.109.02l1.539.457V134.06l-1.758-.516c-.139-.04-.2-.149-.139-.248a.308.308,0,0,1,.248-.109.214.214,0,0,1,.109.02l1.539.457v-2.324l-.735-.218H23.6v68.537h2.622v-1.112l-1.758-.516Z" transform="translate(-0.162 -130.435)" fill="#020304"/>
      <path id="Pfad_349" data-name="Pfad 349" d="M3.3,137.082v1.887l5.552-1.937L6.8,135.92l-3.5,1.162Z" transform="translate(-0.023 -130.467)" fill="#020304"/>
      <path id="Pfad_350" data-name="Pfad 350" d="M10.061,137.184V134.83l-2.7.9Z" transform="translate(-0.05 -130.46)" fill="#020304"/>
      <path id="Pfad_351" data-name="Pfad 351" d="M3.3,134.405v2.245l6.734-2.254v-1.708l-.715-.387Z" transform="translate(-0.023 -130.443)" fill="#020304"/>
      <path id="Pfad_352" data-name="Pfad 352" d="M6.8,195.84l-3.5,1.172h0V198.9l5.552-1.947Z" transform="translate(-0.023 -130.878)" fill="#020304"/>
      <path id="Pfad_353" data-name="Pfad 353" d="M10.061,194.75l-2.7.9,2.7,1.46Z" transform="translate(-0.05 -130.871)" fill="#020304"/>
      <path id="Pfad_354" data-name="Pfad 354" d="M10.061,189.76l-2.7.9,2.7,1.45Z" transform="translate(-0.05 -130.837)" fill="#020304"/>
      <path id="Pfad_355" data-name="Pfad 355" d="M6.8,150.9l-3.5,1.162h0v1.887l5.552-1.937Z" transform="translate(-0.023 -130.57)" fill="#020304"/>
      <path id="Pfad_356" data-name="Pfad 356" d="M3.3,149.385v2.245l6.734-2.254v-1.708l-.715-.387Z" transform="translate(-0.023 -130.545)" fill="#020304"/>
      <path id="Pfad_357" data-name="Pfad 357" d="M3.3,154.375v2.245l6.734-2.245v-1.718l-.715-.387Z" transform="translate(-0.023 -130.58)" fill="#020304"/>
      <path id="Pfad_358" data-name="Pfad 358" d="M6.8,155.89l-3.5,1.172h0v1.887L8.852,157Z" transform="translate(-0.023 -130.604)" fill="#020304"/>
      <path id="Pfad_359" data-name="Pfad 359" d="M3.3,159.375v2.245l6.734-2.254v-1.718l-.715-.377Z" transform="translate(-0.023 -130.614)" fill="#020304"/>
      <path id="Pfad_360" data-name="Pfad 360" d="M6.8,160.89l-3.5,1.162h0v1.887l5.552-1.947Z" transform="translate(-0.023 -130.639)" fill="#020304"/>
      <path id="Pfad_361" data-name="Pfad 361" d="M3.3,141.64l6.734-2.245v-1.718l-.715-.387L3.3,139.4Z" transform="translate(-0.023 -130.477)" fill="#020304"/>
      <path id="Pfad_362" data-name="Pfad 362" d="M6.8,145.91l-3.5,1.162h0v1.887l5.552-1.947Z" transform="translate(-0.023 -130.536)" fill="#020304"/>
      <path id="Pfad_363" data-name="Pfad 363" d="M10.034,192.607l-.715-.387L3.3,194.326v2.244l6.734-2.244Z" transform="translate(-0.023 -130.854)" fill="#020304"/>
      <path id="Pfad_364" data-name="Pfad 364" d="M3.3,144.4v2.244l6.734-2.254v-1.718l-.715-.387Z" transform="translate(-0.023 -130.511)" fill="#020304"/>
      <path id="Pfad_365" data-name="Pfad 365" d="M6.8,140.91l-3.5,1.172h0v1.887l5.552-1.947Z" transform="translate(-0.023 -130.502)" fill="#020304"/>
      <path id="Pfad_366" data-name="Pfad 366" d="M3.3,169.355V171.6l6.734-2.245v-1.718l-.715-.387Z" transform="translate(-0.023 -130.682)" fill="#020304"/>
      <path id="Pfad_367" data-name="Pfad 367" d="M6.8,180.86l-3.5,1.172h0v1.887l5.552-1.947Z" transform="translate(-0.023 -130.776)" fill="#020304"/>
      <path id="Pfad_368" data-name="Pfad 368" d="M3.3,179.345v2.245l6.734-2.245v-1.718l-.715-.387Z" transform="translate(-0.023 -130.751)" fill="#020304"/>
      <path id="Pfad_369" data-name="Pfad 369" d="M3.3,184.345v2.245l6.734-2.254v-1.718l-.715-.387Z" transform="translate(-0.023 -130.785)" fill="#020304"/>
      <path id="Pfad_370" data-name="Pfad 370" d="M6.8,175.87l-3.5,1.162h0v1.887l5.552-1.937Z" transform="translate(-0.023 -130.741)" fill="#020304"/>
      <path id="Pfad_371" data-name="Pfad 371" d="M6.8,185.85l-3.5,1.172h0v1.887l5.552-1.947Z" transform="translate(-0.023 -130.81)" fill="#020304"/>
      <path id="Pfad_372" data-name="Pfad 372" d="M3.3,189.335v2.245l6.734-2.245v-1.718l-.715-.387Z" transform="translate(-0.023 -130.819)" fill="#020304"/>
      <path id="Pfad_373" data-name="Pfad 373" d="M3.3,174.355V176.6l6.734-2.254v-1.718l-.715-.377Z" transform="translate(-0.023 -130.717)" fill="#020304"/>
      <path id="Pfad_374" data-name="Pfad 374" d="M6.8,165.88l-3.5,1.162h0v1.9l5.552-1.947Z" transform="translate(-0.023 -130.673)" fill="#020304"/>
      <path id="Pfad_375" data-name="Pfad 375" d="M3.3,164.365v2.245l6.734-2.245v-1.718l-.715-.387Z" transform="translate(-0.023 -130.648)" fill="#020304"/>
      <path id="Pfad_376" data-name="Pfad 376" d="M6.8,170.87l-3.5,1.172h0v1.887l5.552-1.947Z" transform="translate(-0.023 -130.707)" fill="#020304"/>
    </g>
    <g id="Gruppe_168" data-name="Gruppe 168" transform="translate(258.524 128.046)">
      <path id="Pfad_377" data-name="Pfad 377" d="M279.271,185.664l-2.751-.914v2.4Z" transform="translate(-260.42 -130.802)" fill="#020304"/>
      <path id="Pfad_378" data-name="Pfad 378" d="M279.271,165.694l-2.751-.914v2.393Z" transform="translate(-260.42 -130.665)" fill="#020304"/>
      <path id="Pfad_379" data-name="Pfad 379" d="M279.271,175.684l-2.751-.924v2.4Z" transform="translate(-260.42 -130.734)" fill="#020304"/>
      <path id="Pfad_380" data-name="Pfad 380" d="M276.52,144.376l6.793,2.264V144.4l-6.028-2.115-.765.417Z" transform="translate(-260.42 -130.511)" fill="#020304"/>
      <path id="Pfad_381" data-name="Pfad 381" d="M279.271,170.684l-2.751-.914v2.4Z" transform="translate(-260.42 -130.7)" fill="#020304"/>
      <path id="Pfad_382" data-name="Pfad 382" d="M279.271,160.694l-2.751-.914v2.4Z" transform="translate(-260.42 -130.631)" fill="#020304"/>
      <path id="Pfad_383" data-name="Pfad 383" d="M279.826,140.91l-2.066,1.112,5.562,1.947v-1.887h-.01Z" transform="translate(-260.429 -130.502)" fill="#020304"/>
      <path id="Pfad_384" data-name="Pfad 384" d="M276.52,142.2l2.751-1.48-2.751-.914Z" transform="translate(-260.42 -130.494)" fill="#020304"/>
      <path id="Pfad_385" data-name="Pfad 385" d="M279.271,145.714l-2.751-.914v2.4Z" transform="translate(-260.42 -130.528)" fill="#020304"/>
      <path id="Pfad_386" data-name="Pfad 386" d="M279.271,150.714l-2.751-.924v2.4Z" transform="translate(-260.42 -130.563)" fill="#020304"/>
      <path id="Pfad_387" data-name="Pfad 387" d="M279.271,155.7l-2.751-.914v2.393Z" transform="translate(-260.42 -130.597)" fill="#020304"/>
      <path id="Pfad_388" data-name="Pfad 388" d="M279.271,180.674l-2.751-.914v2.393Z" transform="translate(-260.42 -130.768)" fill="#020304"/>
      <path id="Pfad_389" data-name="Pfad 389" d="M283.322,197.012h-.01l-3.486-1.172-2.066,1.112,5.562,1.947Z" transform="translate(-260.429 -130.878)" fill="#020304"/>
      <path id="Pfad_390" data-name="Pfad 390" d="M283.313,199.325l-6.028-2.105-.765.407v2.135h6.793Z" transform="translate(-260.42 -130.888)" fill="#020304"/>
      <path id="Pfad_391" data-name="Pfad 391" d="M276.52,134.386l6.793,2.264v-2.245l-6.028-2.105-.765.407Z" transform="translate(-260.42 -130.443)" fill="#020304"/>
      <path id="Pfad_392" data-name="Pfad 392" d="M279.211,130.78H276.52v1.44Z" transform="translate(-260.42 -130.432)" fill="#020304"/>
      <path id="Pfad_393" data-name="Pfad 393" d="M283.341,131.674v-.894H280.63Z" transform="translate(-260.448 -130.432)" fill="#020304"/>
      <path id="Pfad_394" data-name="Pfad 394" d="M276.52,194.74v2.393l2.751-1.48Z" transform="translate(-260.42 -130.871)" fill="#020304"/>
      <path id="Pfad_395" data-name="Pfad 395" d="M283.322,192.012h-.01l-3.486-1.162-2.066,1.112,5.562,1.937Z" transform="translate(-260.429 -130.844)" fill="#020304"/>
      <path id="Pfad_396" data-name="Pfad 396" d="M279.826,135.92l-2.066,1.112,5.562,1.937v-1.887h-.01Z" transform="translate(-260.429 -130.467)" fill="#020304"/>
      <path id="Pfad_397" data-name="Pfad 397" d="M276.52,137.213l2.751-1.48-2.751-.924Z" transform="translate(-260.42 -130.46)" fill="#020304"/>
      <path id="Pfad_398" data-name="Pfad 398" d="M279.271,190.664l-2.751-.924v2.4Z" transform="translate(-260.42 -130.837)" fill="#020304"/>
      <path id="Pfad_399" data-name="Pfad 399" d="M276.52,179.326l6.793,2.264v-2.245l-6.028-2.105-.765.407Z" transform="translate(-260.42 -130.751)" fill="#020304"/>
      <path id="Pfad_400" data-name="Pfad 400" d="M283.313,189.335l-6.028-2.105-.765.407v1.678l6.793,2.264Z" transform="translate(-260.42 -130.819)" fill="#020304"/>
      <path id="Pfad_401" data-name="Pfad 401" d="M283.312,187.022l-3.486-1.172-2.066,1.112,5.562,1.947v-1.887Z" transform="translate(-260.429 -130.81)" fill="#020304"/>
      <path id="Pfad_402" data-name="Pfad 402" d="M276.52,184.326l6.793,2.264v-2.245l-6.028-2.105-.765.407Z" transform="translate(-260.42 -130.785)" fill="#020304"/>
      <path id="Pfad_403" data-name="Pfad 403" d="M283.312,177.032l-3.486-1.162-2.066,1.112,5.562,1.937v-1.887Z" transform="translate(-260.429 -130.741)" fill="#020304"/>
      <rect id="Rechteck_187" data-name="Rechteck 187" width="1.976" height="68.537" transform="translate(13.577 0.348)" fill="#020304"/>
      <path id="Pfad_404" data-name="Pfad 404" d="M276.52,174.336l6.793,2.264v-2.245l-6.028-2.105-.765.407Z" transform="translate(-260.42 -130.717)" fill="#020304"/>
      <path id="Pfad_405" data-name="Pfad 405" d="M283.322,133.979v-1.887h-.01l-3.486-1.172-2.066,1.112Z" transform="translate(-260.429 -130.433)" fill="#020304"/>
      <path id="Pfad_406" data-name="Pfad 406" d="M263.041,130.778h-1.887l-.844.248v2.324l1.649-.487a.539.539,0,0,1,.109-.02.283.283,0,0,1,.248.109c.06.089,0,.2-.139.248l-1.867.546v1.827l1.649-.487a.539.539,0,0,1,.109-.02.283.283,0,0,1,.248.109c.06.089,0,.2-.139.238l-1.867.546v2.324l1.649-.487a.539.539,0,0,1,.109-.02.283.283,0,0,1,.248.109c.06.089,0,.2-.139.248l-1.867.546v1.827l1.648-.487a.541.541,0,0,1,.109-.02.283.283,0,0,1,.248.109c.06.089,0,.2-.139.238l-1.867.546v2.324l1.649-.487a.539.539,0,0,1,.109-.02.283.283,0,0,1,.248.109c.06.089,0,.2-.139.238l-1.867.546v1.827l1.649-.487a.539.539,0,0,1,.109-.02.283.283,0,0,1,.248.109c.06.089,0,.2-.139.248l-1.867.546v2.324l1.649-.487a.542.542,0,0,1,.109-.02.282.282,0,0,1,.248.109c.06.089,0,.2-.139.238l-1.867.546v1.827l1.649-.487a.54.54,0,0,1,.109-.02.283.283,0,0,1,.248.109c.06.089,0,.2-.139.238l-1.867.546v2.324l1.648-.487a.54.54,0,0,1,.109-.02.283.283,0,0,1,.248.109c.06.089,0,.2-.139.238l-1.867.546V155.3l1.648-.487a.541.541,0,0,1,.109-.02.283.283,0,0,1,.248.109c.06.089,0,.2-.139.238l-1.867.546v2.324l1.649-.487a.539.539,0,0,1,.109-.02.282.282,0,0,1,.248.109c.06.089,0,.2-.139.248l-1.867.546v1.827l1.649-.487a.539.539,0,0,1,.109-.02.283.283,0,0,1,.248.109c.06.089,0,.2-.139.238l-1.867.546v2.324l1.649-.487a.542.542,0,0,1,.109-.02.283.283,0,0,1,.248.109c.06.089,0,.2-.139.238l-1.867.546v1.827l1.649-.487a.54.54,0,0,1,.109-.02.283.283,0,0,1,.248.109c.06.089,0,.2-.139.238l-1.867.546v2.324l1.649-.487a.54.54,0,0,1,.109-.02.283.283,0,0,1,.248.109c.06.089,0,.2-.139.248l-1.867.546V170.1l1.649-.487a.539.539,0,0,1,.109-.02.283.283,0,0,1,.248.109c.06.089,0,.2-.139.238l-1.867.546v2.324l1.649-.487a.539.539,0,0,1,.109-.02.283.283,0,0,1,.248.109c.06.089,0,.2-.139.238l-1.867.546v1.827l1.649-.487a.539.539,0,0,1,.109-.02.283.283,0,0,1,.248.109c.06.089,0,.2-.139.238l-1.867.546v2.324l1.649-.487a1.034,1.034,0,0,1,.109-.01.283.283,0,0,1,.248.109c.06.089,0,.2-.139.248l-1.867.546v1.827l1.649-.487a.539.539,0,0,1,.109-.02.283.283,0,0,1,.248.109c.06.089,0,.2-.139.238l-1.867.546v2.324l1.649-.487a.539.539,0,0,1,.109-.02.282.282,0,0,1,.248.109c.06.089,0,.2-.139.238l-1.867.546v1.827l1.649-.487a.539.539,0,0,1,.109-.02.282.282,0,0,1,.248.109c.06.089,0,.2-.139.248l-1.867.546v2.324l1.649-.487a.539.539,0,0,1,.109-.02.283.283,0,0,1,.248.109c.06.089,0,.2-.139.248l-1.867.546v1.827l1.649-.487a.541.541,0,0,1,.109-.02.283.283,0,0,1,.248.109c.06.089,0,.2-.139.238l-1.867.546v2.324l1.649-.487a.54.54,0,0,1,.109-.02.283.283,0,0,1,.248.109c.06.089,0,.2-.139.248l-1.867.546v1.827l1.649-.487a.539.539,0,0,1,.109-.02.283.283,0,0,1,.248.109c.06.089,0,.2-.139.238l-1.867.546v2.324l1.649-.487a.541.541,0,0,1,.109-.02.283.283,0,0,1,.248.109c.06.089,0,.2-.139.238l-1.867.546v1.082h2.731V130.778Z" transform="translate(-260.309 -130.43)" fill="#020304"/>
      <path id="Pfad_407" data-name="Pfad 407" d="M276.52,139.376l6.793,2.264V139.4l-6.028-2.105-.765.417Z" transform="translate(-260.42 -130.477)" fill="#020304"/>
      <path id="Pfad_408" data-name="Pfad 408" d="M283.313,194.326l-6.028-2.106-.765.417v1.668l6.793,2.264Z" transform="translate(-260.42 -130.854)" fill="#020304"/>
      <path id="Pfad_409" data-name="Pfad 409" d="M283.312,172.042l-3.486-1.172-2.066,1.112,5.562,1.947v-1.887Z" transform="translate(-260.429 -130.707)" fill="#020304"/>
      <path id="Pfad_410" data-name="Pfad 410" d="M276.52,159.356l6.793,2.264v-2.245l-6.028-2.105-.765.407Z" transform="translate(-260.42 -130.614)" fill="#020304"/>
      <path id="Pfad_411" data-name="Pfad 411" d="M283.312,157.062l-3.486-1.172L277.76,157l5.562,1.947v-1.887Z" transform="translate(-260.429 -130.604)" fill="#020304"/>
      <path id="Pfad_412" data-name="Pfad 412" d="M276.52,154.356l6.793,2.264v-2.245l-6.028-2.105-.765.417Z" transform="translate(-260.42 -130.58)" fill="#020304"/>
      <path id="Pfad_413" data-name="Pfad 413" d="M283.312,147.072l-3.486-1.162-2.066,1.1,5.562,1.947v-1.887Z" transform="translate(-260.429 -130.536)" fill="#020304"/>
      <path id="Pfad_414" data-name="Pfad 414" d="M283.312,152.062l-3.486-1.162-2.066,1.112,5.562,1.937v-1.887Z" transform="translate(-260.429 -130.57)" fill="#020304"/>
      <path id="Pfad_415" data-name="Pfad 415" d="M276.52,149.366l6.793,2.264v-2.245l-6.028-2.105-.765.407Z" transform="translate(-260.42 -130.545)" fill="#020304"/>
      <path id="Pfad_416" data-name="Pfad 416" d="M276.52,169.336l6.793,2.264v-2.245l-6.028-2.105-.765.417Z" transform="translate(-260.42 -130.682)" fill="#020304"/>
      <path id="Pfad_417" data-name="Pfad 417" d="M283.312,167.042l-3.486-1.162-2.066,1.112,5.562,1.947v-1.9Z" transform="translate(-260.429 -130.673)" fill="#020304"/>
      <path id="Pfad_418" data-name="Pfad 418" d="M276.52,164.346l6.793,2.264v-2.245l-6.028-2.105-.765.407Z" transform="translate(-260.42 -130.648)" fill="#020304"/>
      <path id="Pfad_419" data-name="Pfad 419" d="M283.312,162.052l-3.486-1.162-2.066,1.1,5.562,1.947v-1.887Z" transform="translate(-260.429 -130.639)" fill="#020304"/>
      <path id="Pfad_420" data-name="Pfad 420" d="M283.312,182.032l-3.486-1.172-2.066,1.112,5.562,1.947v-1.887Z" transform="translate(-260.429 -130.776)" fill="#020304"/>
      <path id="Pfad_421" data-name="Pfad 421" d="M267.67,140.724l2.7,1.46V139.82Z" transform="translate(-260.36 -130.494)" fill="#020304"/>
      <path id="Pfad_422" data-name="Pfad 422" d="M267.67,155.7l2.7,1.46V154.8Z" transform="translate(-260.36 -130.597)" fill="#020304"/>
      <path id="Pfad_423" data-name="Pfad 423" d="M267.67,165.694l2.7,1.46V164.79Z" transform="translate(-260.36 -130.665)" fill="#020304"/>
      <path id="Pfad_424" data-name="Pfad 424" d="M267.67,150.714l2.7,1.45V149.81Z" transform="translate(-260.36 -130.563)" fill="#020304"/>
      <path id="Pfad_425" data-name="Pfad 425" d="M267.67,145.714l2.7,1.46V144.82Z" transform="translate(-260.36 -130.529)" fill="#020304"/>
      <path id="Pfad_426" data-name="Pfad 426" d="M267.67,160.694l2.7,1.46V159.8Z" transform="translate(-260.36 -130.631)" fill="#020304"/>
      <rect id="Rechteck_188" data-name="Rechteck 188" width="1.917" height="68.537" transform="translate(10.558 0.348)" fill="#020304"/>
      <path id="Pfad_427" data-name="Pfad 427" d="M267.106,190.85l-3.5,1.162h0V193.9l5.552-1.937Z" transform="translate(-260.332 -130.844)" fill="#020304"/>
      <path id="Pfad_428" data-name="Pfad 428" d="M267.67,185.664l2.7,1.46V184.77Z" transform="translate(-260.36 -130.802)" fill="#020304"/>
      <path id="Pfad_429" data-name="Pfad 429" d="M267.67,180.674l2.7,1.46V179.77Z" transform="translate(-260.36 -130.768)" fill="#020304"/>
      <path id="Pfad_430" data-name="Pfad 430" d="M267.67,175.684l2.7,1.45V174.78Z" transform="translate(-260.36 -130.734)" fill="#020304"/>
      <path id="Pfad_431" data-name="Pfad 431" d="M267.67,170.684l2.7,1.46V169.79Z" transform="translate(-260.36 -130.7)" fill="#020304"/>
      <path id="Pfad_432" data-name="Pfad 432" d="M270.343,197.6l-.715-.377-6.018,2.105v.437h6.733Z" transform="translate(-260.332 -130.888)" fill="#020304"/>
      <path id="Pfad_433" data-name="Pfad 433" d="M263.61,131.674l2.7-.894h-2.7Z" transform="translate(-260.332 -130.432)" fill="#020304"/>
      <path id="Pfad_434" data-name="Pfad 434" d="M270.372,132.2v-1.42H267.74Z" transform="translate(-260.36 -130.432)" fill="#020304"/>
      <path id="Pfad_435" data-name="Pfad 435" d="M263.61,132.092h0v1.887l5.552-1.947-2.056-1.112Z" transform="translate(-260.332 -130.433)" fill="#020304"/>
      <path id="Pfad_436" data-name="Pfad 436" d="M284.774,197.67c-.139-.04-.2-.149-.139-.238a.308.308,0,0,1,.248-.109.214.214,0,0,1,.109.02l1.539.457v-2.324l-1.758-.516c-.139-.04-.2-.149-.139-.238a.308.308,0,0,1,.248-.109.214.214,0,0,1,.109.02l1.539.457v-1.827l-1.758-.516c-.139-.04-.2-.149-.139-.248a.308.308,0,0,1,.248-.109.213.213,0,0,1,.109.02l1.539.457V190.54l-1.758-.516c-.139-.04-.2-.149-.139-.238a.308.308,0,0,1,.248-.109.214.214,0,0,1,.109.02l1.539.457v-1.827l-1.758-.516c-.139-.04-.2-.149-.139-.248a.308.308,0,0,1,.248-.109.213.213,0,0,1,.109.02l1.539.457V185.6l-1.758-.516c-.139-.04-.2-.149-.139-.248a.308.308,0,0,1,.248-.109.213.213,0,0,1,.109.02l1.539.457v-1.827l-1.758-.516c-.139-.04-.2-.149-.139-.238a.308.308,0,0,1,.248-.109.214.214,0,0,1,.109.02l1.539.457v-2.324l-1.758-.516c-.139-.04-.2-.149-.139-.238a.308.308,0,0,1,.248-.109.214.214,0,0,1,.109.02l1.539.457v-1.827l-1.758-.516c-.139-.04-.2-.149-.139-.248a.308.308,0,0,1,.248-.109.407.407,0,0,1,.109.01l1.539.457v-2.324l-1.758-.516c-.139-.04-.2-.149-.139-.238a.308.308,0,0,1,.248-.109.213.213,0,0,1,.109.02l1.539.457v-1.827l-1.758-.516c-.139-.04-.2-.149-.139-.238a.308.308,0,0,1,.248-.109.213.213,0,0,1,.109.02l1.539.457V170.8l-1.758-.517c-.139-.04-.2-.149-.139-.238a.308.308,0,0,1,.248-.109.213.213,0,0,1,.109.02l1.539.457v-1.827l-1.758-.516c-.139-.04-.2-.149-.139-.248a.309.309,0,0,1,.248-.109.214.214,0,0,1,.109.02l1.539.457V165.86l-1.758-.516c-.139-.04-.2-.149-.139-.238a.308.308,0,0,1,.248-.109.214.214,0,0,1,.109.02l1.539.457v-1.827l-1.758-.516c-.139-.04-.2-.149-.139-.238a.308.308,0,0,1,.248-.109.214.214,0,0,1,.109.02l1.539.457v-2.324l-1.758-.516c-.139-.04-.2-.149-.139-.238a.308.308,0,0,1,.248-.109.214.214,0,0,1,.109.02l1.539.457V158.72l-1.758-.516c-.139-.04-.2-.149-.139-.248a.308.308,0,0,1,.248-.109.214.214,0,0,1,.109.02l1.539.457V156l-1.758-.516c-.139-.04-.2-.149-.139-.238a.308.308,0,0,1,.248-.109.214.214,0,0,1,.109.02l1.539.457v-1.827l-1.758-.516c-.139-.04-.2-.149-.139-.238a.308.308,0,0,1,.248-.109.214.214,0,0,1,.109.02l1.539.457v-2.324l-1.758-.516c-.139-.04-.2-.149-.139-.238a.308.308,0,0,1,.248-.109.213.213,0,0,1,.109.02l1.539.457v-1.827l-1.758-.516c-.139-.04-.2-.149-.139-.238a.308.308,0,0,1,.248-.109.214.214,0,0,1,.109.02l1.539.457v-2.324l-1.758-.516c-.139-.04-.2-.149-.139-.248a.308.308,0,0,1,.248-.109.214.214,0,0,1,.109.02l1.539.457v-1.827l-1.758-.516c-.139-.04-.2-.149-.139-.238a.308.308,0,0,1,.248-.109.214.214,0,0,1,.109.02l1.539.457V141.21l-1.758-.516c-.139-.04-.2-.149-.139-.238a.308.308,0,0,1,.248-.109.214.214,0,0,1,.109.02l1.539.457V139l-1.758-.516c-.139-.04-.2-.149-.139-.248a.308.308,0,0,1,.248-.109.213.213,0,0,1,.109.02l1.539.457v-2.324l-1.758-.516c-.139-.04-.2-.149-.139-.238a.308.308,0,0,1,.248-.109.213.213,0,0,1,.109.02l1.539.457V134.06l-1.758-.516c-.139-.04-.2-.149-.139-.248a.308.308,0,0,1,.248-.109.214.214,0,0,1,.109.02l1.539.457v-2.324l-.735-.218h-1.887v68.537h2.622v-1.112l-1.758-.516Z" transform="translate(-260.471 -130.435)" fill="#020304"/>
      <path id="Pfad_437" data-name="Pfad 437" d="M263.61,137.082v1.887l5.552-1.937-2.056-1.112-3.5,1.162Z" transform="translate(-260.332 -130.467)" fill="#020304"/>
      <path id="Pfad_438" data-name="Pfad 438" d="M270.371,137.184V134.83l-2.7.9Z" transform="translate(-260.36 -130.46)" fill="#020304"/>
      <path id="Pfad_439" data-name="Pfad 439" d="M263.61,134.405v2.245l6.733-2.254v-1.708l-.715-.387Z" transform="translate(-260.332 -130.443)" fill="#020304"/>
      <path id="Pfad_440" data-name="Pfad 440" d="M267.106,195.84l-3.5,1.172h0V198.9l5.552-1.947Z" transform="translate(-260.332 -130.878)" fill="#020304"/>
      <path id="Pfad_441" data-name="Pfad 441" d="M270.371,194.75l-2.7.9,2.7,1.46Z" transform="translate(-260.36 -130.871)" fill="#020304"/>
      <path id="Pfad_442" data-name="Pfad 442" d="M270.371,189.76l-2.7.9,2.7,1.45Z" transform="translate(-260.36 -130.837)" fill="#020304"/>
      <path id="Pfad_443" data-name="Pfad 443" d="M267.106,150.9l-3.5,1.162h0v1.887l5.552-1.937Z" transform="translate(-260.332 -130.57)" fill="#020304"/>
      <path id="Pfad_444" data-name="Pfad 444" d="M263.61,149.385v2.245l6.733-2.254v-1.708l-.715-.387Z" transform="translate(-260.332 -130.545)" fill="#020304"/>
      <path id="Pfad_445" data-name="Pfad 445" d="M263.61,154.375v2.245l6.733-2.245v-1.718l-.715-.387Z" transform="translate(-260.332 -130.58)" fill="#020304"/>
      <path id="Pfad_446" data-name="Pfad 446" d="M267.106,155.89l-3.5,1.172h0v1.887L269.162,157Z" transform="translate(-260.332 -130.604)" fill="#020304"/>
      <path id="Pfad_447" data-name="Pfad 447" d="M263.61,159.375v2.245l6.733-2.254v-1.718l-.715-.377Z" transform="translate(-260.332 -130.614)" fill="#020304"/>
      <path id="Pfad_448" data-name="Pfad 448" d="M267.106,160.89l-3.5,1.162h0v1.887l5.552-1.947Z" transform="translate(-260.332 -130.639)" fill="#020304"/>
      <path id="Pfad_449" data-name="Pfad 449" d="M263.61,141.64l6.733-2.245v-1.718l-.715-.387L263.61,139.4Z" transform="translate(-260.332 -130.477)" fill="#020304"/>
      <path id="Pfad_450" data-name="Pfad 450" d="M267.106,145.91l-3.5,1.162h0v1.887l5.552-1.947Z" transform="translate(-260.332 -130.536)" fill="#020304"/>
      <path id="Pfad_451" data-name="Pfad 451" d="M270.343,192.607l-.715-.387-6.018,2.106v2.244l6.733-2.244Z" transform="translate(-260.332 -130.854)" fill="#020304"/>
      <path id="Pfad_452" data-name="Pfad 452" d="M263.61,144.4v2.244l6.733-2.254v-1.718l-.715-.387Z" transform="translate(-260.332 -130.511)" fill="#020304"/>
      <path id="Pfad_453" data-name="Pfad 453" d="M267.106,140.91l-3.5,1.172h0v1.887l5.552-1.947Z" transform="translate(-260.332 -130.502)" fill="#020304"/>
      <path id="Pfad_454" data-name="Pfad 454" d="M263.61,169.355V171.6l6.733-2.245v-1.718l-.715-.387Z" transform="translate(-260.332 -130.682)" fill="#020304"/>
      <path id="Pfad_455" data-name="Pfad 455" d="M267.106,180.86l-3.5,1.172h0v1.887l5.552-1.947Z" transform="translate(-260.332 -130.776)" fill="#020304"/>
      <path id="Pfad_456" data-name="Pfad 456" d="M263.61,179.345v2.245l6.733-2.245v-1.718l-.715-.387Z" transform="translate(-260.332 -130.751)" fill="#020304"/>
      <path id="Pfad_457" data-name="Pfad 457" d="M263.61,184.345v2.245l6.733-2.254v-1.718l-.715-.387Z" transform="translate(-260.332 -130.785)" fill="#020304"/>
      <path id="Pfad_458" data-name="Pfad 458" d="M267.106,175.87l-3.5,1.162h0v1.887l5.552-1.937Z" transform="translate(-260.332 -130.741)" fill="#020304"/>
      <path id="Pfad_459" data-name="Pfad 459" d="M267.106,185.85l-3.5,1.172h0v1.887l5.552-1.947Z" transform="translate(-260.332 -130.81)" fill="#020304"/>
      <path id="Pfad_460" data-name="Pfad 460" d="M263.61,189.335v2.245l6.733-2.245v-1.718l-.715-.387Z" transform="translate(-260.332 -130.819)" fill="#020304"/>
      <path id="Pfad_461" data-name="Pfad 461" d="M263.61,174.355V176.6l6.733-2.254v-1.718l-.715-.377Z" transform="translate(-260.332 -130.717)" fill="#020304"/>
      <path id="Pfad_462" data-name="Pfad 462" d="M267.106,165.88l-3.5,1.162h0v1.9l5.552-1.947Z" transform="translate(-260.332 -130.673)" fill="#020304"/>
      <path id="Pfad_463" data-name="Pfad 463" d="M263.61,164.365v2.245l6.733-2.245v-1.718l-.715-.387Z" transform="translate(-260.332 -130.648)" fill="#020304"/>
      <path id="Pfad_464" data-name="Pfad 464" d="M267.106,170.87l-3.5,1.172h0v1.887l5.552-1.947Z" transform="translate(-260.332 -130.707)" fill="#020304"/>
    </g>
  </g>
</svg>
