<?xml version="1.0" encoding="UTF-8"?><svg id="Ebene_2" xmlns="http://www.w3.org/2000/svg" viewBox="0 0 248.73 228.47"><defs><style>.cls-1{fill:none;}.cls-1,.cls-2{stroke:#000;stroke-miterlimit:10;}.cls-2{fill:#404040;stroke-width:3px;}.cls-3{fill:#333;}.cls-4{fill-rule:evenodd;}</style></defs><g id="Ebene_1-2"><g><g><polygon class="cls-2" points="175.26 48.24 73.47 48.24 1.5 90.02 1.5 149.1 73.47 190.87 175.26 190.87 247.23 149.1 247.23 90.02 175.26 48.24"/><g><rect class="cls-1" x="73.95" y="173.1" width="100.69" height="18.16"/><polyline class="cls-1" points="174.95 191.25 246.09 149.44 246.4 131.4 174.64 173.1"/><polyline class="cls-1" points="73.95 173.1 2.58 131.32 2.74 148.85 73.95 191.25"/></g></g><polygon class="cls-3" points="166.62 37.73 85.48 37.73 28.1 71.03 28.1 118.13 85.48 151.43 166.62 151.43 223.99 118.13 223.99 71.03 166.62 37.73"/><g><path class="cls-4" d="M104.54,161.48c-5.01,5.13-8.11,12.22-8.11,20.05s3.1,14.92,8.11,20.05c5.01,5.13,11.93,8.31,19.58,8.31s14.57-3.17,19.58-8.31c5.01-5.13,8.11-12.22,8.11-20.05s-3.1-14.92-8.11-20.05c-5.01-5.13-11.93-8.31-19.58-8.31s-14.57,3.17-19.58,8.31h0Zm-11.61,20.05c0-17.64,13.97-31.94,31.2-31.94s31.2,14.3,31.2,31.94-13.97,31.94-31.2,31.94-31.2-14.3-31.2-31.94h0Zm77.03,0c0,25.92-20.52,46.94-45.84,46.94s-45.84-21.01-45.84-46.94,20.52-46.93,45.84-46.93,45.84,21.01,45.84,46.93h0Zm-45.84-6.05c3.27,0,5.91,2.71,5.91,6.05s-2.65,6.05-5.91,6.05-5.91-2.71-5.91-6.05,2.65-6.05,5.91-6.05h0Zm-6.39-6.02c-3.22,2-.34,2.39-8.09-1.33-.95-.45-1.85-.93-2.43-1.74-.41-.57-.39-.73-.58-1.41-.1-.37-.15-.73-.26-1.06-.05-.14-.08-.25-.1-.34l.16-.16c3.01-3.08,6.78-5.38,11-6.58,3.22,2.66,2.82,3.4,2.46,11.57-.69,.34-1.29,.5-2.17,1.04h0Zm-17.86,5.78c2.72-1.23,3.3-1.18,5.96,.62,1.48,1,3.78,2.4,5.1,3.63l-.2,5.34c-6.08,3.89-6.68,5.88-10.52,4.23-.71-2.38-1.1-4.91-1.1-7.53,0-2.17,.26-4.27,.76-6.29h0Zm6.59,24.42c.37-1,1.23-2.5,3.3-3.66,7.26-4.03,4.66-3.16,10.19-.37,.62,8.25,.18,10.34-.57,11.05-4.99-.98-9.46-3.49-12.91-7.02h0Zm22.88-3.78c.58-.54,3.6-2.51,3.95-2.74,2.89,.99,7.49,2.97,8.66,6.12l.06,.17-.2,.2c-3.27,3.35-7.45,5.78-12.12,6.86l-.03-.03c-1.68-2.06-.33-10.59-.33-10.59h0Zm13.5-7.98c-6.37-4.3-5.28-2.1-5.13-9.35,3.96-1.59,5.72-5.73,10.51-3.93,.6,2.19,.92,4.51,.92,6.89,0,2.56-.37,5.03-1.05,7.37-2.08,.6-2.98,.54-5.25-.99h0Zm-11.32-17.57c-3.1-1.95-2.86-2.16-2.98-6.5-.14-5.1-.18-4.69,2.39-6.96,4.17,1.21,7.89,3.49,10.87,6.54l.38,.39c-.83,3.59-4.28,4.65-7.32,6.3-1.7,.92-1.78,1.22-3.35,.23Z"/><ellipse cx="124.29" cy="182.17" rx="7.86" ry="8.04"/></g><polygon points="28.09 146.67 21.94 142.99 22.03 91.35 28.1 93.2 28.09 146.67"/><g><polygon class="cls-2" points="169.13 1.5 80.94 1.5 18.58 37.7 18.58 88.89 80.94 125.08 169.13 125.08 231.49 88.89 231.49 37.7 169.13 1.5"/><g><rect class="cls-1" x="81.35" y="109.68" width="87.24" height="15.73"/><polyline class="cls-1" points="168.86 125.41 230.5 89.19 230.77 73.56 168.59 109.68"/><polyline class="cls-1" points="81.35 109.68 19.51 73.48 19.65 88.67 81.35 125.41"/></g></g><polygon points="221.7 146.25 227.84 142.57 227.75 90.93 221.68 92.78 221.7 146.25"/></g></g></svg>