<?xml version="1.0" encoding="UTF-8"?><svg id="Ebene_2" xmlns="http://www.w3.org/2000/svg" viewBox="0 0 305.82 219.39"><defs><style>.cls-1{fill:none;}.cls-1,.cls-2{stroke:#000;stroke-miterlimit:10;}.cls-2{fill:#404040;stroke-width:3px;}.cls-3{fill:#020304;}.cls-4{fill:#333;}</style></defs><g id="Ebene_1-2"><g><g><polygon class="cls-2" points="203.82 54.91 102.04 54.91 30.07 102.64 30.07 170.15 102.04 217.89 203.82 217.89 275.79 170.15 275.79 102.64 203.82 54.91"/><g><rect class="cls-1" x="102.51" y="197.57" width="100.69" height="20.75"/><polyline class="cls-1" points="203.51 218.32 274.66 170.55 274.97 149.93 203.2 197.57"/><polyline class="cls-1" points="102.51 197.57 31.14 149.84 31.31 169.86 102.51 218.32"/></g></g><polygon class="cls-4" points="195.18 42.9 114.04 42.9 56.67 80.95 56.67 134.77 114.04 172.82 195.18 172.82 252.56 134.77 252.56 80.95 195.18 42.9"/><polygon points="56.65 167.38 50.5 163.17 50.6 104.17 56.67 106.28 56.65 167.38"/><g><polygon class="cls-2" points="197.69 1.5 109.5 1.5 47.14 42.86 47.14 101.35 109.5 142.71 197.69 142.71 260.05 101.35 260.05 42.86 197.69 1.5"/><g><rect class="cls-1" x="109.91" y="125.11" width="87.24" height="17.98"/><polyline class="cls-1" points="197.42 143.09 259.07 101.69 259.34 83.83 197.16 125.11"/><polyline class="cls-1" points="109.91 125.11 48.08 83.75 48.22 101.1 109.91 143.09"/></g></g><g><polygon class="cls-3" points="20.02 173.37 17.1 172.21 17.1 175.24 20.02 173.37"/><polygon class="cls-3" points="20.02 148.29 17.1 147.14 17.1 150.17 20.02 148.29"/><polygon class="cls-3" points="20.02 160.83 17.1 159.67 17.1 162.71 20.02 160.83"/><polygon class="cls-3" points="17.1 121.54 24.31 124.4 24.31 121.57 17.91 118.9 17.1 119.42 17.1 121.54"/><polygon class="cls-3" points="20.02 154.56 17.1 153.4 17.1 156.44 20.02 154.56"/><polygon class="cls-3" points="20.02 142.03 17.1 140.87 17.1 143.9 20.02 142.03"/><polygon class="cls-3" points="20.59 117.18 18.41 118.58 24.31 121.04 24.31 118.65 24.3 118.65 20.59 117.18"/><polygon class="cls-3" points="17.1 118.83 20.02 116.95 17.1 115.79 17.1 118.83"/><polygon class="cls-3" points="20.02 123.22 17.1 122.06 17.1 125.09 20.02 123.22"/><polygon class="cls-3" points="20.02 129.49 17.1 128.33 17.1 131.36 20.02 129.49"/><polygon class="cls-3" points="20.02 135.76 17.1 134.6 17.1 137.63 20.02 135.76"/><polygon class="cls-3" points="20.02 167.1 17.1 165.94 17.1 168.98 20.02 167.1"/><polygon class="cls-3" points="24.31 187.61 24.3 187.61 20.59 186.14 18.41 187.54 24.31 190 24.31 187.61"/><polygon class="cls-3" points="24.31 190.52 17.91 187.86 17.1 188.38 17.1 191.08 24.31 191.08 24.31 190.52"/><polygon class="cls-3" points="17.1 109 24.31 111.87 24.31 109.03 17.91 106.37 17.1 106.89 17.1 109"/><polygon class="cls-3" points="19.95 104.46 17.1 104.46 17.1 106.29 19.95 104.46"/><polygon class="cls-3" points="24.31 105.6 24.31 104.46 24.31 104.46 21.43 104.46 24.31 105.6"/><polygon class="cls-3" points="17.1 184.75 17.1 187.78 20.02 185.91 17.1 184.75"/><polygon class="cls-3" points="24.31 181.34 24.3 181.34 20.59 179.87 18.41 181.27 24.31 183.73 24.31 181.34"/><polygon class="cls-3" points="20.59 110.91 18.41 112.32 24.31 114.77 24.31 112.38 24.3 112.38 20.59 110.91"/><polygon class="cls-3" points="17.1 112.56 20.02 110.68 17.1 109.52 17.1 112.56"/><polygon class="cls-3" points="20.02 179.64 17.1 178.48 17.1 181.51 20.02 179.64"/><polygon class="cls-3" points="17.1 165.42 24.31 168.28 24.31 165.45 17.91 162.78 17.1 163.3 17.1 165.42"/><polygon class="cls-3" points="24.31 177.99 17.91 175.32 17.1 175.84 17.1 177.96 24.31 180.82 24.31 177.99"/><polygon class="cls-3" points="24.3 175.07 20.59 173.6 18.41 175 24.31 177.46 24.31 175.07 24.3 175.07"/><polygon class="cls-3" points="17.1 171.69 24.31 174.55 24.31 171.72 17.91 169.05 17.1 169.57 17.1 171.69"/><polygon class="cls-3" points="24.3 162.54 20.59 161.06 18.41 162.46 24.31 164.92 24.31 162.54 24.3 162.54"/><rect class="cls-3" x="14.42" y="104.46" width="2.1" height="86.62"/><polygon class="cls-3" points="17.1 159.15 24.31 162.02 24.31 159.18 17.91 156.52 17.1 157.04 17.1 159.15"/><polygon class="cls-3" points="24.31 108.5 24.31 106.12 24.3 106.12 20.59 104.64 18.41 106.05 24.31 108.5"/><path class="cls-3" d="M2.9,104.46H.89l-.89,.31v2.94l1.75-.61s.08-.02,.12-.02c.11,0,.22,.05,.27,.14,.06,.12,0,.26-.15,.31l-1.98,.7v2.31l1.75-.61s.08-.02,.12-.02c.11,0,.22,.05,.27,.14,.06,.12,0,.26-.15,.31l-1.98,.7v2.94l1.75-.61s.08-.02,.12-.02c.11,0,.22,.05,.27,.14,.06,.12,0,.26-.15,.31l-1.98,.7v2.31l1.75-.61s.08-.02,.12-.02c.11,0,.22,.05,.27,.14,.06,.12,0,.26-.15,.31l-1.98,.7v2.94l1.75-.61s.08-.02,.12-.02c.11,0,.22,.05,.27,.14,.06,.12,0,.26-.15,.31l-1.98,.7v2.31l1.75-.61s.08-.02,.12-.02c.11,0,.22,.05,.27,.14,.06,.12,0,.26-.15,.31l-1.98,.7v2.94l1.75-.61s.08-.02,.12-.02c.11,0,.22,.05,.27,.14,.06,.12,0,.26-.15,.31l-1.98,.7v2.31l1.75-.61s.08-.02,.12-.02c.11,0,.22,.05,.27,.14,.06,.12,0,.25-.15,.31l-1.98,.7v2.94l1.75-.61s.08-.02,.12-.02c.11,0,.22,.05,.27,.14,.06,.12,0,.26-.15,.31l-1.98,.7v2.31l1.75-.61s.08-.02,.12-.02c.11,0,.22,.05,.27,.14,.06,.12,0,.26-.15,.31l-1.98,.7v2.94l1.75-.61s.08-.02,.12-.02c.11,0,.22,.05,.27,.14,.06,.12,0,.26-.15,.31l-1.98,.7v2.31l1.75-.61s.08-.02,.12-.02c.11,0,.22,.05,.27,.14,.06,.12,0,.26-.15,.31l-1.98,.7v2.94l1.75-.61s.08-.02,.12-.02c.11,0,.22,.05,.27,.14,.06,.12,0,.26-.15,.31l-1.98,.7v2.31l1.75-.61s.08-.02,.12-.02c.11,0,.22,.05,.27,.14,.06,.12,0,.26-.15,.31l-1.98,.7v2.94l1.75-.61s.08-.02,.12-.02c.11,0,.22,.05,.27,.14,.06,.12,0,.26-.15,.31l-1.98,.7v2.31l1.75-.61s.08-.02,.12-.02c.11,0,.22,.05,.27,.14,.06,.12,0,.26-.15,.31l-1.98,.7v2.94l1.75-.61s.08-.02,.12-.02c.11,0,.22,.05,.27,.14,.06,.12,0,.26-.15,.31l-1.98,.7v2.31l1.75-.61s.08-.02,.12-.02c.11,0,.22,.05,.27,.14,.06,.12,0,.25-.15,.31l-1.98,.7v2.94l1.75-.61s.08-.02,.12-.02c.11,0,.22,.05,.27,.14,.06,.12,0,.26-.15,.31l-1.98,.7v2.31l1.75-.61s.08-.02,.12-.02c.11,0,.22,.05,.27,.14,.06,.12,0,.26-.15,.31l-1.98,.7v2.94l1.75-.61s.08-.02,.12-.02c.11,0,.22,.05,.27,.14,.06,.12,0,.25-.15,.31l-1.98,.7v2.31l1.75-.61s.08-.02,.12-.02c.11,0,.22,.05,.27,.14,.06,.12,0,.26-.15,.31l-1.98,.7v2.94l1.75-.61s.08-.02,.12-.02c.11,0,.22,.05,.27,.14,.06,.12,0,.26-.15,.31l-1.98,.7v2.31l1.75-.61s.08-.02,.12-.02c.11,0,.22,.05,.27,.14,.06,.12,0,.26-.15,.31l-1.98,.7v2.94l1.75-.61s.08-.02,.12-.02c.11,0,.22,.05,.27,.14,.06,.12,0,.26-.15,.31l-1.98,.7v2.31l1.75-.61s.08-.02,.12-.02c.11,0,.22,.05,.27,.14,.06,.12,0,.26-.15,.31l-1.98,.7v2.94l1.75-.61s.08-.02,.12-.02c.11,0,.22,.05,.27,.14,.06,.12,0,.26-.15,.31l-1.98,.7v1.37H2.9V104.46Z"/><polygon class="cls-3" points="17.1 115.27 24.31 118.13 24.31 115.3 17.91 112.63 17.1 113.16 17.1 115.27"/><polygon class="cls-3" points="24.31 184.25 17.91 181.59 17.1 182.11 17.1 184.23 24.31 187.09 24.31 184.25"/><polygon class="cls-3" points="24.3 156.27 20.59 154.79 18.41 156.2 24.31 158.65 24.31 156.27 24.3 156.27"/><polygon class="cls-3" points="17.1 140.35 24.31 143.21 24.31 140.37 17.91 137.71 17.1 138.23 17.1 140.35"/><polygon class="cls-3" points="24.3 137.46 20.59 135.99 18.41 137.39 24.31 139.85 24.31 137.46 24.3 137.46"/><polygon class="cls-3" points="17.1 134.08 24.31 136.94 24.31 134.1 17.91 131.44 17.1 131.96 17.1 134.08"/><polygon class="cls-3" points="24.3 124.92 20.59 123.45 18.41 124.85 24.31 127.31 24.31 124.92 24.3 124.92"/><polygon class="cls-3" points="24.3 131.19 20.59 129.72 18.41 131.12 24.31 133.58 24.31 131.19 24.3 131.19"/><polygon class="cls-3" points="17.1 127.81 24.31 130.67 24.31 127.84 17.91 125.17 17.1 125.69 17.1 127.81"/><polygon class="cls-3" points="17.1 152.88 24.31 155.75 24.31 152.91 17.91 150.25 17.1 150.77 17.1 152.88"/><polygon class="cls-3" points="24.3 150 20.59 148.52 18.41 149.93 24.31 152.39 24.31 150 24.3 150"/><polygon class="cls-3" points="17.1 146.62 24.31 149.48 24.31 146.64 17.91 143.98 17.1 144.5 17.1 146.62"/><polygon class="cls-3" points="24.3 143.73 20.59 142.25 18.41 143.66 24.31 146.12 24.31 143.73 24.3 143.73"/><polygon class="cls-3" points="24.3 168.8 20.59 167.33 18.41 168.74 24.31 171.19 24.31 168.8 24.3 168.8"/><polygon class="cls-3" points="7.77 116.95 10.63 118.79 10.63 115.81 7.77 116.95"/><polygon class="cls-3" points="7.77 135.76 10.63 137.6 10.63 134.62 7.77 135.76"/><polygon class="cls-3" points="7.77 148.29 10.63 150.14 10.63 147.16 7.77 148.29"/><polygon class="cls-3" points="7.77 129.49 10.63 131.33 10.63 128.35 7.77 129.49"/><polygon class="cls-3" points="7.77 123.22 10.63 125.06 10.63 122.08 7.77 123.22"/><polygon class="cls-3" points="7.77 142.03 10.63 143.87 10.63 140.89 7.77 142.03"/><rect class="cls-3" x="11.22" y="104.46" width="2.04" height="86.62"/><polygon class="cls-3" points="7.19 179.87 3.48 181.34 3.48 181.34 3.48 183.73 9.38 181.27 7.19 179.87"/><polygon class="cls-3" points="7.77 173.37 10.63 175.21 10.63 172.23 7.77 173.37"/><polygon class="cls-3" points="7.77 167.1 10.63 168.94 10.63 165.96 7.77 167.1"/><polygon class="cls-3" points="7.77 160.83 10.63 162.67 10.63 159.69 7.77 160.83"/><polygon class="cls-3" points="7.77 154.56 10.63 156.41 10.63 153.43 7.77 154.56"/><polygon class="cls-3" points="10.63 188.35 9.87 187.86 3.48 190.52 3.48 191.08 10.63 191.08 10.63 188.35"/><polygon class="cls-3" points="3.48 105.6 6.35 104.46 3.48 104.46 3.48 104.46 3.48 105.6"/><polygon class="cls-3" points="10.63 106.26 10.63 104.46 7.83 104.46 10.63 106.26"/><polygon class="cls-3" points="3.48 106.12 3.48 106.12 3.48 108.5 9.38 106.05 7.19 104.64 3.48 106.12"/><path class="cls-3" d="M25.8,189.01c-.15-.05-.21-.19-.15-.31,.05-.09,.15-.14,.27-.14,.04,0,.08,0,.12,.02l1.63,.57v-2.94l-1.86-.66c-.15-.05-.21-.19-.15-.31,.05-.09,.15-.14,.27-.14,.04,0,.08,0,.12,.02l1.63,.57v-2.31l-1.86-.66c-.15-.05-.21-.19-.15-.31,.05-.09,.15-.14,.27-.14,.04,0,.08,0,.12,.02l1.63,.57v-2.94l-1.86-.66c-.15-.05-.21-.19-.15-.31,.05-.09,.15-.14,.27-.14,.04,0,.08,0,.12,.02l1.63,.57v-2.31l-1.86-.66c-.15-.05-.21-.19-.15-.31,.05-.09,.15-.14,.27-.14,.04,0,.08,0,.12,.02l1.63,.57v-2.94l-1.86-.66c-.15-.05-.21-.19-.15-.31,.05-.09,.15-.14,.27-.14,.04,0,.08,0,.12,.02l1.63,.57v-2.31l-1.86-.66c-.15-.05-.21-.19-.15-.31,.05-.09,.15-.14,.27-.14,.04,0,.08,0,.12,.02l1.63,.57v-2.94l-1.86-.66c-.15-.05-.21-.19-.15-.31,.05-.09,.15-.14,.27-.14,.04,0,.08,0,.12,.02l1.63,.57v-2.31l-1.86-.66c-.15-.05-.21-.19-.15-.31,.05-.09,.15-.14,.27-.14,.04,0,.08,0,.12,.02l1.63,.57v-2.94l-1.86-.66c-.15-.05-.21-.19-.15-.31,.05-.09,.15-.14,.27-.14,.04,0,.08,0,.12,.02l1.63,.57v-2.31l-1.86-.66c-.15-.05-.21-.19-.15-.31,.05-.09,.15-.14,.27-.14,.04,0,.08,0,.12,.02l1.63,.57v-2.94l-1.86-.66c-.15-.05-.21-.19-.15-.31,.05-.09,.15-.14,.27-.14,.04,0,.08,0,.12,.02l1.63,.57v-2.31l-1.86-.66c-.15-.05-.21-.19-.15-.31,.05-.09,.15-.14,.27-.14,.04,0,.08,0,.12,.02l1.63,.57v-2.94l-1.86-.66c-.15-.05-.21-.19-.15-.31,.05-.09,.15-.14,.27-.14,.04,0,.08,0,.12,.02l1.63,.57v-2.31l-1.86-.66c-.15-.05-.21-.19-.15-.31,.05-.09,.15-.14,.27-.14,.04,0,.08,0,.12,.02l1.63,.57v-2.94l-1.86-.66c-.15-.05-.21-.19-.15-.31,.05-.09,.15-.14,.27-.14,.04,0,.08,0,.12,.02l1.63,.57v-2.31l-1.86-.66c-.15-.05-.21-.19-.15-.31,.05-.09,.15-.14,.27-.14,.04,0,.08,0,.12,.02l1.63,.57v-2.94l-1.86-.66c-.15-.05-.21-.19-.15-.31,.05-.09,.15-.14,.27-.14,.04,0,.08,0,.12,.02l1.63,.57v-2.31l-1.86-.66c-.15-.05-.21-.19-.15-.31,.05-.09,.15-.14,.27-.14,.04,0,.08,0,.12,.02l1.63,.57v-2.94l-1.86-.66c-.15-.05-.21-.19-.15-.31,.05-.09,.15-.14,.27-.14,.04,0,.08,0,.12,.02l1.63,.57v-2.31l-1.86-.66c-.15-.05-.21-.19-.15-.31,.05-.09,.15-.14,.27-.14,.04,0,.08,0,.12,.02l1.63,.57v-2.94l-1.86-.66c-.15-.05-.21-.19-.15-.31,.05-.09,.15-.14,.27-.14,.04,0,.08,0,.12,.02l1.63,.57v-2.31l-1.86-.66c-.15-.05-.21-.19-.15-.31,.05-.09,.15-.14,.27-.14,.04,0,.08,0,.12,.02l1.63,.57v-2.94l-1.86-.66c-.15-.05-.21-.19-.15-.31,.05-.09,.15-.14,.27-.14,.04,0,.08,0,.12,.02l1.63,.57v-2.31l-1.86-.66c-.15-.05-.21-.19-.15-.31,.05-.09,.15-.14,.27-.14,.04,0,.08,0,.12,.02l1.63,.57v-2.94l-1.86-.66c-.15-.05-.21-.19-.15-.31,.05-.09,.15-.14,.27-.14,.04,0,.08,0,.12,.02l1.63,.57v-2.31l-1.86-.66c-.15-.05-.21-.19-.15-.31,.05-.09,.15-.14,.27-.14,.04,0,.08,0,.12,.02l1.63,.57v-2.94l-.78-.27h-2v86.62h2.78v-1.41l-1.86-.66Z"/><polygon class="cls-3" points="3.48 112.38 3.48 114.77 9.38 112.32 7.19 110.91 3.48 112.38 3.48 112.38"/><polygon class="cls-3" points="10.63 112.52 10.63 109.54 7.77 110.68 10.63 112.52"/><polygon class="cls-3" points="3.48 109.03 3.48 111.87 10.63 109.02 10.63 106.85 9.87 106.37 3.48 109.03"/><polygon class="cls-3" points="7.19 186.14 3.48 187.61 3.48 187.61 3.48 190 9.38 187.54 7.19 186.14"/><polygon class="cls-3" points="10.63 184.77 7.77 185.91 10.63 187.75 10.63 184.77"/><polygon class="cls-3" points="10.63 178.5 7.77 179.64 10.63 181.48 10.63 178.5"/><polygon class="cls-3" points="7.19 129.72 3.48 131.19 3.48 131.19 3.48 133.58 9.38 131.12 7.19 129.72"/><polygon class="cls-3" points="3.48 127.84 3.48 130.67 10.63 127.83 10.63 125.66 9.87 125.17 3.48 127.84"/><polygon class="cls-3" points="3.48 134.1 3.48 136.94 10.63 134.1 10.63 131.93 9.87 131.44 3.48 134.1"/><polygon class="cls-3" points="7.19 135.99 3.48 137.46 3.48 137.46 3.48 139.85 9.38 137.39 7.19 135.99"/><polygon class="cls-3" points="3.48 140.37 3.48 143.21 10.63 140.37 10.63 138.2 9.87 137.71 3.48 140.37"/><polygon class="cls-3" points="7.19 142.25 3.48 143.73 3.48 143.73 3.48 146.12 9.38 143.66 7.19 142.25"/><polygon class="cls-3" points="3.48 118.13 10.63 115.29 10.63 113.12 9.87 112.63 3.48 115.3 3.48 118.13"/><polygon class="cls-3" points="7.19 123.45 3.48 124.92 3.48 124.92 3.48 127.31 9.38 124.85 7.19 123.45"/><polygon class="cls-3" points="10.63 182.08 9.87 181.59 3.48 184.25 3.48 187.09 10.63 184.25 10.63 182.08"/><polygon class="cls-3" points="3.48 121.57 3.48 124.4 10.63 121.56 10.63 119.39 9.87 118.9 3.48 121.57"/><polygon class="cls-3" points="7.19 117.18 3.48 118.65 3.48 118.65 3.48 121.04 9.38 118.58 7.19 117.18"/><polygon class="cls-3" points="3.48 152.91 3.48 155.75 10.63 152.9 10.63 150.73 9.87 150.25 3.48 152.91"/><polygon class="cls-3" points="7.19 167.33 3.48 168.8 3.48 168.8 3.48 171.19 9.38 168.74 7.19 167.33"/><polygon class="cls-3" points="3.48 165.45 3.48 168.28 10.63 165.44 10.63 163.27 9.87 162.78 3.48 165.45"/><polygon class="cls-3" points="3.48 171.72 3.48 174.55 10.63 171.71 10.63 169.54 9.87 169.05 3.48 171.72"/><polygon class="cls-3" points="7.19 161.06 3.48 162.54 3.48 162.54 3.48 164.92 9.38 162.46 7.19 161.06"/><polygon class="cls-3" points="7.19 173.6 3.48 175.07 3.48 175.07 3.48 177.46 9.38 175 7.19 173.6"/><polygon class="cls-3" points="3.48 177.99 3.48 180.82 10.63 177.98 10.63 175.81 9.87 175.32 3.48 177.99"/><polygon class="cls-3" points="3.48 159.18 3.48 162.02 10.63 159.17 10.63 157 9.87 156.52 3.48 159.18"/><polygon class="cls-3" points="7.19 148.52 3.48 150 3.48 150 3.48 152.39 9.38 149.93 7.19 148.52"/><polygon class="cls-3" points="3.48 146.64 3.48 149.48 10.63 146.64 10.63 144.47 9.87 143.98 3.48 146.64"/><polygon class="cls-3" points="7.19 154.79 3.48 156.27 3.48 156.27 3.48 158.65 9.38 156.2 7.19 154.79"/></g><g><polygon class="cls-3" points="298.17 173.98 295.25 172.83 295.25 175.86 298.17 173.98"/><polygon class="cls-3" points="298.17 148.91 295.25 147.75 295.25 150.78 298.17 148.91"/><polygon class="cls-3" points="298.17 161.45 295.25 160.29 295.25 163.32 298.17 161.45"/><polygon class="cls-3" points="295.25 122.16 302.46 125.02 302.46 122.18 296.06 119.52 295.25 120.04 295.25 122.16"/><polygon class="cls-3" points="298.17 155.18 295.25 154.02 295.25 157.05 298.17 155.18"/><polygon class="cls-3" points="298.17 142.64 295.25 141.48 295.25 144.52 298.17 142.64"/><polygon class="cls-3" points="298.74 117.79 296.56 119.2 302.46 121.66 302.46 119.27 302.45 119.27 298.74 117.79"/><polygon class="cls-3" points="295.25 119.44 298.17 117.57 295.25 116.41 295.25 119.44"/><polygon class="cls-3" points="298.17 123.84 295.25 122.68 295.25 125.71 298.17 123.84"/><polygon class="cls-3" points="298.17 130.1 295.25 128.95 295.25 131.98 298.17 130.1"/><polygon class="cls-3" points="298.17 136.37 295.25 135.21 295.25 138.25 298.17 136.37"/><polygon class="cls-3" points="298.17 167.72 295.25 166.56 295.25 169.59 298.17 167.72"/><polygon class="cls-3" points="302.46 188.23 302.45 188.23 298.74 186.75 296.56 188.16 302.46 190.61 302.46 188.23"/><polygon class="cls-3" points="302.46 191.14 296.06 188.48 295.25 188.99 295.25 191.7 302.46 191.7 302.46 191.14"/><polygon class="cls-3" points="295.25 109.62 302.46 112.48 302.46 109.64 296.06 106.98 295.25 107.5 295.25 109.62"/><polygon class="cls-3" points="298.1 105.07 295.25 105.07 295.25 106.9 298.1 105.07"/><polygon class="cls-3" points="302.46 106.21 302.46 105.07 302.46 105.07 299.59 105.07 302.46 106.21"/><polygon class="cls-3" points="295.25 185.36 295.25 188.4 298.17 186.52 295.25 185.36"/><polygon class="cls-3" points="302.46 181.96 302.45 181.96 298.74 180.48 296.56 181.89 302.46 184.34 302.46 181.96"/><polygon class="cls-3" points="298.74 111.53 296.56 112.93 302.46 115.39 302.46 113 302.45 113 298.74 111.53"/><polygon class="cls-3" points="295.25 113.17 298.17 111.3 295.25 110.14 295.25 113.17"/><polygon class="cls-3" points="298.17 180.25 295.25 179.09 295.25 182.13 298.17 180.25"/><polygon class="cls-3" points="295.25 166.04 302.46 168.9 302.46 166.06 296.06 163.4 295.25 163.92 295.25 166.04"/><polygon class="cls-3" points="302.46 178.6 296.06 175.94 295.25 176.46 295.25 178.58 302.46 181.44 302.46 178.6"/><polygon class="cls-3" points="302.45 175.69 298.74 174.21 296.56 175.62 302.46 178.07 302.46 175.69 302.45 175.69"/><polygon class="cls-3" points="295.25 172.31 302.46 175.17 302.46 172.33 296.06 169.67 295.25 170.19 295.25 172.31"/><polygon class="cls-3" points="302.45 163.15 298.74 161.68 296.56 163.08 302.46 165.54 302.46 163.15 302.45 163.15"/><rect class="cls-3" x="292.57" y="105.07" width="2.1" height="86.62"/><polygon class="cls-3" points="295.25 159.77 302.46 162.63 302.46 159.79 296.06 157.13 295.25 157.65 295.25 159.77"/><polygon class="cls-3" points="302.46 109.12 302.46 106.73 302.45 106.73 298.74 105.26 296.56 106.66 302.46 109.12"/><path class="cls-3" d="M281.05,105.07h-2l-.89,.31v2.94l1.75-.61s.08-.02,.12-.02c.11,0,.22,.05,.27,.14,.06,.12,0,.26-.15,.31l-1.98,.7v2.31l1.75-.61s.08-.02,.12-.02c.11,0,.22,.05,.27,.14,.06,.12,0,.26-.15,.31l-1.98,.7v2.94l1.75-.61s.08-.02,.12-.02c.11,0,.22,.05,.27,.14,.06,.12,0,.26-.15,.31l-1.98,.7v2.31l1.75-.61s.08-.02,.12-.02c.11,0,.22,.05,.27,.14,.06,.12,0,.26-.15,.31l-1.98,.7v2.94l1.75-.61s.08-.02,.12-.02c.11,0,.22,.05,.27,.14,.06,.12,0,.26-.15,.31l-1.98,.7v2.31l1.75-.61s.08-.02,.12-.02c.11,0,.22,.05,.27,.14,.06,.12,0,.26-.15,.31l-1.98,.7v2.94l1.75-.61s.08-.02,.12-.02c.11,0,.22,.05,.27,.14,.06,.12,0,.26-.15,.31l-1.98,.7v2.31l1.75-.61s.08-.02,.12-.02c.11,0,.22,.05,.27,.14,.06,.12,0,.25-.15,.31l-1.98,.7v2.94l1.75-.61s.08-.02,.12-.02c.11,0,.22,.05,.27,.14,.06,.12,0,.26-.15,.31l-1.98,.7v2.31l1.75-.61s.08-.02,.12-.02c.11,0,.22,.05,.27,.14,.06,.12,0,.26-.15,.31l-1.98,.7v2.94l1.75-.61s.08-.02,.12-.02c.11,0,.22,.05,.27,.14,.06,.12,0,.26-.15,.31l-1.98,.7v2.31l1.75-.61s.08-.02,.12-.02c.11,0,.22,.05,.27,.14,.06,.12,0,.26-.15,.31l-1.98,.7v2.94l1.75-.61s.08-.02,.12-.02c.11,0,.22,.05,.27,.14,.06,.12,0,.26-.15,.31l-1.98,.7v2.31l1.75-.61s.08-.02,.12-.02c.11,0,.22,.05,.27,.14,.06,.12,0,.26-.15,.31l-1.98,.7v2.94l1.75-.61s.08-.02,.12-.02c.11,0,.22,.05,.27,.14,.06,.12,0,.26-.15,.31l-1.98,.7v2.31l1.75-.61s.08-.02,.12-.02c.11,0,.22,.05,.27,.14,.06,.12,0,.26-.15,.31l-1.98,.7v2.94l1.75-.61s.08-.02,.12-.02c.11,0,.22,.05,.27,.14,.06,.12,0,.26-.15,.31l-1.98,.7v2.31l1.75-.61s.08-.02,.12-.02c.11,0,.22,.05,.27,.14,.06,.12,0,.25-.15,.31l-1.98,.7v2.94l1.75-.61s.08-.02,.12-.02c.11,0,.22,.05,.27,.14,.06,.12,0,.26-.15,.31l-1.98,.7v2.31l1.75-.61s.08-.02,.12-.02c.11,0,.22,.05,.27,.14,.06,.12,0,.26-.15,.31l-1.98,.7v2.94l1.75-.61s.08-.02,.12-.02c.11,0,.22,.05,.27,.14,.06,.12,0,.25-.15,.31l-1.98,.7v2.31l1.75-.61s.08-.02,.12-.02c.11,0,.22,.05,.27,.14,.06,.12,0,.26-.15,.31l-1.98,.7v2.94l1.75-.61s.08-.02,.12-.02c.11,0,.22,.05,.27,.14,.06,.12,0,.26-.15,.31l-1.98,.7v2.31l1.75-.61s.08-.02,.12-.02c.11,0,.22,.05,.27,.14,.06,.12,0,.26-.15,.31l-1.98,.7v2.94l1.75-.61s.08-.02,.12-.02c.11,0,.22,.05,.27,.14,.06,.12,0,.26-.15,.31l-1.98,.7v2.31l1.75-.61s.08-.02,.12-.02c.11,0,.22,.05,.27,.14,.06,.12,0,.26-.15,.31l-1.98,.7v2.94l1.75-.61s.08-.02,.12-.02c.11,0,.22,.05,.27,.14,.06,.12,0,.26-.15,.31l-1.98,.7v1.37h2.9V105.07Z"/><polygon class="cls-3" points="295.25 115.89 302.46 118.75 302.46 115.91 296.06 113.25 295.25 113.77 295.25 115.89"/><polygon class="cls-3" points="302.46 184.87 296.06 182.21 295.25 182.73 295.25 184.84 302.46 187.71 302.46 184.87"/><polygon class="cls-3" points="302.45 156.88 298.74 155.41 296.56 156.81 302.46 159.27 302.46 156.88 302.45 156.88"/><polygon class="cls-3" points="295.25 140.96 302.46 143.82 302.46 140.99 296.06 138.32 295.25 138.85 295.25 140.96"/><polygon class="cls-3" points="302.45 138.08 298.74 136.6 296.56 138.01 302.46 140.46 302.46 138.08 302.45 138.08"/><polygon class="cls-3" points="295.25 134.69 302.46 137.56 302.46 134.72 296.06 132.06 295.25 132.58 295.25 134.69"/><polygon class="cls-3" points="302.45 125.54 298.74 124.06 296.56 125.47 302.46 127.92 302.46 125.54 302.45 125.54"/><polygon class="cls-3" points="302.45 131.81 298.74 130.33 296.56 131.74 302.46 134.19 302.46 131.81 302.45 131.81"/><polygon class="cls-3" points="295.25 128.42 302.46 131.29 302.46 128.45 296.06 125.79 295.25 126.31 295.25 128.42"/><polygon class="cls-3" points="295.25 153.5 302.46 156.36 302.46 153.53 296.06 150.86 295.25 151.38 295.25 153.5"/><polygon class="cls-3" points="302.45 150.61 298.74 149.14 296.56 150.54 302.46 153 302.46 150.61 302.45 150.61"/><polygon class="cls-3" points="295.25 147.23 302.46 150.09 302.46 147.26 296.06 144.59 295.25 145.11 295.25 147.23"/><polygon class="cls-3" points="302.45 144.34 298.74 142.87 296.56 144.27 302.46 146.73 302.46 144.34 302.45 144.34"/><polygon class="cls-3" points="302.45 169.42 298.74 167.94 296.56 169.35 302.46 171.81 302.46 169.42 302.45 169.42"/><polygon class="cls-3" points="285.92 117.57 288.78 119.41 288.78 116.43 285.92 117.57"/><polygon class="cls-3" points="285.92 136.37 288.78 138.21 288.78 135.23 285.92 136.37"/><polygon class="cls-3" points="285.92 148.91 288.78 150.75 288.78 147.77 285.92 148.91"/><polygon class="cls-3" points="285.92 130.1 288.78 131.95 288.78 128.97 285.92 130.1"/><polygon class="cls-3" points="285.92 123.84 288.78 125.68 288.78 122.7 285.92 123.84"/><polygon class="cls-3" points="285.92 142.64 288.78 144.48 288.78 141.5 285.92 142.64"/><rect class="cls-3" x="289.37" y="105.07" width="2.04" height="86.62"/><polygon class="cls-3" points="285.34 180.48 281.63 181.96 281.63 181.96 281.63 184.34 287.53 181.89 285.34 180.48"/><polygon class="cls-3" points="285.92 173.98 288.78 175.83 288.78 172.85 285.92 173.98"/><polygon class="cls-3" points="285.92 167.72 288.78 169.56 288.78 166.58 285.92 167.72"/><polygon class="cls-3" points="285.92 161.45 288.78 163.29 288.78 160.31 285.92 161.45"/><polygon class="cls-3" points="285.92 155.18 288.78 157.02 288.78 154.04 285.92 155.18"/><polygon class="cls-3" points="288.78 188.96 288.02 188.48 281.63 191.14 281.63 191.7 288.78 191.7 288.78 188.96"/><polygon class="cls-3" points="281.63 106.21 284.5 105.07 281.63 105.07 281.63 105.07 281.63 106.21"/><polygon class="cls-3" points="288.78 106.87 288.78 105.07 285.98 105.07 288.78 106.87"/><polygon class="cls-3" points="281.63 106.73 281.63 106.73 281.63 109.12 287.53 106.66 285.34 105.26 281.63 106.73"/><path class="cls-3" d="M303.95,189.63c-.15-.05-.21-.19-.15-.31,.05-.09,.15-.14,.27-.14,.04,0,.08,0,.12,.02l1.63,.57v-2.94l-1.86-.66c-.15-.05-.21-.19-.15-.31,.05-.09,.15-.14,.27-.14,.04,0,.08,0,.12,.02l1.63,.57v-2.31l-1.86-.66c-.15-.05-.21-.19-.15-.31,.05-.09,.15-.14,.27-.14,.04,0,.08,0,.12,.02l1.63,.57v-2.94l-1.86-.66c-.15-.05-.21-.19-.15-.31,.05-.09,.15-.14,.27-.14,.04,0,.08,0,.12,.02l1.63,.57v-2.31l-1.86-.66c-.15-.05-.21-.19-.15-.31,.05-.09,.15-.14,.27-.14,.04,0,.08,0,.12,.02l1.63,.57v-2.94l-1.86-.66c-.15-.05-.21-.19-.15-.31,.05-.09,.15-.14,.27-.14,.04,0,.08,0,.12,.02l1.63,.57v-2.31l-1.86-.66c-.15-.05-.21-.19-.15-.31,.05-.09,.15-.14,.27-.14,.04,0,.08,0,.12,.02l1.63,.57v-2.94l-1.86-.66c-.15-.05-.21-.19-.15-.31,.05-.09,.15-.14,.27-.14,.04,0,.08,0,.12,.02l1.63,.57v-2.31l-1.86-.66c-.15-.05-.21-.19-.15-.31,.05-.09,.15-.14,.27-.14,.04,0,.08,0,.12,.02l1.63,.57v-2.94l-1.86-.66c-.15-.05-.21-.19-.15-.31,.05-.09,.15-.14,.27-.14,.04,0,.08,0,.12,.02l1.63,.57v-2.31l-1.86-.66c-.15-.05-.21-.19-.15-.31,.05-.09,.15-.14,.27-.14,.04,0,.08,0,.12,.02l1.63,.57v-2.94l-1.86-.66c-.15-.05-.21-.19-.15-.31,.05-.09,.15-.14,.27-.14,.04,0,.08,0,.12,.02l1.63,.57v-2.31l-1.86-.66c-.15-.05-.21-.19-.15-.31,.05-.09,.15-.14,.27-.14,.04,0,.08,0,.12,.02l1.63,.57v-2.94l-1.86-.66c-.15-.05-.21-.19-.15-.31,.05-.09,.15-.14,.27-.14,.04,0,.08,0,.12,.02l1.63,.57v-2.31l-1.86-.66c-.15-.05-.21-.19-.15-.31,.05-.09,.15-.14,.27-.14,.04,0,.08,0,.12,.02l1.63,.57v-2.94l-1.86-.66c-.15-.05-.21-.19-.15-.31,.05-.09,.15-.14,.27-.14,.04,0,.08,0,.12,.02l1.63,.57v-2.31l-1.86-.66c-.15-.05-.21-.19-.15-.31,.05-.09,.15-.14,.27-.14,.04,0,.08,0,.12,.02l1.63,.57v-2.94l-1.86-.66c-.15-.05-.21-.19-.15-.31,.05-.09,.15-.14,.27-.14,.04,0,.08,0,.12,.02l1.63,.57v-2.31l-1.86-.66c-.15-.05-.21-.19-.15-.31,.05-.09,.15-.14,.27-.14,.04,0,.08,0,.12,.02l1.63,.57v-2.94l-1.86-.66c-.15-.05-.21-.19-.15-.31,.05-.09,.15-.14,.27-.14,.04,0,.08,0,.12,.02l1.63,.57v-2.31l-1.86-.66c-.15-.05-.21-.19-.15-.31,.05-.09,.15-.14,.27-.14,.04,0,.08,0,.12,.02l1.63,.57v-2.94l-1.86-.66c-.15-.05-.21-.19-.15-.31,.05-.09,.15-.14,.27-.14,.04,0,.08,0,.12,.02l1.63,.57v-2.31l-1.86-.66c-.15-.05-.21-.19-.15-.31,.05-.09,.15-.14,.27-.14,.04,0,.08,0,.12,.02l1.63,.57v-2.94l-1.86-.66c-.15-.05-.21-.19-.15-.31,.05-.09,.15-.14,.27-.14,.04,0,.08,0,.12,.02l1.63,.57v-2.31l-1.86-.66c-.15-.05-.21-.19-.15-.31,.05-.09,.15-.14,.27-.14,.04,0,.08,0,.12,.02l1.63,.57v-2.94l-1.86-.66c-.15-.05-.21-.19-.15-.31,.05-.09,.15-.14,.27-.14,.04,0,.08,0,.12,.02l1.63,.57v-2.31l-1.86-.66c-.15-.05-.21-.19-.15-.31,.05-.09,.15-.14,.27-.14,.04,0,.08,0,.12,.02l1.63,.57v-2.94l-.78-.27h-2v86.62h2.78v-1.41l-1.86-.66Z"/><polygon class="cls-3" points="281.63 113 281.63 115.39 287.53 112.93 285.34 111.53 281.63 113 281.63 113"/><polygon class="cls-3" points="288.78 113.14 288.78 110.16 285.92 111.3 288.78 113.14"/><polygon class="cls-3" points="281.63 109.64 281.63 112.48 288.78 109.64 288.78 107.47 288.02 106.98 281.63 109.64"/><polygon class="cls-3" points="285.34 186.75 281.63 188.23 281.63 188.23 281.63 190.61 287.53 188.16 285.34 186.75"/><polygon class="cls-3" points="288.78 185.38 285.92 186.52 288.78 188.36 288.78 185.38"/><polygon class="cls-3" points="288.78 179.12 285.92 180.25 288.78 182.1 288.78 179.12"/><polygon class="cls-3" points="285.34 130.33 281.63 131.81 281.63 131.81 281.63 134.19 287.53 131.74 285.34 130.33"/><polygon class="cls-3" points="281.63 128.45 281.63 131.29 288.78 128.44 288.78 126.27 288.02 125.79 281.63 128.45"/><polygon class="cls-3" points="281.63 134.72 281.63 137.56 288.78 134.71 288.78 132.54 288.02 132.06 281.63 134.72"/><polygon class="cls-3" points="285.34 136.6 281.63 138.08 281.63 138.08 281.63 140.46 287.53 138.01 285.34 136.6"/><polygon class="cls-3" points="281.63 140.99 281.63 143.82 288.78 140.98 288.78 138.81 288.02 138.32 281.63 140.99"/><polygon class="cls-3" points="285.34 142.87 281.63 144.34 281.63 144.34 281.63 146.73 287.53 144.27 285.34 142.87"/><polygon class="cls-3" points="281.63 118.75 288.78 115.91 288.78 113.74 288.02 113.25 281.63 115.91 281.63 118.75"/><polygon class="cls-3" points="285.34 124.06 281.63 125.54 281.63 125.54 281.63 127.92 287.53 125.47 285.34 124.06"/><polygon class="cls-3" points="288.78 182.69 288.02 182.21 281.63 184.87 281.63 187.71 288.78 184.86 288.78 182.69"/><polygon class="cls-3" points="281.63 122.18 281.63 125.02 288.78 122.18 288.78 120.01 288.02 119.52 281.63 122.18"/><polygon class="cls-3" points="285.34 117.79 281.63 119.27 281.63 119.27 281.63 121.66 287.53 119.2 285.34 117.79"/><polygon class="cls-3" points="281.63 153.53 281.63 156.36 288.78 153.52 288.78 151.35 288.02 150.86 281.63 153.53"/><polygon class="cls-3" points="285.34 167.94 281.63 169.42 281.63 169.42 281.63 171.81 287.53 169.35 285.34 167.94"/><polygon class="cls-3" points="281.63 166.06 281.63 168.9 288.78 166.06 288.78 163.89 288.02 163.4 281.63 166.06"/><polygon class="cls-3" points="281.63 172.33 281.63 175.17 288.78 172.33 288.78 170.15 288.02 169.67 281.63 172.33"/><polygon class="cls-3" points="285.34 161.68 281.63 163.15 281.63 163.15 281.63 165.54 287.53 163.08 285.34 161.68"/><polygon class="cls-3" points="285.34 174.21 281.63 175.69 281.63 175.69 281.63 178.07 287.53 175.62 285.34 174.21"/><polygon class="cls-3" points="281.63 178.6 281.63 181.44 288.78 178.6 288.78 176.43 288.02 175.94 281.63 178.6"/><polygon class="cls-3" points="281.63 159.79 281.63 162.63 288.78 159.79 288.78 157.62 288.02 157.13 281.63 159.79"/><polygon class="cls-3" points="285.34 149.14 281.63 150.61 281.63 150.61 281.63 153 287.53 150.54 285.34 149.14"/><polygon class="cls-3" points="281.63 147.26 281.63 150.09 288.78 147.25 288.78 145.08 288.02 144.59 281.63 147.26"/><polygon class="cls-3" points="285.34 155.41 281.63 156.88 281.63 156.88 281.63 159.27 287.53 156.81 285.34 155.41"/></g><polygon points="250.26 166.9 256.41 162.69 256.31 103.69 250.25 105.8 250.26 166.9"/></g></g></svg>