<svg xmlns="http://www.w3.org/2000/svg" width="231.124" height="261.24" viewBox="0 0 231.124 261.24">
  <g id="Ebene_1-2" transform="translate(0.001)">
    <g id="Gruppe_144" data-name="Gruppe 144">
      <g id="Gruppe_132" data-name="Gruppe 132">
        <path id="Pfad_229" data-name="Pfad 229" d="M174.88,191.56c-.14-11.88-5.87-26.46-17.11-33.38a47.269,47.269,0,0,0-18.22-6.29c-2.22-5.92-3.8-9.3-3.8-9.3H78.84s-1.59,3.39-3.81,9.32a47.119,47.119,0,0,0-18.12,6.27c-11.24,6.93-16.97,21.5-17.11,33.38a35.11,35.11,0,0,1,20.94,8.14c1.5-5.33,2.92-12.34,5.92-20.04-5.11,21.91-8.38,50.85-1.15,79.18H94.57V227.96H120v30.88h29.06c7.3-28.58,3.91-57.76-1.28-79.74,3.15,7.93,4.61,15.15,6.15,20.6a35.187,35.187,0,0,1,20.94-8.14Z" fill="#174679"/>
        <path id="Pfad_230" data-name="Pfad 230" d="M150.93,261.23H117.6V230.35H96.97v30.88H63.65l-.46-1.81c-5.06-19.8-4.97-39.85-2.96-57.01l-1.05-.9a33.043,33.043,0,0,0-19.38-7.56H37.37l.02-2.43c.14-12.11,5.84-27.75,18.25-35.4a48.789,48.789,0,0,1,17.63-6.38c1.96-5.13,3.33-8.05,3.39-8.18l.65-1.38h59.96l.65,1.38c.06.13,1.42,3.04,3.38,8.16a49.137,49.137,0,0,1,17.73,6.4c12.41,7.65,18.11,23.29,18.25,35.4l.03,2.44h-2.44a32.974,32.974,0,0,0-19.37,7.55l-1.14.97c2.01,17.17,2.08,37.18-2.97,56.93l-.46,1.81Zm-28.53-4.8h24.78c6.8-28.45,2.85-57.37-1.73-76.79l4.57-1.44a130.43,130.43,0,0,1,5.04,16.35c.09.35.18.71.27,1.05a38.346,38.346,0,0,1,17.05-6.28c-.76-10.16-5.83-22.93-15.87-29.11a44.732,44.732,0,0,0-17.3-5.95l-1.41-.2-.5-1.33c-1.35-3.59-2.46-6.25-3.11-7.74H80.39c-.65,1.5-1.77,4.16-3.12,7.76l-.5,1.33-1.41.2a44.79,44.79,0,0,0-17.2,5.94c-10.04,6.19-15.11,18.96-15.87,29.11a38.305,38.305,0,0,1,17.05,6.28c.09-.36.18-.72.28-1.08a130.235,130.235,0,0,1,4.8-15.74l4.57,1.41c-4.49,19.28-8.35,47.99-1.6,76.23H92.17V225.55H122.4Z" fill="#231f20"/>
      </g>
      <g id="Gruppe_133" data-name="Gruppe 133">
        <path id="Pfad_231" data-name="Pfad 231" d="M33.93,199.37a14.1,14.1,0,1,0,12.15-12.15A14.1,14.1,0,0,0,33.93,199.37Z" fill="#be202e"/>
        <path id="Pfad_232" data-name="Pfad 232" d="M47.92,217.7h0a16.516,16.516,0,1,1,2.13-.14,17.03,17.03,0,0,1-2.13.13Zm0-28.19a11.231,11.231,0,0,0-1.53.1,11.764,11.764,0,0,0-10.07,10.07,11.615,11.615,0,0,0,2.82,9.26,11.744,11.744,0,0,0,8.78,3.97h0a11.231,11.231,0,0,0,1.53-.1,11.7,11.7,0,0,0-1.53-23.3Z" fill="#231f20"/>
      </g>
      <g id="Gruppe_134" data-name="Gruppe 134">
        <path id="Pfad_233" data-name="Pfad 233" d="M132.98,3.71c-6.8-.51-14.03-.96-21.43-1.17-20.24-.6-41.8.52-59.54,6.87C36.96,14.79,24.97,25.72,24.97,42.67v82.79a30.722,30.722,0,0,0,30.72,30.72H157.61a30.722,30.722,0,0,0,30.72-30.72V42.66c0-29.63-31.39-37.16-55.35-38.95Z" fill="#ebb887"/>
        <path id="Pfad_234" data-name="Pfad 234" d="M157.61,158.58H55.69a33.161,33.161,0,0,1-33.12-33.12V42.66c0-16.06,10.44-29.01,28.63-35.52C64.66,2.34,81.38,0,102.33,0c2.97,0,6.1.05,9.3.14,6.46.19,13.3.57,21.53,1.18,37.66,2.81,57.57,17.1,57.57,41.34v82.8a33.161,33.161,0,0,1-33.12,33.12ZM102.33,4.8c-20.39,0-36.58,2.25-49.51,6.87-9.5,3.4-25.45,11.94-25.45,31v82.79a28.353,28.353,0,0,0,28.32,28.32H157.61a28.353,28.353,0,0,0,28.32-28.32V42.66c0-21.63-17.88-33.93-53.13-36.56-8.16-.61-14.94-.98-21.32-1.17-3.15-.09-6.23-.14-9.15-.14Z" fill="#231f20"/>
        <path id="Pfad_235" data-name="Pfad 235" d="M133.16,7.67c-8.23-.61-15.08-.99-21.53-1.18-3.2-.09-6.32-.14-9.3-.14-20.95,0-37.67,2.34-51.12,7.15A52.62,52.62,0,0,0,36.2,21.63a28.5,28.5,0,0,0-8.82,21.03v82.67H185.93V42.66c0-8.49-2.77-15.54-8.25-21.13-9.67-7.68-24.61-12.38-44.53-13.86Z" fill="#d69576"/>
      </g>
      <g id="Gruppe_135" data-name="Gruppe 135">
        <path id="Pfad_236" data-name="Pfad 236" d="M132.98,3.71c-6.8-.51-14.03-.96-21.43-1.17-20.24-.6-41.8.52-59.54,6.87C36.96,14.79,24.97,25.72,24.97,42.67v73.91H188.33V42.66c0-29.63-31.39-37.16-55.35-38.95Z" fill="#174679"/>
        <path id="Pfad_237" data-name="Pfad 237" d="M190.73,118.98H22.57V42.66c0-16.06,10.44-29.01,28.63-35.52C64.66,2.34,81.38,0,102.33,0c2.97,0,6.1.05,9.3.14,6.46.19,13.3.57,21.53,1.18,37.66,2.81,57.57,17.1,57.57,41.34v76.32Zm-163.36-4.8H185.93V42.66c0-21.63-17.88-33.93-53.13-36.56-8.16-.61-14.94-.98-21.32-1.17-3.15-.09-6.23-.14-9.15-.14-20.39,0-36.58,2.25-49.51,6.87-9.5,3.4-25.45,11.94-25.45,31v71.52Z" fill="#231f20"/>
      </g>
      <g id="Gruppe_136" data-name="Gruppe 136">
        <circle id="Ellipse_48" data-name="Ellipse 48" cx="12" cy="12" r="12" transform="translate(58.66 81.7)" fill="#231f20"/>
        <circle id="Ellipse_49" data-name="Ellipse 49" cx="12" cy="12" r="12" transform="translate(130.65 81.7)" fill="#231f20"/>
        <circle id="Ellipse_50" data-name="Ellipse 50" cx="3.24" cy="3.24" r="3.24" transform="translate(64.17 86.83)" fill="#fff"/>
        <circle id="Ellipse_51" data-name="Ellipse 51" cx="3.24" cy="3.24" r="3.24" transform="translate(136.69 86.83)" fill="#fff"/>
      </g>
      <path id="Pfad_238" data-name="Pfad 238" d="M124.66,126.06a36.269,36.269,0,0,1-4.53,4.97,46.257,46.257,0,0,1-5.36,4.32c-.52.37-1.06.72-1.64,1.06-.56.35-1.16.69-1.78,1a8.689,8.689,0,0,1-.97.46c-.35.15-.66.3-1.04.43l-1.18.36c-.22.05-.49.08-.74.12l-.38.05-.19.02h-.14l-.02.02c-.13,0,.25.02-.29-.01-.33-.05-.63-.08-.99-.14-.47-.12-.94-.25-1.4-.39a11.227,11.227,0,0,1-1.07-.44c-.34-.15-.67-.3-.97-.47a18.025,18.025,0,0,1-1.79-1c-.57-.34-1.12-.69-1.64-1.06a46.255,46.255,0,0,1-5.36-4.32,36.269,36.269,0,0,1-4.53-4.97s.65.23,1.73.69,2.6,1.13,4.38,1.99c1.74.86,3.77,1.86,5.94,2.94,1.06.53,2.17,1.05,3.25,1.52a7.408,7.408,0,0,0,.8.32c.25.08.56.22.75.28a2.74,2.74,0,0,1,.48.17c.28.05.64.08.95.12-.52-.03-.14,0-.26-.02h.05l.05-.02.11-.02a2.148,2.148,0,0,0,.23-.02l.7-.2c.5-.2,1.04-.35,1.58-.61,1.08-.46,2.18-.99,3.25-1.51,2.17-1.08,4.2-2.08,5.94-2.94,1.77-.86,3.29-1.54,4.37-1.99s1.73-.69,1.73-.69Z" fill="#231f20"/>
      <g id="Gruppe_137" data-name="Gruppe 137">
        <path id="Pfad_239" data-name="Pfad 239" d="M43,21.27,12.14,9.24A7.162,7.162,0,0,0,2.88,13.3h0a7.162,7.162,0,0,0,4.06,9.26L37.79,34.59a7.15,7.15,0,1,0,5.2-13.32Z" fill="#fff"/>
        <path id="Pfad_240" data-name="Pfad 240" d="M40.4,37.48h0a9.62,9.62,0,0,1-3.47-.65L6.08,24.8A9.553,9.553,0,0,1,13.02,7L43.87,19.03a9.553,9.553,0,0,1-3.48,18.45ZM9.55,11.15a4.753,4.753,0,0,0-1.73,9.18L38.67,32.36a4.615,4.615,0,0,0,1.72.33,4.754,4.754,0,0,0,1.73-9.18L11.27,11.48A4.653,4.653,0,0,0,9.55,11.15Z" fill="#231f20"/>
      </g>
      <g id="Gruppe_138" data-name="Gruppe 138">
        <path id="Pfad_241" data-name="Pfad 241" d="M173.52,21.27,204.37,9.24a7.162,7.162,0,0,1,9.26,4.06h0a7.162,7.162,0,0,1-4.06,9.26L178.72,34.59a7.15,7.15,0,0,1-5.2-13.32Z" fill="#fff"/>
        <path id="Pfad_242" data-name="Pfad 242" d="M176.12,37.48a9.553,9.553,0,0,1-3.48-18.45L203.49,7a9.554,9.554,0,0,1,6.95,17.8L179.59,36.83A9.581,9.581,0,0,1,176.12,37.48Zm30.85-26.33a4.615,4.615,0,0,0-1.72.33L174.4,23.51a4.753,4.753,0,0,0,1.73,9.18,4.615,4.615,0,0,0,1.72-.33L208.7,20.33a4.753,4.753,0,0,0-1.73-9.18Z" fill="#231f20"/>
      </g>
      <g id="Gruppe_139" data-name="Gruppe 139">
        <path id="Pfad_243" data-name="Pfad 243" d="M62,243H58.11a7.919,7.919,0,0,0-7.92,7.92h0a7.919,7.919,0,0,0,7.92,7.92H94.46V237.07H62.02c.17,2.05-.28,4.05-.02,5.94Z" fill="#be202e"/>
        <path id="Pfad_244" data-name="Pfad 244" d="M96.86,261.23H58.11a10.315,10.315,0,1,1,0-20.63h1.44c.01-.28.03-.55.05-.83a17.672,17.672,0,0,0,.03-2.51l-.22-2.6H96.87v26.57ZM58.11,245.4a5.52,5.52,0,1,0,0,11.04H92.06V239.47H64.41l-.03.6a13.349,13.349,0,0,0,0,2.61l.38,2.73H58.11Z" fill="#231f20"/>
      </g>
      <g id="Gruppe_140" data-name="Gruppe 140">
        <path id="Pfad_245" data-name="Pfad 245" d="M156.83,243h-3.89c.26-1.89-.6-3.88-.42-5.94H120.07v21.77h36.76a7.919,7.919,0,0,0,7.92-7.92h0a7.919,7.919,0,0,0-7.92-7.92Z" fill="#be202e"/>
        <path id="Pfad_246" data-name="Pfad 246" d="M156.83,261.23H117.67V234.66h37.46l-.22,2.6a10.072,10.072,0,0,0,.21,2.36c.05.31.1.64.15.98h1.57a10.32,10.32,0,0,1,0,20.64Zm-34.36-4.8h34.36a5.515,5.515,0,1,0,0-11.03h-6.65l.38-2.73a8.705,8.705,0,0,0-.18-2.28c-.05-.3-.1-.61-.14-.93H122.48v16.97Z" fill="#231f20"/>
      </g>
      <g id="Gruppe_141" data-name="Gruppe 141">
        <path id="Pfad_247" data-name="Pfad 247" d="M151.74,205.95c-40.78,9.14-88.8,0-88.8,0l1.48-15.19s46.42,8.84,85.84,0Z" fill="#fff"/>
        <path id="Pfad_248" data-name="Pfad 248" d="M110.59,212.41a289.4,289.4,0,0,1-48.11-4.11l-2.15-.41,1.95-19.99,2.58.49a274.389,274.389,0,0,0,45.62,3.89,181,181,0,0,0,39.25-3.87l2.65-.59,1.95,20.01-2.07.46a191.879,191.879,0,0,1-41.67,4.12Zm-45.05-8.45a290.47,290.47,0,0,0,45.05,3.65,191.191,191.191,0,0,0,38.55-3.56l-1.01-10.39a190.308,190.308,0,0,1-37.64,3.42,286.213,286.213,0,0,1-43.93-3.53l-1.02,10.41Z" fill="#231f20"/>
      </g>
      <g id="Gruppe_142" data-name="Gruppe 142">
        <path id="Pfad_249" data-name="Pfad 249" d="M78.01,195.14l-1.02,10.43c3.39.4,7.3.8,11.59,1.14l1.02-10.46c-4.28-.33-8.19-.72-11.59-1.12Z" fill="#be202e"/>
        <path id="Pfad_250" data-name="Pfad 250" d="M136.44,195.55q-5.61.705-11.59,1.09l1.02,10.48c4-.27,7.85-.65,11.59-1.13l-1.02-10.44Z" fill="#be202e"/>
        <path id="Pfad_251" data-name="Pfad 251" d="M110.48,197.08q-4.71,0-9.17-.17l-.58,10.51c3.19.12,6.49.19,9.87.19.6,0,1.19-.01,1.79-.02l.59-10.54c-.83,0-1.65.03-2.48.03Z" fill="#be202e"/>
      </g>
      <g id="Gruppe_143" data-name="Gruppe 143">
        <ellipse id="Ellipse_52" data-name="Ellipse 52" cx="46.36" cy="46.6" rx="46.36" ry="46.6" transform="translate(99.657 190.583) rotate(-45)" fill="#be202e"/>
        <path id="Pfad_252" data-name="Pfad 252" d="M165.4,239.65h0a48.9,48.9,0,0,1-6.34-97.39,50.087,50.087,0,0,1,6.34-.4,48.9,48.9,0,0,1,6.34,97.39A50.087,50.087,0,0,1,165.4,239.65Zm0-92.99a46.2,46.2,0,0,0-5.74.36,44.352,44.352,0,0,0-37.99,37.99,44.125,44.125,0,0,0,43.74,49.84h0a46.2,46.2,0,0,0,5.74-.36,44.352,44.352,0,0,0,37.99-37.99,44.112,44.112,0,0,0-43.73-49.84Z" fill="#231f20"/>
      </g>
      <path id="Pfad_253" data-name="Pfad 253" d="M161.08,157.89a33.146,33.146,0,1,0,37.17,37.17A33.218,33.218,0,0,0,161.08,157.89Zm28.85,36.08a24.75,24.75,0,1,1-27.76-27.76,24.794,24.794,0,0,1,27.76,27.76Z" fill="#fff"/>
      <ellipse id="Ellipse_53" data-name="Ellipse 53" cx="20.05" cy="20.16" rx="20.05" ry="20.16" transform="translate(136.953 190.684) rotate(-44.99)" fill="#174679"/>
    </g>
  </g>
</svg>
