<?xml version="1.0" encoding="UTF-8"?><svg id="a" xmlns="http://www.w3.org/2000/svg" viewBox="0 0 166 200"><defs><style>.au{fill:#fff;}.av{fill:#ebb887;}.aw{fill:#174679;}.ax{fill:#be202e;}.ay{fill:#231f20;}.az{fill:#d69576;}</style></defs><g id="b" transform="translate(0.001)"><g id="c"><g id="d"><path id="e" class="aw" d="M133.97,146.65c-.11-9.1-4.49-20.26-13.1-25.56-4.27-2.55-9.02-4.19-13.95-4.82-1.7-4.53-2.91-7.12-2.91-7.12H60.44s-1.22,2.6-2.92,7.14c-4.9,.63-9.63,2.27-13.87,4.8-8.61,5.31-12.99,16.46-13.1,25.56,5.88,.27,11.51,2.45,16.03,6.23,1.15-4.08,2.24-9.45,4.53-15.34-3.91,16.77-6.42,38.93-.88,60.62h22.25v-23.64h19.47v23.64h22.25c5.59-21.88,2.99-44.22-.98-61.05,2.41,6.07,3.53,11.6,4.71,15.77,4.52-3.77,10.15-5.96,16.03-6.23h0Z"/><path id="f" class="ay" d="M115.63,199.99h-25.52v-23.64h-15.79v23.64h-25.51l-.35-1.39c-3.87-15.16-3.8-30.51-2.27-43.65l-.8-.69c-4.19-3.48-9.4-5.51-14.84-5.79h-1.86l.02-1.86c.11-9.27,4.47-21.24,13.97-27.1,4.14-2.49,8.72-4.14,13.5-4.88,1.5-3.93,2.55-6.16,2.6-6.26l.5-1.06h45.9l.5,1.06c.05,.1,1.09,2.33,2.59,6.25,4.8,.74,9.41,2.41,13.57,4.9,9.5,5.86,13.86,17.83,13.97,27.1l.02,1.87h-1.87c-5.44,.28-10.64,2.3-14.83,5.78l-.87,.74c1.54,13.14,1.59,28.46-2.27,43.58l-.35,1.39h0Zm-21.84-3.67h18.97c5.21-21.78,2.18-43.92-1.32-58.79l3.5-1.1c1.56,4.08,2.85,8.26,3.86,12.52,.07,.27,.14,.54,.21,.8,3.9-2.63,8.38-4.27,13.05-4.81-.58-7.78-4.46-17.55-12.15-22.29-4.05-2.41-8.56-3.97-13.24-4.56l-1.08-.15-.38-1.02c-1.03-2.75-1.88-4.78-2.38-5.93H61.63c-.5,1.15-1.36,3.18-2.39,5.94l-.38,1.02-1.08,.15c-4.65,.6-9.14,2.15-13.17,4.55-7.69,4.74-11.57,14.52-12.15,22.29,4.67,.53,9.15,2.18,13.05,4.81,.07-.28,.14-.55,.21-.83,.97-4.09,2.2-8.11,3.67-12.05l3.5,1.08c-3.44,14.76-6.39,36.74-1.22,58.36h18.97v-23.64h23.14v23.64Z"/></g><g id="g"><path id="h" class="ax" d="M26.06,152.63c-.77,5.91,3.39,11.33,9.3,12.1,5.91,.77,11.33-3.39,12.1-9.3,.77-5.91-3.39-11.33-9.3-12.1-.93-.12-1.87-.12-2.8,0-4.85,.64-8.67,4.45-9.3,9.3Z"/><path id="i" class="ay" d="M36.77,166.67h0c-6.98,0-12.65-5.65-12.66-12.63,0-6.98,5.65-12.65,12.63-12.66,6.98,0,12.65,5.65,12.66,12.63,0,6.35-4.7,11.72-11,12.55-.54,.07-1.09,.1-1.63,.1h0Zm0-21.57c-.39,0-.78,.02-1.17,.08-4.01,.55-7.16,3.7-7.71,7.71-.35,2.56,.44,5.15,2.16,7.09,1.7,1.93,4.15,3.03,6.72,3.04h0c.39,0,.78-.02,1.17-.08,4.9-.65,8.36-5.14,7.71-10.05-.59-4.46-4.39-7.79-8.88-7.79h0Z"/></g><g id="j"><path id="k" class="av" d="M101.89,2.84c-5.21-.39-10.74-.73-16.41-.9-15.5-.46-32,.4-45.58,5.26-11.52,4.12-20.7,12.49-20.7,25.46v63.38c0,12.99,10.53,23.52,23.52,23.52H120.75c12.99,0,23.52-10.53,23.52-23.52V32.66c0-22.68-24.03-28.45-42.37-29.82h0Z"/><path id="l" class="ay" d="M120.75,121.41H42.72c-14-.02-25.34-11.36-25.36-25.36V32.66c0-12.3,7.99-22.21,21.92-27.19C49.59,1.79,62.39,0,78.43,0c2.27,0,4.67,.04,7.12,.11,4.95,.15,10.18,.44,16.48,.9,28.83,2.15,44.07,13.09,44.07,31.65v63.39c-.02,14-11.36,25.34-25.36,25.36h0ZM78.43,3.67c-15.61,0-28,1.72-37.9,5.26-7.27,2.6-19.48,9.14-19.48,23.73v63.38c.01,11.97,9.71,21.67,21.68,21.68H120.75c11.97-.01,21.67-9.71,21.68-21.68V32.66c0-16.56-13.69-25.98-40.68-27.99-6.25-.47-11.44-.75-16.32-.9-2.41-.07-4.77-.11-7.01-.11h0Z"/><path id="m" class="az" d="M102.03,5.87c-6.3-.47-11.54-.76-16.48-.9-2.45-.07-4.84-.11-7.12-.11-16.04,0-28.84,1.79-39.14,5.47-4.14,1.44-8.03,3.54-11.49,6.22-4.39,4.19-6.84,10.03-6.75,16.1v63.29h121.38V32.66c0-6.5-2.12-11.9-6.32-16.18-7.4-5.88-18.84-9.48-34.09-10.61h0Z"/></g><g id="n"><path id="o" class="aw" d="M101.89,2.84c-5.21-.39-10.74-.73-16.41-.9-15.5-.46-32,.4-45.58,5.26-11.52,4.12-20.7,12.49-20.7,25.46v56.58h125.07V32.66c0-22.68-24.03-28.45-42.37-29.82h0Z"/><path id="p" class="ay" d="M146.11,91.09H17.37V32.66c0-12.3,7.99-22.21,21.92-27.19C49.59,1.79,62.39,0,78.43,0c2.27,0,4.67,.04,7.12,.11,4.95,.15,10.18,.44,16.48,.9,28.83,2.15,44.07,13.09,44.07,31.65v58.43h0Zm-125.07-3.67h121.39V32.66c0-16.56-13.69-25.98-40.68-27.99-6.25-.47-11.44-.75-16.32-.9-2.41-.07-4.77-.11-7.01-.11-15.61,0-28,1.72-37.9,5.26-7.27,2.6-19.48,9.14-19.48,23.73v54.75Z"/></g><g id="q"><circle id="r" class="ay" cx="54.18" cy="71.73" r="9.19"/><circle id="s" class="ay" cx="109.3" cy="71.73" r="9.19"/><circle id="t" class="au" cx="51.69" cy="68.96" r="2.48"/><circle id="u" class="au" cx="107.21" cy="68.96" r="2.48"/></g><path id="v" class="ay" d="M95.52,96.51c-1.04,1.37-2.2,2.65-3.47,3.8-1.28,1.2-2.66,2.31-4.1,3.31-.4,.28-.81,.55-1.26,.81-.43,.27-.89,.53-1.36,.77-.24,.13-.49,.25-.74,.35-.27,.11-.51,.23-.8,.33l-.9,.28c-.17,.04-.38,.06-.57,.09l-.29,.04-.15,.02h-.11l-.02,.02c-.1,0,.19,.02-.22,0-.25-.04-.48-.06-.76-.11-.36-.09-.72-.19-1.07-.3-.28-.1-.55-.21-.82-.34-.26-.11-.51-.23-.74-.36-.47-.23-.93-.48-1.37-.77-.44-.26-.86-.53-1.26-.81-1.45-1-2.82-2.1-4.1-3.31-1.27-1.16-2.43-2.43-3.47-3.8,0,0,.5,.18,1.32,.53s1.99,.87,3.35,1.52c1.33,.66,2.89,1.42,4.55,2.25,.81,.41,1.66,.8,2.49,1.16,.2,.09,.4,.18,.61,.24,.19,.06,.43,.17,.57,.21,.13,.03,.25,.08,.37,.13,.21,.04,.49,.06,.73,.09-.4-.02-.11,0-.2-.02h.04l.04-.02,.08-.02c.06,0,.12,0,.18-.02l.54-.15c.38-.15,.8-.27,1.21-.47,.83-.35,1.67-.76,2.49-1.16,1.66-.83,3.22-1.59,4.55-2.25,1.36-.66,2.52-1.18,3.35-1.52s1.32-.53,1.32-.53l-.02-.02Z"/><g id="w"><path id="x" class="au" d="M33.01,16.28L9.38,7.07c-2.82-1.09-5.99,.3-7.09,3.11h0c-1.09,2.82,.3,5.99,3.11,7.09l23.62,9.21c2.8,1.13,5.99-.22,7.13-3.03,1.13-2.8-.22-5.99-3.03-7.13-.04-.02-.08-.03-.12-.05h0Z"/><path id="y" class="ay" d="M31.02,28.69h0c-.91,0-1.81-.17-2.66-.5L4.74,18.99C.99,17.48-.83,13.22,.68,9.48c1.48-3.7,5.65-5.53,9.38-4.12l23.62,9.21c3.76,1.47,5.62,5.71,4.15,9.47-1.1,2.8-3.8,4.65-6.81,4.65h0ZM7.4,8.54c-2.01,0-3.64,1.63-3.64,3.64,0,1.5,.92,2.84,2.31,3.39l23.62,9.21c.42,.17,.87,.25,1.32,.25,2.01,0,3.64-1.63,3.64-3.64,0-1.5-.92-2.84-2.31-3.38L8.71,8.79c-.42-.17-.87-.25-1.32-.25Z"/></g><g id="z"><path id="aa" class="au" d="M132.93,16.28l23.62-9.21c2.82-1.09,5.99,.3,7.09,3.11h0c1.09,2.82-.3,5.99-3.11,7.09l-23.62,9.21c-2.83,1.07-5.99-.36-7.05-3.19-1.05-2.78,.31-5.89,3.07-7.01Z"/><path id="ab" class="ay" d="M134.92,28.69c-4.04,0-7.31-3.27-7.31-7.31,0-3.01,1.85-5.72,4.65-6.81l23.62-9.21c3.76-1.47,8,.39,9.47,4.15,1.47,3.76-.39,8-4.15,9.47h0l-23.62,9.21c-.85,.33-1.75,.5-2.66,.5Zm23.62-20.16c-.45,0-.9,.09-1.32,.25l-23.62,9.21c-1.87,.73-2.8,2.84-2.06,4.71,.55,1.4,1.89,2.31,3.39,2.31,.45,0,.9-.09,1.32-.25l23.62-9.21c1.87-.73,2.8-2.84,2.06-4.71-.55-1.4-1.89-2.31-3.39-2.31Z"/></g><g id="ac"><path id="ad" class="ax" d="M47.55,186.04h-2.98c-3.35,0-6.06,2.71-6.06,6.06h0c0,3.35,2.71,6.06,6.06,6.06h27.83v-16.67h-24.84c.13,1.57-.21,3.1-.02,4.55h0Z"/><path id="ae" class="ay" d="M74.24,199.99h-29.67c-4.36,0-7.9-3.54-7.9-7.9s3.54-7.9,7.9-7.9h1.1c0-.21,.02-.42,.04-.64,.05-.64,.06-1.28,.02-1.92l-.17-1.99h28.68v20.34h0Zm-29.67-12.12c-2.33,0-4.23,1.89-4.23,4.23s1.89,4.23,4.23,4.23h25.99v-12.99h-21.17l-.02,.46c-.07,.66-.07,1.33,0,2l.29,2.09h-5.09Z"/></g><g id="af"><path id="ag" class="ax" d="M120.15,186.04h-2.98c.2-1.45-.46-2.97-.32-4.55h-24.84v16.67h28.14c3.35,0,6.06-2.71,6.06-6.06h0c0-3.35-2.71-6.06-6.06-6.06h0Z"/><path id="ah" class="ay" d="M120.15,199.99h-29.98v-20.34h28.68l-.17,1.99c-.02,.61,.04,1.21,.16,1.81,.04,.24,.08,.49,.11,.75h1.2c4.36,0,7.9,3.55,7.89,7.91,0,4.36-3.54,7.89-7.89,7.89h0Zm-26.31-3.68h26.31c2.33,0,4.22-1.89,4.22-4.22,0-2.33-1.89-4.22-4.22-4.22h-5.09l.29-2.09c.03-.59-.02-1.17-.14-1.75-.04-.23-.08-.47-.11-.71h-21.25v12.99h0Z"/></g><g id="ai"><path id="aj" class="au" d="M116.26,157.67c-31.22,7-67.98,0-67.98,0l1.13-11.63s35.54,6.77,65.72,0l1.13,11.63Z"/><path id="ak" class="ay" d="M84.75,162.62c-12.34-.02-24.66-1.07-36.83-3.15l-1.65-.31,1.49-15.3,1.98,.38c11.54,1.96,23.22,2.96,34.93,2.98,10.09,.11,20.17-.88,30.05-2.96l2.03-.45,1.49,15.32-1.58,.35c-10.49,2.21-21.18,3.27-31.9,3.15h0Zm-34.49-6.47c11.41,1.83,22.94,2.76,34.49,2.79,9.9,.09,19.79-.82,29.51-2.73l-.77-7.95c-9.49,1.83-19.15,2.7-28.82,2.62-11.26-.04-22.51-.94-33.63-2.7l-.78,7.97h0Z"/></g><g id="al"><path id="am" class="ax" d="M59.81,149.4l-.78,7.99c2.6,.31,5.59,.61,8.87,.87l.78-8.01c-3.28-.25-6.27-.55-8.87-.86h0Z"/><path id="an" class="ax" d="M104.54,149.71c-2.86,.36-5.82,.64-8.87,.83l.78,8.02c3.06-.21,6.01-.5,8.87-.87l-.78-7.99h0Z"/><path id="ao" class="ax" d="M84.67,150.88c-2.4,0-4.74-.04-7.02-.13l-.44,8.05c2.44,.09,4.97,.15,7.56,.15,.46,0,.91,0,1.37-.02l.45-8.07c-.64,0-1.26,.02-1.9,.02h-.02Z"/></g><g id="ap"><ellipse id="aq" class="ax" cx="126.7" cy="146.04" rx="35.49" ry="35.68" transform="translate(-66.15 132.37) rotate(-45)"/><path id="ar" class="ay" d="M126.71,183.47h0c-20.68,0-37.44-16.74-37.45-37.42,0-18.81,13.95-34.71,32.6-37.14,1.61-.2,3.23-.31,4.85-.31,20.68,0,37.44,16.74,37.45,37.42,0,18.81-13.95,34.71-32.6,37.14-1.61,.2-3.23,.31-4.85,.31Zm0-71.19c-1.47,0-2.94,.09-4.39,.28-15.13,2.05-27.03,13.95-29.08,29.08-2.42,18.5,10.62,35.46,29.12,37.87,1.45,.19,2.91,.28,4.37,.28h0c1.47,0,2.94-.09,4.39-.28,15.13-2.05,27.03-13.95,29.08-29.08,2.42-18.49-10.61-35.45-29.1-37.87-1.45-.19-2.91-.29-4.38-.29h0Z"/></g><path id="as" class="au" d="M123.41,120.88c-13.9,1.82-23.69,14.56-21.87,28.46,1.82,13.9,14.56,23.69,28.46,21.87,11.4-1.49,20.37-10.47,21.87-21.87,1.78-13.93-8.06-26.67-21.99-28.46-2.15-.27-4.32-.27-6.46,0Zm22.09,27.62c-1.36,10.38-10.88,17.68-21.25,16.32-10.38-1.36-17.68-10.88-16.32-21.25,1.12-8.51,7.81-15.2,16.32-16.32,10.4-1.34,19.91,6,21.25,16.4,.21,1.61,.21,3.24,0,4.85Z"/><ellipse id="at" class="aw" cx="126.7" cy="146.05" rx="15.35" ry="15.43" transform="translate(-66.16 132.33) rotate(-44.99)"/></g></g></svg>