<svg xmlns="http://www.w3.org/2000/svg" width="65.043" height="73.517" viewBox="0 0 65.043 73.517">
  <g id="Gruppe_29" data-name="Gruppe 29" transform="translate(0)">
    <path id="Pfad_203" data-name="Pfad 203" d="M1107.734,329.96c-.041-3.344-1.653-7.445-4.817-9.4a13.236,13.236,0,0,0-5.133-1.767c-.624-1.667-1.081-2.618-1.081-2.618h-16s-.446.954-1.081,2.62a13.264,13.264,0,0,0-5.1,1.764c-3.163,1.951-4.776,6.051-4.814,9.4a9.882,9.882,0,0,1,5.892,2.291,50.283,50.283,0,0,1,1.667-5.641c-1.437,6.168-2.358,14.318-.322,22.282h8.177V340.2h7.156v8.688h8.18c2.053-8.042,1.1-16.255-.359-22.439a50.958,50.958,0,0,1,1.729,5.8A9.888,9.888,0,0,1,1107.734,329.96Z" transform="translate(-1058.519 -276.052)" fill="#3c3c3c"/>
    <path id="Pfad_204" data-name="Pfad 204" d="M1099.169,347.743h-9.38v-8.688h-5.806v8.688h-9.377l-.13-.508a44.485,44.485,0,0,1-.835-16.044l-.295-.251a9.31,9.31,0,0,0-5.454-2.129h-.683v-.683c.041-3.407,1.643-7.81,5.133-9.96a13.7,13.7,0,0,1,4.96-1.8c.554-1.445.938-2.267.954-2.3l.181-.386h16.876l.181.386c.019.038.4.856.954,2.3a13.743,13.743,0,0,1,4.99,1.8c3.49,2.161,5.1,6.554,5.133,9.96v.686h-.686a9.309,9.309,0,0,0-5.454,2.129l-.319.27a44.469,44.469,0,0,1-.835,16.023Zm-8.029-1.351h6.975c1.912-8,.81-16.144-.489-21.612l1.286-.405a36.767,36.767,0,0,1,1.418,4.593c.027.1.051.2.076.294a10.844,10.844,0,0,1,4.8-1.767c-.213-2.858-1.64-6.451-4.466-8.194a12.6,12.6,0,0,0-4.863-1.675l-.4-.057-.141-.375c-.378-1.01-.692-1.759-.875-2.177h-15.128c-.181.419-.5,1.17-.878,2.183l-.138.373-.4.059a12.65,12.65,0,0,0-4.841,1.67c-2.823,1.742-4.249,5.335-4.465,8.194a10.823,10.823,0,0,1,4.8,1.767c.027-.1.051-.2.078-.305a36.95,36.95,0,0,1,1.351-4.43l1.286.4c-1.264,5.425-2.35,13.508-.451,21.453h6.975V337.7h8.507Z" transform="translate(-1056.695 -274.227)" fill="#231f20"/>
    <ellipse id="Ellipse_41" data-name="Ellipse 41" cx="3.955" cy="3.977" rx="3.955" ry="3.977" transform="matrix(0.707, -0.707, 0.707, 0.707, 7.875, 56.599)" fill="#bcbcbc"/>
    <path id="Pfad_205" data-name="Pfad 205" d="M1065.707,369.386h0a4.633,4.633,0,1,1,.6-.038,5.011,5.011,0,0,1-.6.038Zm0-7.934a3.292,3.292,0,1,0,0,6.584h0a3.87,3.87,0,0,0,.429-.027,3.292,3.292,0,0,0-.429-6.557Z" transform="translate(-1052.223 -308.121)" fill="#231f20"/>
    <path id="Pfad_206" data-name="Pfad 206" d="M1084.709,170.506c-1.913-.143-3.947-.27-6.03-.332-5.7-.167-11.762.149-16.749,1.934-4.236,1.513-7.61,4.593-7.61,9.358v23.3a8.645,8.645,0,0,0,8.645,8.645h28.682a8.645,8.645,0,0,0,8.645-8.645v-23.3C1100.286,173.126,1091.452,171.008,1084.709,170.506Z" transform="translate(-1047.287 -169.46)" fill="#bcbcbc"/>
    <path id="Pfad_207" data-name="Pfad 207" d="M1089.8,212.266H1061.12a9.331,9.331,0,0,1-9.32-9.32v-23.3c0-4.52,2.937-8.164,8.056-10a43.053,43.053,0,0,1,14.388-2.01c.837,0,1.718.014,2.615.041,1.818.051,3.744.157,6.062.33,10.6.792,16.209,4.814,16.209,11.635v23.3A9.331,9.331,0,0,1,1089.8,212.266Zm-15.558-43.275a41.717,41.717,0,0,0-13.932,1.932c-2.675.956-7.162,3.361-7.162,8.723v23.3a7.977,7.977,0,0,0,7.969,7.969H1089.8a7.978,7.978,0,0,0,7.969-7.969v-23.3c0-6.086-5.03-9.547-14.95-10.287-2.3-.17-4.2-.27-6-.33C1075.935,169,1075.068,168.991,1074.244,168.991Z" transform="translate(-1045.448 -167.64)" fill="#231f20"/>
    <path id="Pfad_208" data-name="Pfad 208" d="M1086.568,174.623c-2.318-.173-4.244-.27-6.062-.332-.9-.027-1.777-.041-2.615-.041a43,43,0,0,0-14.388,2.013,14.733,14.733,0,0,0-4.223,2.288,8.024,8.024,0,0,0-2.483,5.919v23.265h44.629V184.47a8.133,8.133,0,0,0-2.321-5.943C1096.378,176.363,1092.171,175.042,1086.568,174.623Z" transform="translate(-1049.095 -172.464)" fill="#3c3c3c"/>
    <path id="Pfad_209" data-name="Pfad 209" d="M1084.709,170.506c-1.913-.143-3.947-.27-6.03-.332-5.7-.167-11.762.149-16.749,1.934-4.236,1.513-7.61,4.593-7.61,9.358v20.8h45.972v-20.8C1100.286,173.126,1091.452,171.008,1084.709,170.506Z" transform="translate(-1047.287 -169.46)" fill="#3c3c3c"/>
    <path id="Pfad_210" data-name="Pfad 210" d="M1099.13,201.122H1051.8V179.645c0-4.52,2.937-8.164,8.056-10a43.054,43.054,0,0,1,14.388-2.01c.837,0,1.718.014,2.615.041,1.818.051,3.744.157,6.062.33,10.6.792,16.209,4.814,16.209,11.635Zm-45.972-1.351h44.621V179.645c0-6.086-5.03-9.547-14.95-10.287-2.3-.17-4.2-.27-6-.33-.886-.024-1.753-.038-2.577-.038a41.717,41.717,0,0,0-13.932,1.932c-2.674.956-7.162,3.361-7.162,8.723Z" transform="translate(-1045.448 -167.64)" fill="#231f20"/>
    <ellipse id="Ellipse_42" data-name="Ellipse 42" cx="3.377" cy="3.377" rx="3.377" ry="3.377" transform="translate(16.508 22.993)" fill="#231f20"/>
    <ellipse id="Ellipse_43" data-name="Ellipse 43" cx="3.377" cy="3.377" rx="3.377" ry="3.377" transform="translate(36.769 22.993)" fill="#231f20"/>
    <ellipse id="Ellipse_44" data-name="Ellipse 44" cx="0.913" cy="0.913" rx="0.913" ry="0.913" transform="translate(18.058 24.432)" fill="#fff"/>
    <ellipse id="Ellipse_45" data-name="Ellipse 45" cx="0.913" cy="0.913" rx="0.913" ry="0.913" transform="translate(38.465 24.432)" fill="#fff"/>
    <path id="Pfad_211" data-name="Pfad 211" d="M1130.815,298.985a10.065,10.065,0,0,1-1.275,1.4,12.847,12.847,0,0,1-1.508,1.216c-.146.1-.3.2-.459.3a4.74,4.74,0,0,1-.5.27c-.086.046-.178.089-.27.132a2.432,2.432,0,0,1-.292.119l-.332.1c-.059.014-.138.022-.208.032l-.108.013h-.181a1.331,1.331,0,0,1-.27-.04,3.616,3.616,0,0,1-.395-.111,2.972,2.972,0,0,1-.3-.122,2.592,2.592,0,0,1-.27-.132,5.256,5.256,0,0,1-.5-.27c-.162-.095-.313-.194-.459-.3a12.881,12.881,0,0,1-1.51-1.216,10.223,10.223,0,0,1-1.272-1.4s.181.065.486.194.732.319,1.229.559l1.672.827c.3.149.61.3.913.427.078.038.154.065.227.092s.159.062.211.078a.888.888,0,0,1,.135.046c.078.014.178.022.27.032h.051l.2-.057c.14-.057.292-.1.443-.17.305-.13.613-.27.913-.427l1.672-.827c.5-.243.927-.432,1.232-.562S1130.815,298.985,1130.815,298.985Z" transform="translate(-1095.734 -263.498)" fill="#231f20"/>
    <path id="Pfad_212" data-name="Pfad 212" d="M1042.205,180.274l-8.683-3.385a2.013,2.013,0,0,0-2.6,1.145h0a2.013,2.013,0,0,0,1.143,2.6l8.683,3.385a2.012,2.012,0,1,0,1.461-3.75Z" transform="translate(-1030.107 -174.291)" fill="#fff"/>
    <path id="Pfad_213" data-name="Pfad 213" d="M1039.654,183.011h0a2.682,2.682,0,0,1-.975-.184L1030,179.442a2.688,2.688,0,0,1,.975-5.192,2.627,2.627,0,0,1,.975.186l8.688,3.382a2.688,2.688,0,0,1-.975,5.192Zm-8.683-7.41a1.351,1.351,0,0,0-.486,2.583l8.683,3.385a1.308,1.308,0,0,0,.486.092,1.337,1.337,0,0,0,.486-2.583l-8.691-3.385a1.377,1.377,0,0,0-.478-.092Z" transform="translate(-1028.285 -172.464)" fill="#231f20"/>
    <path id="Pfad_214" data-name="Pfad 214" d="M1205.535,180.274l8.683-3.385a2.015,2.015,0,0,1,2.607,1.145h0a2.01,2.01,0,0,1-1.146,2.6L1207,184.024a2.012,2.012,0,1,1-1.462-3.75Z" transform="translate(-1156.715 -174.29)" fill="#fff"/>
    <path id="Pfad_215" data-name="Pfad 215" d="M1204.491,183.011a2.688,2.688,0,0,1-.975-5.192l8.683-3.382a2.628,2.628,0,0,1,.975-.186,2.688,2.688,0,0,1,.975,5.192l-8.683,3.385a2.682,2.682,0,0,1-.975.184Zm8.682-7.41a1.351,1.351,0,0,0-.486.092l-8.669,3.385a1.337,1.337,0,0,0,.486,2.583,1.29,1.29,0,0,0,.484-.092l8.685-3.385a1.351,1.351,0,0,0-.486-2.583Z" transform="translate(-1154.928 -172.464)" fill="#231f20"/>
    <path id="Pfad_216" data-name="Pfad 216" d="M1083.929,416.27h-1.08a2.229,2.229,0,0,0-2.229,2.229h0a2.226,2.226,0,0,0,2.229,2.226h10.231V414.6h-9.131C1083.984,415.178,1083.857,415.737,1083.929,416.27Z" transform="translate(-1066.482 -347.884)" fill="#bcbcbc"/>
    <path id="Pfad_217" data-name="Pfad 217" d="M1091.641,419.575h-10.906a2.9,2.9,0,1,1,0-5.806h.4v-.232a5.187,5.187,0,0,0,0-.705l-.062-.732h10.536Zm-10.906-4.455a1.553,1.553,0,1,0,0,3.1h9.555v-4.773h-7.78v.167a3.93,3.93,0,0,0,0,.735l.105.767Z" transform="translate(-1064.381 -346.059)" fill="#231f20"/>
    <path id="Pfad_218" data-name="Pfad 218" d="M1163.707,416.27h-1.094c.073-.54-.17-1.081-.122-1.669h-9.131v6.124h10.347a2.229,2.229,0,0,0,2.229-2.226h0A2.229,2.229,0,0,0,1163.707,416.27Z" transform="translate(-1119.571 -347.884)" fill="#bcbcbc"/>
    <path id="Pfad_219" data-name="Pfad 219" d="M1161.889,419.575H1150.87V412.1h10.536l-.062.732a2.776,2.776,0,0,0,.057.662c.016.089.03.181.043.27h.44a2.9,2.9,0,1,1,0,5.806Zm-9.669-1.351h9.669a1.553,1.553,0,1,0,0-3.1h-1.872l.108-.767a2.456,2.456,0,0,0-.051-.643c0-.084-.03-.17-.04-.27h-7.813Z" transform="translate(-1117.754 -346.059)" fill="#231f20"/>
    <path id="Pfad_220" data-name="Pfad 220" d="M1118.832,370.627c-11.476,2.575-24.992,0-24.992,0l.419-4.276s13.065,2.488,24.157,0Z" transform="translate(-1076.13 -312.668)" fill="#fff"/>
    <path id="Pfad_221" data-name="Pfad 221" d="M1105.275,370.2a81.651,81.651,0,0,1-13.537-1.154l-.608-.116.54-5.627.727.14a77.483,77.483,0,0,0,12.837,1.081,50.856,50.856,0,0,0,11.044-1.081l.746-.167.54,5.633-.581.13a54.067,54.067,0,0,1-11.708,1.162Zm-12.678-2.377a81.813,81.813,0,0,0,12.678,1.027,53.789,53.789,0,0,0,10.849-1l-.286-2.926a53.454,53.454,0,0,1-10.593.962,80.684,80.684,0,0,1-12.362-.991Z" transform="translate(-1074.153 -310.428)" fill="#231f20"/>
    <path id="Pfad_222" data-name="Pfad 222" d="M1108.766,370.92l-.286,2.934c.954.113,2.053.227,3.264.324l.286-2.945C1110.825,371.142,1109.725,371.031,1108.766,370.92Z" transform="translate(-1086.815 -316.004)" fill="#3c3c3c"/>
    <path id="Pfad_223" data-name="Pfad 223" d="M1161.6,371.35q-1.581.2-3.264.305l.286,2.95q1.688-.113,3.263-.319Z" transform="translate(-1123.206 -316.318)" fill="#be1e2d"/>
    <path id="Pfad_224" data-name="Pfad 224" d="M1135.958,372.816c-.883,0-1.748-.016-2.583-.046l-.165,2.972c.9.032,1.826.051,2.777.051h.5l.165-2.972Z" transform="translate(-1104.865 -317.354)" fill="#3c3c3c"/>
    <ellipse id="Ellipse_46" data-name="Ellipse 46" cx="13.046" cy="13.113" rx="13.046" ry="13.113" transform="translate(28.049 53.633) rotate(-45)" fill="#3c3c3c"/>
    <path id="Pfad_225" data-name="Pfad 225" d="M1163.362,342.94h0a13.761,13.761,0,0,1-1.778-27.409,14.661,14.661,0,0,1,1.786-.111,13.761,13.761,0,0,1,1.783,27.407A14.1,14.1,0,0,1,1163.362,342.94Zm0-26.169a12.409,12.409,0,0,0-.005,24.819h0a13.009,13.009,0,0,0,1.621-.1,12.411,12.411,0,0,0-1.616-24.716Z" transform="translate(-1116.817 -275.497)" fill="#231f20"/>
    <path id="Pfad_226" data-name="Pfad 226" d="M1174.159,331.914a9.345,9.345,0,1,0,7.8,2.661A9.328,9.328,0,0,0,1174.159,331.914Zm8.118,10.152a6.978,6.978,0,1,1-1.988-5.824A6.964,6.964,0,0,1,1182.277,342.066Z" transform="translate(-1128.827 -287.479)" fill="#fff"/>
    <ellipse id="Ellipse_47" data-name="Ellipse 47" cx="5.643" cy="5.673" rx="5.643" ry="5.673" transform="translate(38.554 53.68) rotate(-44.99)" fill="#3c3c3c"/>
  </g>
</svg>
