<svg xmlns="http://www.w3.org/2000/svg" xmlns:xlink="http://www.w3.org/1999/xlink" width="521.5" height="432.305" viewBox="0 0 521.5 432.305">
  <defs>
    <linearGradient id="linear-gradient" x1="1.696" y1="0.5" x2="1.7" y2="0.5" gradientUnits="objectBoundingBox">
      <stop offset="0" stop-color="#eac226"/>
      <stop offset="0.22" stop-color="#f9c81f"/>
      <stop offset="0.41" stop-color="#ffec85"/>
      <stop offset="0.61" stop-color="#edb530"/>
      <stop offset="0.81" stop-color="#ffec85"/>
      <stop offset="1" stop-color="#edb530"/>
    </linearGradient>
  </defs>
  <g id="Home" transform="translate(-648.518 -230.98)">
    <g id="Ebene_1-2" transform="translate(705.356 266.889)">
      <g id="Gruppe_174" data-name="Gruppe 174">
        <g id="Gruppe_170" data-name="Gruppe 170" transform="translate(9.884 112.217)">
          <path id="Pfad_465" data-name="Pfad 465" d="M144.086,154.992a17.271,17.271,0,0,0-19.363-19.363,17.053,17.053,0,0,0-5.908,1.909,49.906,49.906,0,0,0-7.745-1.72c-2.08-5.548-3.566-8.718-3.566-8.718H54.114s-1.477,3.161-3.548,8.682A49.269,49.269,0,0,0,39.9,138.439a17.256,17.256,0,0,0-21.813,26.37c-2.522,11.357-.2,22.516,7.034,24.812,11.06,3.521,10.528-7.2,15.275-22.29q.675-.459,1.3-.973c-4.188,19.94-6.385,45.112-.081,69.807H68.875V207.192H92.733v28.973h27.262c6.061-23.731,4.26-47.9.4-67.447.351.144.711.279,1.072.4,4.179,14.131,4.116,23.884,14.734,20.507,8.07-2.567,10.024-16.139,5.971-28.73a16.944,16.944,0,0,0,1.909-5.9Z" transform="translate(-11.222 -124.848)" fill="#3a9946"/>
          <path id="Pfad_466" data-name="Pfad 466" d="M121.513,238.159H90.243V209.186H70.889v28.973H39.628l-.432-1.693c-3.792-14.833-4.908-31-3.35-48.273a7.938,7.938,0,0,1-7.214,4.1,14.676,14.676,0,0,1-4.431-.775c-7.826-2.486-11.366-13.23-8.781-26.325A19.509,19.509,0,0,1,39.889,135.7a51.957,51.957,0,0,1,8.8-2.207c1.828-4.773,3.089-7.484,3.152-7.6l.6-1.3H108.7l.6,1.3c.054.126,1.333,2.855,3.17,7.655a53.705,53.705,0,0,1,5.881,1.333,18.742,18.742,0,0,1,5.845-1.729,19.527,19.527,0,0,1,21.885,21.876,18.809,18.809,0,0,1-1.72,5.818c2.711,9.033,2.486,18.274-.621,24.3a12.24,12.24,0,0,1-7.088,6.376,14.629,14.629,0,0,1-4.431.775h0a7.827,7.827,0,0,1-6.881-3.6c1.486,17.1.351,33.107-3.4,47.778l-.432,1.693Zm-26.766-4.5H118c4.638-19.363,4.62-41.14-.045-64.755l-.811-4.116,3.882,1.594c.306.126.621.243.937.342l1.108.369.333,1.126c.775,2.612,1.414,5.107,1.972,7.313,2.27,8.889,3.449,12.248,6.854,12.248h0a10.3,10.3,0,0,0,3.062-.567,7.743,7.743,0,0,0,4.449-4.143c2.639-5.124,2.666-13.662.054-21.75l-.3-.91.45-.847a14.652,14.652,0,0,0,1.657-5.107,14.955,14.955,0,0,0-3.62-11.888,15.108,15.108,0,0,0-13.221-4.962,14.759,14.759,0,0,0-5.116,1.657l-.829.45-.9-.279a49.017,49.017,0,0,0-7.394-1.648L109.2,137.6l-.468-1.252c-1.261-3.368-2.306-5.863-2.918-7.259H55.326c-.6,1.4-1.648,3.873-2.9,7.223l-.468,1.261-1.333.18a46.81,46.81,0,0,0-10.168,2.531l-1.045.4-.946-.594A15.009,15.009,0,0,0,19.5,163.02l.811.865-.261,1.153c-2.414,10.88-.045,20.417,5.512,22.182,5.89,1.873,7.079-.567,9.916-11.69.7-2.738,1.5-5.836,2.531-9.132l.234-.748.648-.441c.423-.288.793-.567,1.135-.847l4.962-4.107-1.324,6.3c-5.143,24.5-5.323,47.057-.522,67.1H66.395V204.683H94.755v28.973Z" transform="translate(-10.974 -124.6)" fill="#231f20"/>
        </g>
        <g id="Gruppe_171" data-name="Gruppe 171" transform="translate(34.095 170.136)">
          <path id="Pfad_467" data-name="Pfad 467" d="M126.126,221.707a158.641,158.641,0,0,0-.531-30.3H41.377a158.629,158.629,0,0,0-.531,30.3H71.557v-8.133H95.414v8.133Z" transform="translate(-38.106 -189.158)" fill="#5254a0"/>
          <path id="Pfad_468" data-name="Pfad 468" d="M127.949,223.71H92.915v-8.133H73.56v8.133H38.526l-.171-2.062a160.477,160.477,0,0,1,.54-30.729l.216-2.008h88.252l.216,2.008a161.146,161.146,0,0,1,.531,30.729l-.171,2.062Zm-30.531-4.5h26.37a156.4,156.4,0,0,0-.468-25.794H43.164a156.482,156.482,0,0,0-.477,25.794h26.37v-8.133H97.418Z" transform="translate(-37.858 -188.91)" fill="#231f20"/>
        </g>
        <path id="Pfad_469" data-name="Pfad 469" d="M139.762,144.162c-.27-.369-.558-.738-.865-1.09a15.108,15.108,0,0,0-13.221-4.962,14.759,14.759,0,0,0-5.116,1.657l-.829.45-.9-.279a49.024,49.024,0,0,0-7.394-1.648l-1.324-.189-.468-1.252c-1.261-3.368-2.306-5.863-2.918-7.259H56.239c-.6,1.4-1.648,3.873-2.9,7.223l-.468,1.261-1.333.18a46.811,46.811,0,0,0-10.168,2.531l-1.045.4-.946-.594a14.952,14.952,0,0,0-19.219,2.8,30.852,30.852,0,0,0,12.924,2.828h95.628a30.933,30.933,0,0,0,11.069-2.044Z" transform="translate(-2.004 -12.879)" fill="#297c36"/>
        <g id="Gruppe_172" data-name="Gruppe 172">
          <rect id="Rechteck_189" data-name="Rechteck 189" width="153.258" height="124.961" rx="28" transform="translate(2.252 2.252)" fill="#3a9946"/>
          <path id="Pfad_470" data-name="Pfad 470" d="M126.69,129.464H31.071A31.11,31.11,0,0,1,0,98.393V31.071A31.11,31.11,0,0,1,31.071,0H126.7a31.11,31.11,0,0,1,31.071,31.071V98.393A31.11,31.11,0,0,1,126.7,129.464ZM31.071,4.5A26.594,26.594,0,0,0,4.5,31.071V98.393a26.594,26.594,0,0,0,26.568,26.568H126.7a26.594,26.594,0,0,0,26.568-26.568V31.071A26.594,26.594,0,0,0,126.7,4.5Z" fill="#231f20"/>
          <path id="Pfad_471" data-name="Pfad 471" d="M127.187,7.4H31.568a30.948,30.948,0,0,0-21.12,8.313A26.435,26.435,0,0,0,5,31.807V51.278l12.8-8.655L31.884,52.809,47.815,42.551l16.013,10.2L79.787,42.587,94.332,52.8l15.95-10.294,18.138,10.249L144.209,41.4l9.565,9.123V31.816a26.435,26.435,0,0,0-5.449-16.094,30.948,30.948,0,0,0-21.12-8.313Z" transform="translate(-0.497 -0.735)" fill="#297c36"/>
        </g>
        <g id="Gruppe_173" data-name="Gruppe 173" transform="translate(33.854 57.333)">
          <circle id="Ellipse_58" data-name="Ellipse 58" cx="11.258" cy="11.258" r="11.258" fill="#231f20"/>
          <circle id="Ellipse_59" data-name="Ellipse 59" cx="11.258" cy="11.258" r="11.258" transform="translate(67.546)" fill="#231f20"/>
          <circle id="Ellipse_60" data-name="Ellipse 60" cx="3.044" cy="3.044" r="3.044" transform="translate(5.17 4.809)" fill="#fff"/>
          <circle id="Ellipse_61" data-name="Ellipse 61" cx="3.044" cy="3.044" r="3.044" transform="translate(73.202 4.809)" fill="#fff"/>
        </g>
        <path id="Pfad_472" data-name="Pfad 472" d="M126.69,0H31.071A31.11,31.11,0,0,0,0,31.071V46.922l17.3-11.7L31.387,45.409,47.319,35.151l16.013,10.2L79.291,35.187,93.836,45.4l15.95-10.294,18.138,10.249L143.712,34l14.068,13.41V31.071A31.11,31.11,0,0,0,126.708,0Z" fill="#231f20"/>
        <path id="Pfad_473" data-name="Pfad 473" d="M101.111,109.39a34.591,34.591,0,0,1-4.251,4.665,43.554,43.554,0,0,1-5.025,4.053c-.486.342-1,.675-1.54.991-.522.333-1.09.648-1.675.946a9.5,9.5,0,0,1-.91.432c-.324.135-.621.288-.973.405l-1.108.333c-.207.045-.468.081-.693.108l-.36.045-.18.018h-.135l-.018.018c-.117,0,.234.018-.27-.009-.315-.045-.585-.072-.937-.135-.441-.108-.883-.234-1.315-.369-.405-.135-.666-.27-1-.405a9.495,9.495,0,0,1-.91-.432c-.585-.3-1.153-.6-1.675-.937-.54-.324-1.054-.648-1.54-.991a42.789,42.789,0,0,1-5.025-4.053,34.59,34.59,0,0,1-4.251-4.665s.6.216,1.621.648,2.441,1.063,4.107,1.864c1.63.811,3.53,1.747,5.575,2.756,1,.5,2.035.991,3.044,1.423a6.58,6.58,0,0,0,.757.3c.234.072.531.207.7.261a2.653,2.653,0,0,1,.45.153c.261.045.594.072.892.108-.486-.027-.135,0-.243-.018h.045l.054-.018.1-.018a2.086,2.086,0,0,0,.216-.018l.657-.189c.468-.189.973-.324,1.486-.567,1.018-.432,2.044-.928,3.044-1.423,2.035-1.009,3.945-1.954,5.575-2.756,1.657-.8,3.089-1.441,4.107-1.873s1.621-.648,1.621-.648Z" transform="translate(-6.69 -10.871)" fill="#231f20"/>
      </g>
    </g>
    <g id="Ebene_1-2-2" data-name="Ebene_1-2" transform="translate(948.79 266.889)">
      <g id="Gruppe_144" data-name="Gruppe 144" transform="translate(0)">
        <g id="Gruppe_132" data-name="Gruppe 132" transform="translate(32.299 121.155)">
          <path id="Pfad_229" data-name="Pfad 229" d="M156.547,184.914c-.121-10.268-5.073-22.869-14.788-28.85a40.855,40.855,0,0,0-15.747-5.436c-1.919-5.117-3.284-8.038-3.284-8.038H73.542s-1.374,2.93-3.293,8.055a40.725,40.725,0,0,0-15.661,5.419c-9.715,5.989-14.667,18.582-14.788,28.85a30.345,30.345,0,0,1,18.1,7.035c1.3-4.607,2.524-10.665,5.117-17.32-4.416,18.936-7.243,43.949-.994,68.434H87.137V216.374h21.979v26.689h25.116c6.309-24.7,3.379-49.921-1.106-68.918,2.723,6.854,3.984,13.094,5.315,17.8a30.412,30.412,0,0,1,18.1-7.035Z" transform="translate(-37.7 -140.507)" fill="#174679"/>
          <path id="Pfad_230" data-name="Pfad 230" d="M135.518,244.8H106.711V218.112H88.881V244.8h-28.8l-.4-1.564c-4.373-17.113-4.3-34.442-2.558-49.273l-.907-.778a28.559,28.559,0,0,0-16.75-6.534h-2.1l.017-2.1c.121-10.467,5.047-23.984,15.773-30.6A42.168,42.168,0,0,1,68.4,148.443c1.694-4.434,2.878-6.957,2.93-7.07l.562-1.193h51.822l.562,1.193c.052.112,1.227,2.627,2.921,7.053a42.469,42.469,0,0,1,15.324,5.531c10.726,6.612,15.652,20.129,15.773,30.6l.026,2.109h-2.109a28.5,28.5,0,0,0-16.741,6.525l-.985.838c1.737,14.84,1.8,32.134-2.567,49.2l-.4,1.564Zm-24.658-4.149h21.417c5.877-24.589,2.463-49.584-1.5-66.368l3.95-1.245a112.741,112.741,0,0,1,4.356,14.131c.078.3.156.614.233.908a33.142,33.142,0,0,1,14.736-5.428c-.657-8.781-5.039-19.818-13.716-25.159a38.662,38.662,0,0,0-14.952-5.143l-1.219-.173-.432-1.149c-1.167-3.1-2.126-5.4-2.688-6.69h-46.5c-.562,1.3-1.53,3.6-2.7,6.707l-.432,1.149-1.219.173A38.71,38.71,0,0,0,55.338,157.5c-8.677,5.35-13.059,16.387-13.716,25.159a33.106,33.106,0,0,1,14.736,5.428c.078-.311.156-.622.242-.933a112.56,112.56,0,0,1,4.149-13.6l3.95,1.219c-3.881,16.663-7.217,41.477-1.383,65.884H84.733V213.964H110.86Z" transform="translate(-37.37 -140.18)" fill="#231f20"/>
        </g>
        <g id="Gruppe_133" data-name="Gruppe 133" transform="translate(27.157 159.641)">
          <path id="Pfad_231" data-name="Pfad 231" d="M33.914,197.705a12.186,12.186,0,1,0,10.5-10.5A12.186,12.186,0,0,0,33.914,197.705Z" transform="translate(-31.746 -185.034)" fill="#be202e"/>
          <path id="Pfad_232" data-name="Pfad 232" d="M45.681,213.223h0a14.274,14.274,0,1,1,1.841-.121,14.711,14.711,0,0,1-1.841.112Zm0-24.364a9.707,9.707,0,0,0-1.322.086,10.167,10.167,0,0,0-8.7,8.7,10.038,10.038,0,0,0,2.437,8,10.15,10.15,0,0,0,7.588,3.431h0A9.712,9.712,0,0,0,47,209a10.112,10.112,0,0,0-1.322-20.138Z" transform="translate(-31.421 -184.709)" fill="#231f20"/>
        </g>
        <g id="Gruppe_134" data-name="Gruppe 134" transform="translate(19.507)">
          <path id="Pfad_233" data-name="Pfad 233" d="M118.321,3.532C112.444,3.091,106.2,2.7,99.8,2.521,82.307,2,63.673,2.97,48.34,8.458c-13.007,4.65-23.37,14.1-23.37,28.746v71.554a26.552,26.552,0,0,0,26.551,26.551h88.088a26.552,26.552,0,0,0,26.551-26.551V37.2c0-25.609-27.13-32.117-47.838-33.664Z" transform="translate(-22.896 -0.325)" fill="#ebb887"/>
          <path id="Pfad_234" data-name="Pfad 234" d="M139.283,137.058H51.2A28.66,28.66,0,0,1,22.57,108.433V36.87c0-13.88,9.023-25.073,24.744-30.7C58.948,2.022,73.4,0,91.505,0c2.567,0,5.272.043,8.038.121,5.583.164,11.495.493,18.608,1.02C150.7,3.569,167.908,15.92,167.908,36.87v71.563a28.66,28.66,0,0,1-28.625,28.625ZM91.505,4.149c-17.623,0-31.615,1.945-42.791,5.938-8.211,2.939-22,10.32-22,26.793v71.554A24.505,24.505,0,0,0,51.2,132.91h88.088a24.505,24.505,0,0,0,24.477-24.477V36.87c0-18.694-15.453-29.325-45.919-31.6-7.053-.527-12.912-.847-18.427-1.011-2.722-.078-5.384-.121-7.908-.121Z" transform="translate(-22.57 0)" fill="#231f20"/>
          <path id="Pfad_235" data-name="Pfad 235" d="M118.8,7.491c-7.113-.527-13.033-.856-18.608-1.02-2.766-.078-5.462-.121-8.038-.121-18.107,0-32.558,2.022-44.182,6.18A45.479,45.479,0,0,0,35,19.556,24.633,24.633,0,0,0,27.38,37.732v71.45H164.412V37.732c0-7.338-2.394-13.431-7.13-18.262-8.358-6.638-21.27-10.7-38.487-11.979Z" transform="translate(-23.223 -0.862)" fill="#d69576"/>
        </g>
        <g id="Gruppe_135" data-name="Gruppe 135" transform="translate(19.507)">
          <path id="Pfad_236" data-name="Pfad 236" d="M118.321,3.532C112.444,3.091,106.2,2.7,99.8,2.521,82.307,2,63.673,2.97,48.34,8.458c-13.007,4.65-23.37,14.1-23.37,28.746v63.879H166.159V37.2c0-25.609-27.13-32.117-47.838-33.664Z" transform="translate(-22.896 -0.325)" fill="#174679"/>
          <path id="Pfad_237" data-name="Pfad 237" d="M167.908,102.832H22.57V36.87c0-13.88,9.023-25.073,24.744-30.7C58.948,2.022,73.4,0,91.505,0c2.567,0,5.272.043,8.038.121,5.583.164,11.495.493,18.608,1.02C150.7,3.569,167.908,15.92,167.908,36.87ZM26.719,98.684H163.759V36.87c0-18.694-15.453-29.325-45.919-31.6-7.053-.527-12.912-.847-18.427-1.011-2.722-.078-5.384-.121-7.908-.121-17.623,0-31.615,1.945-42.791,5.938-8.211,2.939-22,10.32-22,26.793V98.684Z" transform="translate(-22.57 0)" fill="#231f20"/>
        </g>
        <g id="Gruppe_136" data-name="Gruppe 136" transform="translate(50.699 70.612)">
          <circle id="Ellipse_48" data-name="Ellipse 48" cx="10.371" cy="10.371" r="10.371" fill="#231f20"/>
          <circle id="Ellipse_49" data-name="Ellipse 49" cx="10.371" cy="10.371" r="10.371" transform="translate(62.22)" fill="#231f20"/>
          <circle id="Ellipse_50" data-name="Ellipse 50" cx="2.8" cy="2.8" r="2.8" transform="translate(4.762 4.434)" fill="#fff"/>
          <circle id="Ellipse_51" data-name="Ellipse 51" cx="2.8" cy="2.8" r="2.8" transform="translate(67.44 4.434)" fill="#fff"/>
        </g>
        <path id="Pfad_238" data-name="Pfad 238" d="M119.773,126.06a31.347,31.347,0,0,1-3.915,4.3,39.982,39.982,0,0,1-4.633,3.734c-.449.32-.916.622-1.417.916-.484.3-1,.6-1.538.864a7.518,7.518,0,0,1-.838.4c-.3.13-.57.259-.9.372l-1.02.311c-.19.043-.423.069-.64.1l-.328.043-.164.017h-.121l-.017.017c-.112,0,.216.017-.251-.009-.285-.043-.545-.069-.856-.121-.406-.1-.812-.216-1.21-.337a9.684,9.684,0,0,1-.925-.38c-.294-.13-.579-.259-.838-.406a15.568,15.568,0,0,1-1.547-.864c-.493-.294-.968-.6-1.417-.916a39.975,39.975,0,0,1-4.633-3.734,31.346,31.346,0,0,1-3.915-4.3s.562.2,1.5.6,2.247.977,3.786,1.72c1.5.743,3.258,1.608,5.134,2.541.916.458,1.876.907,2.809,1.314a6.4,6.4,0,0,0,.691.277c.216.069.484.19.648.242a2.365,2.365,0,0,1,.415.147c.242.043.553.069.821.1-.449-.026-.121,0-.225-.017h.043l.043-.017.1-.017a1.864,1.864,0,0,0,.2-.017l.6-.173c.432-.173.9-.3,1.366-.527.933-.4,1.884-.856,2.809-1.305,1.876-.933,3.63-1.8,5.134-2.541,1.53-.743,2.843-1.331,3.777-1.72s1.5-.6,1.5-.6Z" transform="translate(-12.031 -17.108)" fill="#231f20"/>
        <g id="Gruppe_137" data-name="Gruppe 137" transform="translate(0 5.488)">
          <path id="Pfad_239" data-name="Pfad 239" d="M37.489,19.571,10.817,9.174a6.19,6.19,0,0,0-8,3.509h0a6.19,6.19,0,0,0,3.509,8l26.663,10.4A6.179,6.179,0,1,0,37.48,19.571Z" transform="translate(-0.324 -6.676)" fill="#fff"/>
          <path id="Pfad_240" data-name="Pfad 240" d="M34.917,33.255h0a8.315,8.315,0,0,1-3-.562L5.255,22.3a8.256,8.256,0,0,1,6-15.384l26.663,10.4a8.257,8.257,0,0,1-3.008,15.946ZM8.254,10.5a4.108,4.108,0,0,0-1.5,7.934l26.663,10.4a3.988,3.988,0,0,0,1.487.285,4.109,4.109,0,0,0,1.5-7.934L9.74,10.784A4.021,4.021,0,0,0,8.254,10.5Z" transform="translate(0.001 -6.35)" fill="#231f20"/>
        </g>
        <g id="Gruppe_138" data-name="Gruppe 138" transform="translate(143.957 5.488)">
          <path id="Pfad_241" data-name="Pfad 241" d="M172.9,19.571l26.663-10.4a6.19,6.19,0,0,1,8,3.509h0a6.19,6.19,0,0,1-3.509,8L177.4,31.083A6.179,6.179,0,1,1,172.9,19.571Z" transform="translate(-166.889 -6.676)" fill="#fff"/>
          <path id="Pfad_242" data-name="Pfad 242" d="M174.823,33.255a8.256,8.256,0,0,1-3.008-15.946l26.663-10.4A8.258,8.258,0,0,1,204.485,22.3l-26.663,10.4A8.28,8.28,0,0,1,174.823,33.255ZM201.486,10.5a3.988,3.988,0,0,0-1.487.285l-26.663,10.4a4.108,4.108,0,0,0,1.5,7.934,3.988,3.988,0,0,0,1.487-.285l26.663-10.4a4.108,4.108,0,0,0-1.5-7.934Z" transform="translate(-166.562 -6.35)" fill="#231f20"/>
        </g>
        <g id="Gruppe_139" data-name="Gruppe 139" transform="translate(41.305 202.813)">
          <path id="Pfad_243" data-name="Pfad 243" d="M60.4,242.2H57.035a6.844,6.844,0,0,0-6.845,6.845h0a6.844,6.844,0,0,0,6.845,6.845H88.452V237.07H60.414c.147,1.772-.242,3.5-.017,5.134Z" transform="translate(-48.116 -234.987)" fill="#be202e"/>
          <path id="Pfad_244" data-name="Pfad 244" d="M90.2,257.624H56.709a8.915,8.915,0,1,1,0-17.83h1.245c.009-.242.026-.475.043-.717a15.273,15.273,0,0,0,.026-2.169l-.19-2.247H90.209v22.964ZM56.709,243.942a4.771,4.771,0,0,0,0,9.542H86.052V238.817h-23.9l-.026.519a11.536,11.536,0,0,0,0,2.256l.328,2.359H56.709Z" transform="translate(-47.79 -234.66)" fill="#231f20"/>
        </g>
        <g id="Gruppe_140" data-name="Gruppe 140" transform="translate(101.701 202.813)">
          <path id="Pfad_245" data-name="Pfad 245" d="M151.841,242.194h-3.362c.225-1.633-.519-3.353-.363-5.134H120.07v18.815h31.771a6.844,6.844,0,0,0,6.845-6.845h0a6.844,6.844,0,0,0-6.845-6.845Z" transform="translate(-117.996 -234.986)" fill="#be202e"/>
          <path id="Pfad_246" data-name="Pfad 246" d="M151.515,257.624H117.67V234.66h32.376l-.19,2.247a8.7,8.7,0,0,0,.182,2.04c.043.268.086.553.13.847h1.357a8.919,8.919,0,1,1,0,17.839Zm-29.7-4.149h29.7a4.767,4.767,0,1,0,0-9.533h-5.747l.328-2.359a7.526,7.526,0,0,0-.156-1.971c-.043-.259-.086-.527-.121-.8H121.827v14.667Z" transform="translate(-117.67 -234.66)" fill="#231f20"/>
        </g>
        <g id="Gruppe_141" data-name="Gruppe 141" transform="translate(52.143 162.33)">
          <path id="Pfad_247" data-name="Pfad 247" d="M139.688,203.888c-35.245,7.9-76.748,0-76.748,0l1.279-13.128s40.12,7.64,74.19,0Z" transform="translate(-60.684 -188.219)" fill="#fff"/>
          <path id="Pfad_248" data-name="Pfad 248" d="M103.769,209.073a250.124,250.124,0,0,1-41.581-3.552l-1.858-.354,1.685-17.277,2.23.424a237.161,237.161,0,0,0,39.429,3.362A156.437,156.437,0,0,0,137.6,188.33l2.29-.51,1.685,17.294-1.789.4A165.836,165.836,0,0,1,103.769,209.073Zm-38.936-7.3a251.043,251.043,0,0,0,38.936,3.155,165.241,165.241,0,0,0,33.318-3.077l-.873-8.98a164.479,164.479,0,0,1-32.532,2.956,247.367,247.367,0,0,1-37.968-3.051l-.882,9Z" transform="translate(-60.33 -187.82)" fill="#231f20"/>
        </g>
        <g id="Gruppe_142" data-name="Gruppe 142" transform="translate(66.542 168.648)">
          <path id="Pfad_249" data-name="Pfad 249" d="M77.872,195.139l-.882,9.014c2.93.346,6.309.691,10.017.985l.882-9.04c-3.7-.285-7.079-.622-10.017-.968Z" transform="translate(-76.99 -195.13)" fill="#be202e"/>
          <path id="Pfad_250" data-name="Pfad 250" d="M134.867,195.55q-4.849.609-10.017.942l.882,9.058c3.457-.233,6.785-.562,10.017-.977Z" transform="translate(-83.485 -195.187)" fill="#be202e"/>
          <path id="Pfad_251" data-name="Pfad 251" d="M109.157,197.057q-4.071,0-7.925-.147l-.5,9.084c2.757.1,5.609.164,8.531.164.519,0,1.028-.009,1.547-.017l.51-9.11c-.717,0-1.426.026-2.143.026Z" transform="translate(-80.212 -195.372)" fill="#be202e"/>
        </g>
        <g id="Gruppe_143" data-name="Gruppe 143" transform="translate(86.133 108.052)">
          <ellipse id="Ellipse_52" data-name="Ellipse 52" cx="40.068" cy="40.276" rx="40.068" ry="40.276" transform="translate(0 56.665) rotate(-45)" fill="#be202e"/>
          <path id="Pfad_252" data-name="Pfad 252" d="M158.766,226.378h0a42.265,42.265,0,0,1-5.48-84.173,43.3,43.3,0,0,1,5.48-.346,42.265,42.265,0,0,1,5.48,84.173A43.282,43.282,0,0,1,158.766,226.378Zm0-80.37a39.927,39.927,0,0,0-4.961.311,38.333,38.333,0,0,0-32.834,32.834,38.137,38.137,0,0,0,37.8,43.076h0a39.926,39.926,0,0,0,4.961-.311,38.332,38.332,0,0,0,32.834-32.834,38.125,38.125,0,0,0-37.8-43.076Z" transform="translate(-101.946 -127.305)" fill="#231f20"/>
        </g>
        <path id="Pfad_253" data-name="Pfad 253" d="M157.167,157.853a28.647,28.647,0,1,0,32.125,32.125A28.709,28.709,0,0,0,157.167,157.853ZM182.1,189.036a21.391,21.391,0,1,1-23.992-23.992A21.429,21.429,0,0,1,182.1,189.036Z" transform="translate(-17.948 -21.391)" fill="#fff"/>
        <ellipse id="Ellipse_53" data-name="Ellipse 53" cx="17.329" cy="17.424" rx="17.329" ry="17.424" transform="translate(118.366 164.805) rotate(-44.99)" fill="#174679"/>
      </g>
    </g>
    <g id="Ebene_1-2-3" data-name="Ebene_1-2" transform="translate(1127.077 369.994)">
      <g id="Gruppe_162" data-name="Gruppe 162" transform="translate(0 0)">
        <circle id="Ellipse_56" data-name="Ellipse 56" cx="21.47" cy="21.47" r="21.47" fill="#b28a24"/>
        <circle id="Ellipse_57" data-name="Ellipse 57" cx="18.462" cy="18.462" r="18.462" transform="translate(3.008 3.008)" fill="url(#linear-gradient)"/>
        <path id="Pfad_278" data-name="Pfad 278" d="M35.942,143.246c-10.076,0-18.263-7.447-18.454-17.478,0,.119-.009-.391-.009-.27a18.462,18.462,0,1,0,36.925,0c0-.12-.007.268-.009.15C54.205,135.678,46.02,143.246,35.942,143.246Z" transform="translate(-14.472 -103.884)" fill="#f4db94"/>
        <path id="Pfad_279" data-name="Pfad 279" d="M35.928,14.774A18.478,18.478,0,0,1,54.38,32.9c0-.119.01-.262.01-.38a18.463,18.463,0,0,0-36.925-.176c0,.12-.012.721-.009.841A18.74,18.74,0,0,1,35.93,14.776Z" transform="translate(-14.453 -11.641)" fill="#4f3e19"/>
        <text id="_1" data-name="1" transform="translate(16.011 28.676)" fill="#b28a24" font-size="21" font-family="SegoeUI, Segoe UI"><tspan x="0" y="0">1</tspan></text>
      </g>
    </g>
    <g id="Ebene_1-2-4" data-name="Ebene_1-2" transform="translate(1127.077 613.724)">
      <g id="Gruppe_162-2" data-name="Gruppe 162" transform="translate(0 0)">
        <circle id="Ellipse_56-2" data-name="Ellipse 56" cx="21.47" cy="21.47" r="21.47" fill="#b28a24"/>
        <circle id="Ellipse_57-2" data-name="Ellipse 57" cx="18.462" cy="18.462" r="18.462" transform="translate(3.008 3.008)" fill="url(#linear-gradient)"/>
        <path id="Pfad_278-2" data-name="Pfad 278" d="M35.942,143.246c-10.076,0-18.263-7.447-18.454-17.478,0,.119-.009-.391-.009-.27a18.462,18.462,0,1,0,36.925,0c0-.12-.007.268-.009.15C54.205,135.678,46.02,143.246,35.942,143.246Z" transform="translate(-14.472 -103.884)" fill="#f4db94"/>
        <path id="Pfad_279-2" data-name="Pfad 279" d="M35.928,14.774A18.478,18.478,0,0,1,54.38,32.9c0-.119.01-.262.01-.38a18.463,18.463,0,0,0-36.925-.176c0,.12-.012.721-.009.841A18.74,18.74,0,0,1,35.93,14.776Z" transform="translate(-14.453 -11.641)" fill="#4f3e19"/>
        <text id="_1-2" data-name="1" transform="translate(16.011 28.676)" fill="#b28a24" font-size="21" font-family="SegoeUI, Segoe UI"><tspan x="0" y="0">1</tspan></text>
      </g>
    </g>
    <g id="Ebene_1-2-5" data-name="Ebene_1-2" transform="translate(1045.78 545.264)">
      <g id="Gruppe_162-3" data-name="Gruppe 162" transform="translate(0 0)">
        <circle id="Ellipse_56-3" data-name="Ellipse 56" cx="21.47" cy="21.47" r="21.47" fill="#b28a24"/>
        <circle id="Ellipse_57-3" data-name="Ellipse 57" cx="18.462" cy="18.462" r="18.462" transform="translate(3.008 3.008)" fill="url(#linear-gradient)"/>
        <path id="Pfad_278-3" data-name="Pfad 278" d="M35.942,143.246c-10.076,0-18.263-7.447-18.454-17.478,0,.119-.009-.391-.009-.27a18.462,18.462,0,1,0,36.925,0c0-.12-.007.268-.009.15C54.205,135.678,46.02,143.246,35.942,143.246Z" transform="translate(-14.472 -103.884)" fill="#f4db94"/>
        <path id="Pfad_279-3" data-name="Pfad 279" d="M35.928,14.774A18.478,18.478,0,0,1,54.38,32.9c0-.119.01-.262.01-.38a18.463,18.463,0,0,0-36.925-.176c0,.12-.012.721-.009.841A18.74,18.74,0,0,1,35.93,14.776Z" transform="translate(-14.453 -11.641)" fill="#4f3e19"/>
        <text id="_1-3" data-name="1" transform="translate(16.011 28.676)" fill="#b28a24" font-size="21" font-family="SegoeUI, Segoe UI"><tspan x="0" y="0">1</tspan></text>
      </g>
    </g>
    <g id="Ebene_1-2-6" data-name="Ebene_1-2" transform="translate(648.518 531.205)">
      <g id="Gruppe_162-4" data-name="Gruppe 162" transform="translate(0 0)">
        <circle id="Ellipse_56-4" data-name="Ellipse 56" cx="21.47" cy="21.47" r="21.47" fill="#b28a24"/>
        <circle id="Ellipse_57-4" data-name="Ellipse 57" cx="18.462" cy="18.462" r="18.462" transform="translate(3.008 3.008)" fill="url(#linear-gradient)"/>
        <path id="Pfad_278-4" data-name="Pfad 278" d="M35.942,143.246c-10.076,0-18.263-7.447-18.454-17.478,0,.119-.009-.391-.009-.27a18.462,18.462,0,1,0,36.925,0c0-.12-.007.268-.009.15C54.205,135.678,46.02,143.246,35.942,143.246Z" transform="translate(-14.472 -103.884)" fill="#f4db94"/>
        <path id="Pfad_279-4" data-name="Pfad 279" d="M35.928,14.774A18.478,18.478,0,0,1,54.38,32.9c0-.119.01-.262.01-.38a18.463,18.463,0,0,0-36.925-.176c0,.12-.012.721-.009.841A18.74,18.74,0,0,1,35.93,14.776Z" transform="translate(-14.453 -11.641)" fill="#4f3e19"/>
        <text id="_1-4" data-name="1" transform="translate(16.011 28.676)" fill="#b28a24" font-size="21" font-family="SegoeUI, Segoe UI"><tspan x="0" y="0">1</tspan></text>
      </g>
    </g>
    <g id="Ebene_1-2-7" data-name="Ebene_1-2" transform="translate(648.518 359.91)">
      <g id="Gruppe_162-5" data-name="Gruppe 162" transform="translate(0 0)">
        <circle id="Ellipse_56-5" data-name="Ellipse 56" cx="21.47" cy="21.47" r="21.47" fill="#b28a24"/>
        <circle id="Ellipse_57-5" data-name="Ellipse 57" cx="18.462" cy="18.462" r="18.462" transform="translate(3.008 3.008)" fill="url(#linear-gradient)"/>
        <path id="Pfad_278-5" data-name="Pfad 278" d="M35.942,143.246c-10.076,0-18.263-7.447-18.454-17.478,0,.119-.009-.391-.009-.27a18.462,18.462,0,1,0,36.925,0c0-.12-.007.268-.009.15C54.205,135.678,46.02,143.246,35.942,143.246Z" transform="translate(-14.472 -103.884)" fill="#f4db94"/>
        <path id="Pfad_279-5" data-name="Pfad 279" d="M35.928,14.774A18.478,18.478,0,0,1,54.38,32.9c0-.119.01-.262.01-.38a18.463,18.463,0,0,0-36.925-.176c0,.12-.012.721-.009.841A18.74,18.74,0,0,1,35.93,14.776Z" transform="translate(-14.453 -11.641)" fill="#4f3e19"/>
        <text id="_1-5" data-name="1" transform="translate(16.011 28.676)" fill="#b28a24" font-size="21" font-family="SegoeUI, Segoe UI"><tspan x="0" y="0">1</tspan></text>
      </g>
    </g>
    <g id="Ebene_1-2-8" data-name="Ebene_1-2" transform="translate(885.457 231.028)">
      <g id="Gruppe_162-6" data-name="Gruppe 162" transform="translate(0 0)">
        <circle id="Ellipse_56-6" data-name="Ellipse 56" cx="21.47" cy="21.47" r="21.47" fill="#b28a24"/>
        <circle id="Ellipse_57-6" data-name="Ellipse 57" cx="18.462" cy="18.462" r="18.462" transform="translate(3.008 3.008)" fill="url(#linear-gradient)"/>
        <path id="Pfad_278-6" data-name="Pfad 278" d="M35.942,143.246c-10.076,0-18.263-7.447-18.454-17.478,0,.119-.009-.391-.009-.27a18.462,18.462,0,1,0,36.925,0c0-.12-.007.268-.009.15C54.205,135.678,46.02,143.246,35.942,143.246Z" transform="translate(-14.472 -103.884)" fill="#f4db94"/>
        <path id="Pfad_279-6" data-name="Pfad 279" d="M35.928,14.774A18.478,18.478,0,0,1,54.38,32.9c0-.119.01-.262.01-.38a18.463,18.463,0,0,0-36.925-.176c0,.12-.012.721-.009.841A18.74,18.74,0,0,1,35.93,14.776Z" transform="translate(-14.453 -11.641)" fill="#4f3e19"/>
        <text id="_1-6" data-name="1" transform="translate(16.011 28.676)" fill="#b28a24" font-size="21" font-family="SegoeUI, Segoe UI"><tspan x="0" y="0">1</tspan></text>
      </g>
    </g>
    <g id="Ebene_1-2-9" data-name="Ebene_1-2" transform="translate(971.801 619.039)">
      <g id="Gruppe_162-7" data-name="Gruppe 162" transform="translate(0 0)">
        <circle id="Ellipse_56-7" data-name="Ellipse 56" cx="21.47" cy="21.47" r="21.47" fill="#b28a24"/>
        <circle id="Ellipse_57-7" data-name="Ellipse 57" cx="18.462" cy="18.462" r="18.462" transform="translate(3.008 3.008)" fill="url(#linear-gradient)"/>
        <path id="Pfad_278-7" data-name="Pfad 278" d="M35.942,143.246c-10.076,0-18.263-7.447-18.454-17.478,0,.119-.009-.391-.009-.27a18.462,18.462,0,1,0,36.925,0c0-.12-.007.268-.009.15C54.205,135.678,46.02,143.246,35.942,143.246Z" transform="translate(-14.472 -103.884)" fill="#f4db94"/>
        <path id="Pfad_279-7" data-name="Pfad 279" d="M35.928,14.774A18.478,18.478,0,0,1,54.38,32.9c0-.119.01-.262.01-.38a18.463,18.463,0,0,0-36.925-.176c0,.12-.012.721-.009.841A18.74,18.74,0,0,1,35.93,14.776Z" transform="translate(-14.453 -11.641)" fill="#4f3e19"/>
        <text id="_1-7" data-name="1" transform="translate(16.011 28.676)" fill="#b28a24" font-size="21" font-family="SegoeUI, Segoe UI"><tspan x="0" y="0">1</tspan></text>
      </g>
    </g>
    <g id="Ebene_1-2-10" data-name="Ebene_1-2" transform="translate(705.356 565.468)">
      <g id="Gruppe_169" data-name="Gruppe 169" transform="translate(0 0)">
        <g id="Gruppe_164" data-name="Gruppe 164" transform="translate(11.021 23.774)">
          <path id="Pfad_280" data-name="Pfad 280" d="M94.771,59.01h-39.9L26.66,80.258V110.3l28.214,21.248h39.9l28.21-21.248V80.258Z" transform="translate(-26.66 -59.01)" fill="#404040" stroke="#000" stroke-miterlimit="10" stroke-width="3"/>
          <g id="Gruppe_163" data-name="Gruppe 163" transform="translate(0.422 42.253)">
            <rect id="Rechteck_183" data-name="Rechteck 183" width="39.467" height="9.235" transform="translate(27.974 21.248)" fill="none" stroke="#000" stroke-miterlimit="10" stroke-width="1"/>
            <path id="Pfad_281" data-name="Pfad 281" d="M190.95,191.762,218.837,170.5l.124-9.177L190.83,182.527" transform="translate(-123.385 -161.279)" fill="none" stroke="#000" stroke-miterlimit="10" stroke-width="1"/>
            <path id="Pfad_282" data-name="Pfad 282" d="M55.654,182.469,27.68,161.22l.066,8.913L55.654,191.7" transform="translate(-27.68 -161.22)" fill="none" stroke="#000" stroke-miterlimit="10" stroke-width="1"/>
          </g>
        </g>
        <path id="Pfad_283" data-name="Pfad 283" d="M106.175,46.07h-31.8L51.88,63.011V86.963L74.373,103.9h31.8l22.493-16.941V63.011Z" transform="translate(-30.433 -27.645)" fill="#333"/>
        <path id="Pfad_284" data-name="Pfad 284" d="M48.45,139.847l-2.41-1.918V111.98h2.414Z" transform="translate(-27.007 -66.308)"/>
        <path id="Pfad_285" data-name="Pfad 285" d="M236.724,138.861l2.41-1.3V111.61H236.72Z" transform="translate(-138.861 -66.091)"/>
        <g id="Gruppe_166" data-name="Gruppe 166" transform="translate(17.714)">
          <path id="Pfad_286" data-name="Pfad 286" d="M101.862,1.5H67.294L42.85,19.908V45.944L67.294,64.357h34.568l24.444-18.413V19.908Z" transform="translate(-42.85 -1.5)" fill="#404040" stroke="#000" stroke-miterlimit="10" stroke-width="3"/>
          <g id="Gruppe_165" data-name="Gruppe 165" transform="translate(0.368 36.61)">
            <rect id="Rechteck_184" data-name="Rechteck 184" width="34.196" height="8.003" transform="translate(24.237 18.413)" fill="none" stroke="#000" stroke-miterlimit="10" stroke-width="1"/>
            <path id="Pfad_287" data-name="Pfad 287" d="M185.2,116.525,209.366,98.1l.107-7.95L185.1,108.525" transform="translate(-126.663 -90.113)" fill="none" stroke="#000" stroke-miterlimit="10" stroke-width="1"/>
            <path id="Pfad_288" data-name="Pfad 288" d="M67.977,108.473,43.74,90.06l.054,7.722,24.184,18.69" transform="translate(-43.74 -90.06)" fill="none" stroke="#000" stroke-miterlimit="10" stroke-width="1"/>
          </g>
        </g>
        <g id="Gruppe_167" data-name="Gruppe 167" transform="translate(0 53.299)">
          <path id="Pfad_289" data-name="Pfad 289" d="M17.355,185.13l-1.145-.38v1Z" transform="translate(-9.509 -162.294)" fill="#020304"/>
          <path id="Pfad_290" data-name="Pfad 290" d="M17.355,165.16l-1.145-.38v1Z" transform="translate(-9.509 -150.58)" fill="#020304"/>
          <path id="Pfad_291" data-name="Pfad 291" d="M17.355,175.144l-1.145-.384v1Z" transform="translate(-9.509 -156.434)" fill="#020304"/>
          <path id="Pfad_292" data-name="Pfad 292" d="M16.21,143.152l2.828.943v-.934l-2.509-.881-.318.174Z" transform="translate(-9.509 -137.381)" fill="#020304"/>
          <path id="Pfad_293" data-name="Pfad 293" d="M17.355,170.15l-1.145-.38v1Z" transform="translate(-9.509 -153.507)" fill="#020304"/>
          <path id="Pfad_294" data-name="Pfad 294" d="M17.355,160.16l-1.145-.38v1Z" transform="translate(-9.509 -147.647)" fill="#020304"/>
          <path id="Pfad_295" data-name="Pfad 295" d="M18.31,140.91l-.86.463,2.315.81V141.4h0Z" transform="translate(-10.236 -136.578)" fill="#020304"/>
          <path id="Pfad_296" data-name="Pfad 296" d="M16.21,140.806l1.145-.616-1.145-.38Z" transform="translate(-9.509 -135.932)" fill="#020304"/>
          <path id="Pfad_297" data-name="Pfad 297" d="M17.355,145.18l-1.145-.38v1Z" transform="translate(-9.509 -138.859)" fill="#020304"/>
          <path id="Pfad_298" data-name="Pfad 298" d="M17.355,150.174l-1.145-.384v1Z" transform="translate(-9.509 -141.787)" fill="#020304"/>
          <path id="Pfad_299" data-name="Pfad 299" d="M17.355,155.17l-1.145-.38v1Z" transform="translate(-9.509 -144.72)" fill="#020304"/>
          <path id="Pfad_300" data-name="Pfad 300" d="M17.355,180.14l-1.145-.38v1Z" transform="translate(-9.509 -159.367)" fill="#020304"/>
          <path id="Pfad_301" data-name="Pfad 301" d="M19.765,196.328h0l-1.455-.488-.86.463,2.315.81Z" transform="translate(-10.236 -168.8)" fill="#020304"/>
          <path id="Pfad_302" data-name="Pfad 302" d="M19.038,198.1l-2.509-.876-.318.169v.889h2.828Z" transform="translate(-9.509 -169.609)" fill="#020304"/>
          <path id="Pfad_303" data-name="Pfad 303" d="M16.21,133.168l2.828.943v-.934l-2.509-.876-.318.169Z" transform="translate(-9.509 -131.527)" fill="#020304"/>
          <path id="Pfad_304" data-name="Pfad 304" d="M17.33,130.78H16.21v.6Z" transform="translate(-9.509 -130.635)" fill="#020304"/>
          <path id="Pfad_305" data-name="Pfad 305" d="M21.449,131.152v-.372H20.32Z" transform="translate(-11.92 -130.635)" fill="#020304"/>
          <path id="Pfad_306" data-name="Pfad 306" d="M16.21,194.74v1l1.145-.616Z" transform="translate(-9.509 -168.155)" fill="#020304"/>
          <path id="Pfad_307" data-name="Pfad 307" d="M19.765,191.334h0l-1.455-.484-.86.463,2.315.806Z" transform="translate(-10.236 -165.873)" fill="#020304"/>
          <path id="Pfad_308" data-name="Pfad 308" d="M18.31,135.92l-.86.463,2.315.806V136.4h0Z" transform="translate(-10.236 -133.65)" fill="#020304"/>
          <path id="Pfad_309" data-name="Pfad 309" d="M16.21,135.81l1.145-.616-1.145-.384Z" transform="translate(-9.509 -132.999)" fill="#020304"/>
          <path id="Pfad_310" data-name="Pfad 310" d="M17.355,190.124l-1.145-.384v1Z" transform="translate(-9.509 -165.221)" fill="#020304"/>
          <path id="Pfad_311" data-name="Pfad 311" d="M16.21,178.108l2.828.943v-.934l-2.509-.876-.318.17Z" transform="translate(-9.509 -157.889)" fill="#020304"/>
          <path id="Pfad_312" data-name="Pfad 312" d="M19.038,188.106l-2.509-.876-.318.169v.7l2.828.943Z" transform="translate(-9.509 -163.749)" fill="#020304"/>
          <path id="Pfad_313" data-name="Pfad 313" d="M19.765,186.338l-1.455-.488-.86.463,2.315.81v-.785Z" transform="translate(-10.236 -162.94)" fill="#020304"/>
          <path id="Pfad_314" data-name="Pfad 314" d="M16.21,183.108l2.828.943v-.934l-2.509-.876-.318.169Z" transform="translate(-9.509 -160.822)" fill="#020304"/>
          <path id="Pfad_315" data-name="Pfad 315" d="M19.765,176.354l-1.455-.484-.86.463,2.315.806v-.785Z" transform="translate(-10.236 -157.085)" fill="#020304"/>
          <rect id="Rechteck_185" data-name="Rechteck 185" width="0.823" height="28.528" transform="translate(5.651 0.145)" fill="#020304"/>
          <path id="Pfad_316" data-name="Pfad 316" d="M16.21,173.118l2.828.943v-.934l-2.509-.876-.318.169Z" transform="translate(-9.509 -154.962)" fill="#020304"/>
          <path id="Pfad_317" data-name="Pfad 317" d="M19.765,132.193v-.785h0l-1.455-.488-.86.463Z" transform="translate(-10.236 -130.717)" fill="#020304"/>
          <path id="Pfad_318" data-name="Pfad 318" d="M1.137,130.575H.351l-.351.1v.967l.686-.2a.225.225,0,0,1,.045-.008.118.118,0,0,1,.1.045c.025.037,0,.083-.058.1L0,131.811v.761l.686-.2a.225.225,0,0,1,.045-.008.118.118,0,0,1,.1.045c.025.037,0,.083-.058.1L0,132.733v.967l.686-.2a.224.224,0,0,1,.045-.008.118.118,0,0,1,.1.045c.025.037,0,.083-.058.1L0,133.865v.761l.686-.2a.225.225,0,0,1,.045-.008.118.118,0,0,1,.1.045c.025.037,0,.083-.058.1L0,134.787v.967l.686-.2a.224.224,0,0,1,.045-.008.118.118,0,0,1,.1.045c.025.037,0,.083-.058.1L0,135.916v.761l.686-.2a.225.225,0,0,1,.045-.008.118.118,0,0,1,.1.045c.025.037,0,.083-.058.1L0,136.842v.967l.686-.2a.225.225,0,0,1,.045-.008.118.118,0,0,1,.1.045c.025.037,0,.083-.058.1L0,137.97v.761l.686-.2a.225.225,0,0,1,.045-.008.118.118,0,0,1,.1.045c.025.037,0,.083-.058.1L0,138.892v.967l.686-.2a.225.225,0,0,1,.045-.008.118.118,0,0,1,.1.045c.025.037,0,.083-.058.1L0,140.021v.761l.686-.2a.225.225,0,0,1,.045-.008.118.118,0,0,1,.1.045c.025.037,0,.083-.058.1L0,140.943v.967l.686-.2a.225.225,0,0,1,.045-.008.118.118,0,0,1,.1.045c.025.037,0,.083-.058.1L0,142.075v.761l.686-.2a.225.225,0,0,1,.045-.008.118.118,0,0,1,.1.045c.025.037,0,.083-.058.1L0,143v.967l.686-.2a.225.225,0,0,1,.045-.008.118.118,0,0,1,.1.045c.025.037,0,.083-.058.1L0,144.126v.761l.686-.2a.225.225,0,0,1,.045-.008.118.118,0,0,1,.1.046c.025.037,0,.083-.058.1L0,145.048v.967l.686-.2a.225.225,0,0,1,.045-.008.118.118,0,0,1,.1.045c.025.037,0,.083-.058.1L0,146.18v.761l.686-.2a.224.224,0,0,1,.045-.008.118.118,0,0,1,.1.046c.025.037,0,.083-.058.1L0,147.1v.967l.686-.2a.225.225,0,0,1,.045-.008.118.118,0,0,1,.1.045c.025.037,0,.083-.058.1L0,148.231v.761l.686-.2a.225.225,0,0,1,.045-.008.118.118,0,0,1,.1.045c.025.037,0,.083-.058.1L0,149.153v.967l.686-.2a.43.43,0,0,1,.045,0,.118.118,0,0,1,.1.045c.025.037,0,.083-.058.1L0,150.289v.761l.686-.2a.225.225,0,0,1,.045-.008.118.118,0,0,1,.1.045c.025.037,0,.083-.058.1L0,151.211v.967l.686-.2a.225.225,0,0,1,.045-.008.118.118,0,0,1,.1.045c.025.037,0,.083-.058.1L0,152.34v.761l.686-.2a.224.224,0,0,1,.045-.008.118.118,0,0,1,.1.045c.025.037,0,.083-.058.1L0,153.266v.967l.686-.2a.225.225,0,0,1,.045-.008.118.118,0,0,1,.1.045c.025.037,0,.083-.058.1L0,154.4v.761l.686-.2a.225.225,0,0,1,.045-.008.118.118,0,0,1,.1.045c.025.037,0,.083-.058.1L0,155.32v.967l.686-.2a.225.225,0,0,1,.045-.008.118.118,0,0,1,.1.045c.025.037,0,.083-.058.1L0,156.453v.761l.686-.2A.224.224,0,0,1,.732,157a.118.118,0,0,1,.1.045c.025.037,0,.083-.058.1L0,157.375v.967l.686-.2a.225.225,0,0,1,.045-.008.118.118,0,0,1,.1.045c.025.037,0,.083-.058.1L0,158.5v.451H1.137v-28.38Z" transform="translate(0 -130.43)" fill="#020304"/>
          <path id="Pfad_319" data-name="Pfad 319" d="M16.21,138.158l2.828.943v-.934l-2.509-.876-.318.174Z" transform="translate(-9.509 -134.454)" fill="#020304"/>
          <path id="Pfad_320" data-name="Pfad 320" d="M19.038,193.1l-2.509-.876-.318.174v.694l2.828.943Z" transform="translate(-9.509 -166.676)" fill="#020304"/>
          <path id="Pfad_321" data-name="Pfad 321" d="M19.765,171.358l-1.455-.488-.86.463,2.315.81v-.785Z" transform="translate(-10.236 -154.152)" fill="#020304"/>
          <path id="Pfad_322" data-name="Pfad 322" d="M16.21,158.138l2.828.943v-.934l-2.509-.876-.318.169Z" transform="translate(-9.509 -146.174)" fill="#020304"/>
          <path id="Pfad_323" data-name="Pfad 323" d="M19.765,156.378l-1.455-.488-.86.463,2.315.81v-.785Z" transform="translate(-10.236 -145.365)" fill="#020304"/>
          <path id="Pfad_324" data-name="Pfad 324" d="M16.21,153.138l2.828.943v-.934l-2.509-.876-.318.174Z" transform="translate(-9.509 -143.241)" fill="#020304"/>
          <path id="Pfad_325" data-name="Pfad 325" d="M19.765,146.394l-1.455-.484-.86.459,2.315.81v-.785Z" transform="translate(-10.236 -139.511)" fill="#020304"/>
          <path id="Pfad_326" data-name="Pfad 326" d="M19.765,151.384,18.31,150.9l-.86.463,2.315.806v-.785Z" transform="translate(-10.236 -142.438)" fill="#020304"/>
          <path id="Pfad_327" data-name="Pfad 327" d="M16.21,148.148l2.828.943v-.934l-2.509-.876-.318.169Z" transform="translate(-9.509 -140.314)" fill="#020304"/>
          <path id="Pfad_328" data-name="Pfad 328" d="M16.21,168.118l2.828.943v-.934l-2.509-.876-.318.174Z" transform="translate(-9.509 -152.029)" fill="#020304"/>
          <path id="Pfad_329" data-name="Pfad 329" d="M19.765,166.364l-1.455-.484-.86.463,2.315.81v-.79Z" transform="translate(-10.236 -151.225)" fill="#020304"/>
          <path id="Pfad_330" data-name="Pfad 330" d="M16.21,163.128l2.828.943v-.934l-2.509-.876-.318.169Z" transform="translate(-9.509 -149.102)" fill="#020304"/>
          <path id="Pfad_331" data-name="Pfad 331" d="M19.765,161.374l-1.455-.484-.86.459,2.315.81v-.785Z" transform="translate(-10.236 -148.298)" fill="#020304"/>
          <path id="Pfad_332" data-name="Pfad 332" d="M19.765,181.348l-1.455-.488-.86.463,2.315.81v-.785Z" transform="translate(-10.236 -160.012)" fill="#020304"/>
          <path id="Pfad_333" data-name="Pfad 333" d="M7.36,140.2l1.124.608v-.984Z" transform="translate(-4.317 -135.938)" fill="#020304"/>
          <path id="Pfad_334" data-name="Pfad 334" d="M7.36,155.176l1.124.608V154.8Z" transform="translate(-4.317 -144.725)" fill="#020304"/>
          <path id="Pfad_335" data-name="Pfad 335" d="M7.36,165.166l1.124.608v-.984Z" transform="translate(-4.317 -150.586)" fill="#020304"/>
          <path id="Pfad_336" data-name="Pfad 336" d="M7.36,150.186l1.124.6v-.98Z" transform="translate(-4.317 -141.798)" fill="#020304"/>
          <path id="Pfad_337" data-name="Pfad 337" d="M7.36,145.192l1.124.608v-.98Z" transform="translate(-4.317 -138.871)" fill="#020304"/>
          <path id="Pfad_338" data-name="Pfad 338" d="M7.36,160.172l1.124.608v-.98Z" transform="translate(-4.317 -147.659)" fill="#020304"/>
          <rect id="Rechteck_186" data-name="Rechteck 186" width="0.798" height="28.528" transform="translate(4.394 0.145)" fill="#020304"/>
          <path id="Pfad_339" data-name="Pfad 339" d="M4.755,190.85l-1.455.484h0v.785l2.311-.806Z" transform="translate(-1.936 -165.873)" fill="#020304"/>
          <path id="Pfad_340" data-name="Pfad 340" d="M7.36,185.142l1.124.608v-.98Z" transform="translate(-4.317 -162.306)" fill="#020304"/>
          <path id="Pfad_341" data-name="Pfad 341" d="M7.36,180.146l1.124.608v-.984Z" transform="translate(-4.317 -159.373)" fill="#020304"/>
          <path id="Pfad_342" data-name="Pfad 342" d="M7.36,175.156l1.124.6v-.98Z" transform="translate(-4.317 -156.446)" fill="#020304"/>
          <path id="Pfad_343" data-name="Pfad 343" d="M7.36,170.162l1.124.608v-.98Z" transform="translate(-4.317 -153.519)" fill="#020304"/>
          <path id="Pfad_344" data-name="Pfad 344" d="M6.1,197.377l-.3-.157L3.3,198.1v.182H6.1Z" transform="translate(-1.936 -169.609)" fill="#020304"/>
          <path id="Pfad_345" data-name="Pfad 345" d="M3.3,131.152l1.124-.372H3.3Z" transform="translate(-1.936 -130.635)" fill="#020304"/>
          <path id="Pfad_346" data-name="Pfad 346" d="M8.525,131.371v-.591H7.43Z" transform="translate(-4.358 -130.635)" fill="#020304"/>
          <path id="Pfad_347" data-name="Pfad 347" d="M3.3,131.408h0v.785l2.311-.81-.856-.463Z" transform="translate(-1.936 -130.717)" fill="#020304"/>
          <path id="Pfad_348" data-name="Pfad 348" d="M23.96,158.822c-.058-.017-.083-.062-.058-.1a.128.128,0,0,1,.1-.046.089.089,0,0,1,.045.008l.641.19v-.967l-.732-.215c-.058-.017-.083-.062-.058-.1a.128.128,0,0,1,.1-.045.089.089,0,0,1,.045.008l.641.19v-.761l-.732-.215c-.058-.017-.083-.062-.058-.1a.128.128,0,0,1,.1-.045.089.089,0,0,1,.045.008l.641.19v-.967l-.732-.215c-.058-.017-.083-.062-.058-.1a.128.128,0,0,1,.1-.045.089.089,0,0,1,.045.008l.641.19v-.761l-.732-.215c-.058-.017-.083-.062-.058-.1a.128.128,0,0,1,.1-.045.089.089,0,0,1,.045.008l.641.19V153.8l-.732-.215c-.058-.017-.083-.062-.058-.1a.128.128,0,0,1,.1-.045.089.089,0,0,1,.045.008l.641.19v-.761l-.732-.215c-.058-.017-.083-.062-.058-.1a.128.128,0,0,1,.1-.045.089.089,0,0,1,.045.008l.641.19v-.967l-.732-.215c-.058-.017-.083-.062-.058-.1a.128.128,0,0,1,.1-.045.089.089,0,0,1,.045.008l.641.19v-.761l-.732-.215c-.058-.017-.083-.062-.058-.1a.128.128,0,0,1,.1-.045.17.17,0,0,1,.045,0l.641.19v-.967l-.732-.215c-.058-.017-.083-.062-.058-.1a.128.128,0,0,1,.1-.045.089.089,0,0,1,.045.008l.641.19v-.761l-.732-.215c-.058-.017-.083-.062-.058-.1a.128.128,0,0,1,.1-.046.089.089,0,0,1,.045.008l.641.19v-.967l-.732-.215c-.058-.016-.083-.062-.058-.1a.128.128,0,0,1,.1-.045.089.089,0,0,1,.045.008l.641.19v-.761l-.732-.215c-.058-.017-.083-.062-.058-.1a.128.128,0,0,1,.1-.045.089.089,0,0,1,.045.008l.641.19v-.967l-.732-.215c-.058-.017-.083-.062-.058-.1a.128.128,0,0,1,.1-.045.089.089,0,0,1,.045.008l.641.19v-.761l-.732-.215c-.058-.017-.083-.062-.058-.1a.128.128,0,0,1,.1-.045.089.089,0,0,1,.045.008l.641.19v-.967l-.732-.215c-.058-.017-.083-.062-.058-.1a.128.128,0,0,1,.1-.045.089.089,0,0,1,.045.008l.641.19v-.761l-.732-.215c-.058-.017-.083-.062-.058-.1a.128.128,0,0,1,.1-.045.089.089,0,0,1,.045.008l.641.19v-.967l-.732-.215c-.058-.017-.083-.062-.058-.1a.128.128,0,0,1,.1-.045.089.089,0,0,1,.045.008l.641.19v-.761l-.732-.215c-.058-.017-.083-.062-.058-.1a.128.128,0,0,1,.1-.045.089.089,0,0,1,.045.008l.641.19v-.967l-.732-.215c-.058-.017-.083-.062-.058-.1a.128.128,0,0,1,.1-.046.089.089,0,0,1,.045.008l.641.19V138.5l-.732-.215c-.058-.017-.083-.062-.058-.1a.128.128,0,0,1,.1-.045.089.089,0,0,1,.045.008l.641.19v-.967l-.732-.215c-.058-.017-.083-.062-.058-.1a.128.128,0,0,1,.1-.045.089.089,0,0,1,.045.008l.641.19v-.761l-.732-.215c-.058-.017-.083-.062-.058-.1a.128.128,0,0,1,.1-.045.089.089,0,0,1,.045.008l.641.19v-.967l-.732-.215c-.058-.017-.083-.062-.058-.1a.128.128,0,0,1,.1-.046.089.089,0,0,1,.045.008l.641.19V134.4l-.732-.215c-.058-.017-.083-.062-.058-.1a.128.128,0,0,1,.1-.045.089.089,0,0,1,.045.008l.641.19v-.967l-.732-.215c-.058-.017-.083-.062-.058-.1a.128.128,0,0,1,.1-.045.089.089,0,0,1,.045.008l.641.19v-.761l-.732-.215c-.058-.017-.083-.062-.058-.1a.128.128,0,0,1,.1-.046.089.089,0,0,1,.045.008l.641.19v-.967l-.306-.091H23.6v28.528h1.091v-.463l-.732-.215Z" transform="translate(-13.844 -130.835)" fill="#020304"/>
          <path id="Pfad_349" data-name="Pfad 349" d="M3.3,136.4v.785l2.311-.806-.856-.463L3.3,136.4Z" transform="translate(-1.936 -133.65)" fill="#020304"/>
          <path id="Pfad_350" data-name="Pfad 350" d="M8.484,135.81v-.98l-1.124.376Z" transform="translate(-4.317 -133.011)" fill="#020304"/>
          <path id="Pfad_351" data-name="Pfad 351" d="M3.3,133.176v.934l2.8-.938v-.711l-.3-.161Z" transform="translate(-1.936 -131.527)" fill="#020304"/>
          <path id="Pfad_352" data-name="Pfad 352" d="M4.755,195.84l-1.455.488h0v.785l2.311-.81Z" transform="translate(-1.936 -168.8)" fill="#020304"/>
          <path id="Pfad_353" data-name="Pfad 353" d="M8.484,194.75l-1.124.376,1.124.608Z" transform="translate(-4.317 -168.16)" fill="#020304"/>
          <path id="Pfad_354" data-name="Pfad 354" d="M8.484,189.76l-1.124.376,1.124.6Z" transform="translate(-4.317 -165.233)" fill="#020304"/>
          <path id="Pfad_355" data-name="Pfad 355" d="M4.755,150.9l-1.455.484h0v.785l2.311-.806Z" transform="translate(-1.936 -142.438)" fill="#020304"/>
          <path id="Pfad_356" data-name="Pfad 356" d="M3.3,148.156v.934l2.8-.938v-.711l-.3-.161Z" transform="translate(-1.936 -140.314)" fill="#020304"/>
          <path id="Pfad_357" data-name="Pfad 357" d="M3.3,153.146v.934l2.8-.934v-.715l-.3-.161Z" transform="translate(-1.936 -143.241)" fill="#020304"/>
          <path id="Pfad_358" data-name="Pfad 358" d="M4.755,155.89l-1.455.488h0v.785l2.311-.81Z" transform="translate(-1.936 -145.365)" fill="#020304"/>
          <path id="Pfad_359" data-name="Pfad 359" d="M3.3,158.146v.934l2.8-.938v-.715l-.3-.157Z" transform="translate(-1.936 -146.174)" fill="#020304"/>
          <path id="Pfad_360" data-name="Pfad 360" d="M4.755,160.89l-1.455.484h0v.785l2.311-.81Z" transform="translate(-1.936 -148.298)" fill="#020304"/>
          <path id="Pfad_361" data-name="Pfad 361" d="M3.3,139.1l2.8-.934v-.715l-.3-.161-2.505.876Z" transform="translate(-1.936 -134.454)" fill="#020304"/>
          <path id="Pfad_362" data-name="Pfad 362" d="M4.755,145.91l-1.455.484h0v.785l2.311-.81Z" transform="translate(-1.936 -139.511)" fill="#020304"/>
          <path id="Pfad_363" data-name="Pfad 363" d="M6.1,192.381l-.3-.161L3.3,193.1v.934l2.8-.934Z" transform="translate(-1.936 -166.676)" fill="#020304"/>
          <path id="Pfad_364" data-name="Pfad 364" d="M3.3,143.161v.934l2.8-.938v-.715l-.3-.161Z" transform="translate(-1.936 -137.381)" fill="#020304"/>
          <path id="Pfad_365" data-name="Pfad 365" d="M4.755,140.91,3.3,141.4h0v.785l2.311-.81Z" transform="translate(-1.936 -136.578)" fill="#020304"/>
          <path id="Pfad_366" data-name="Pfad 366" d="M3.3,168.126v.934l2.8-.934v-.715l-.3-.161Z" transform="translate(-1.936 -152.029)" fill="#020304"/>
          <path id="Pfad_367" data-name="Pfad 367" d="M4.755,180.86l-1.455.488h0v.785l2.311-.81Z" transform="translate(-1.936 -160.012)" fill="#020304"/>
          <path id="Pfad_368" data-name="Pfad 368" d="M3.3,178.116v.934l2.8-.934V177.4l-.3-.161Z" transform="translate(-1.936 -157.889)" fill="#020304"/>
          <path id="Pfad_369" data-name="Pfad 369" d="M3.3,183.11v.934l2.8-.938v-.715l-.3-.161Z" transform="translate(-1.936 -160.816)" fill="#020304"/>
          <path id="Pfad_370" data-name="Pfad 370" d="M4.755,175.87l-1.455.484h0v.785l2.311-.806Z" transform="translate(-1.936 -157.085)" fill="#020304"/>
          <path id="Pfad_371" data-name="Pfad 371" d="M4.755,185.85l-1.455.488h0v.785l2.311-.81Z" transform="translate(-1.936 -162.94)" fill="#020304"/>
          <path id="Pfad_372" data-name="Pfad 372" d="M3.3,188.106v.934l2.8-.934v-.715l-.3-.161Z" transform="translate(-1.936 -163.749)" fill="#020304"/>
          <path id="Pfad_373" data-name="Pfad 373" d="M3.3,173.126v.934l2.8-.938v-.715l-.3-.157Z" transform="translate(-1.936 -154.962)" fill="#020304"/>
          <path id="Pfad_374" data-name="Pfad 374" d="M4.755,165.88l-1.455.484h0v.79l2.311-.81Z" transform="translate(-1.936 -151.225)" fill="#020304"/>
          <path id="Pfad_375" data-name="Pfad 375" d="M3.3,163.136v.934l2.8-.934v-.715l-.3-.161Z" transform="translate(-1.936 -149.102)" fill="#020304"/>
          <path id="Pfad_376" data-name="Pfad 376" d="M4.755,170.87l-1.455.488h0v.785l2.311-.81Z" transform="translate(-1.936 -154.152)" fill="#020304"/>
        </g>
        <g id="Gruppe_168" data-name="Gruppe 168" transform="translate(107.61 53.299)">
          <path id="Pfad_377" data-name="Pfad 377" d="M277.665,185.13l-1.145-.38v1Z" transform="translate(-269.818 -162.294)" fill="#020304"/>
          <path id="Pfad_378" data-name="Pfad 378" d="M277.665,165.16l-1.145-.38v1Z" transform="translate(-269.818 -150.58)" fill="#020304"/>
          <path id="Pfad_379" data-name="Pfad 379" d="M277.665,175.144l-1.145-.384v1Z" transform="translate(-269.818 -156.434)" fill="#020304"/>
          <path id="Pfad_380" data-name="Pfad 380" d="M276.52,143.152l2.828.943v-.934l-2.509-.881-.318.174Z" transform="translate(-269.818 -137.381)" fill="#020304"/>
          <path id="Pfad_381" data-name="Pfad 381" d="M277.665,170.15l-1.145-.38v1Z" transform="translate(-269.818 -153.507)" fill="#020304"/>
          <path id="Pfad_382" data-name="Pfad 382" d="M277.665,160.16l-1.145-.38v1Z" transform="translate(-269.818 -147.647)" fill="#020304"/>
          <path id="Pfad_383" data-name="Pfad 383" d="M278.62,140.91l-.86.463,2.315.81V141.4h0Z" transform="translate(-270.546 -136.578)" fill="#020304"/>
          <path id="Pfad_384" data-name="Pfad 384" d="M276.52,140.806l1.145-.616-1.145-.38Z" transform="translate(-269.818 -135.932)" fill="#020304"/>
          <path id="Pfad_385" data-name="Pfad 385" d="M277.665,145.18l-1.145-.38v1Z" transform="translate(-269.818 -138.859)" fill="#020304"/>
          <path id="Pfad_386" data-name="Pfad 386" d="M277.665,150.174l-1.145-.384v1Z" transform="translate(-269.818 -141.787)" fill="#020304"/>
          <path id="Pfad_387" data-name="Pfad 387" d="M277.665,155.17l-1.145-.38v1Z" transform="translate(-269.818 -144.72)" fill="#020304"/>
          <path id="Pfad_388" data-name="Pfad 388" d="M277.665,180.14l-1.145-.38v1Z" transform="translate(-269.818 -159.367)" fill="#020304"/>
          <path id="Pfad_389" data-name="Pfad 389" d="M280.075,196.328h0l-1.451-.488-.86.463,2.315.81Z" transform="translate(-270.546 -168.8)" fill="#020304"/>
          <path id="Pfad_390" data-name="Pfad 390" d="M279.348,198.1l-2.509-.876-.318.169v.889h2.828Z" transform="translate(-269.818 -169.609)" fill="#020304"/>
          <path id="Pfad_391" data-name="Pfad 391" d="M276.52,133.168l2.828.943v-.934l-2.509-.876-.318.169Z" transform="translate(-269.818 -131.527)" fill="#020304"/>
          <path id="Pfad_392" data-name="Pfad 392" d="M277.64,130.78h-1.12v.6Z" transform="translate(-269.818 -130.635)" fill="#020304"/>
          <path id="Pfad_393" data-name="Pfad 393" d="M281.759,131.152v-.372H280.63Z" transform="translate(-272.229 -130.635)" fill="#020304"/>
          <path id="Pfad_394" data-name="Pfad 394" d="M276.52,194.74v1l1.145-.616Z" transform="translate(-269.818 -168.155)" fill="#020304"/>
          <path id="Pfad_395" data-name="Pfad 395" d="M280.075,191.334h0l-1.451-.484-.86.463,2.315.806Z" transform="translate(-270.546 -165.873)" fill="#020304"/>
          <path id="Pfad_396" data-name="Pfad 396" d="M278.62,135.92l-.86.463,2.315.806V136.4h0Z" transform="translate(-270.546 -133.65)" fill="#020304"/>
          <path id="Pfad_397" data-name="Pfad 397" d="M276.52,135.81l1.145-.616-1.145-.384Z" transform="translate(-269.818 -132.999)" fill="#020304"/>
          <path id="Pfad_398" data-name="Pfad 398" d="M277.665,190.124l-1.145-.384v1Z" transform="translate(-269.818 -165.221)" fill="#020304"/>
          <path id="Pfad_399" data-name="Pfad 399" d="M276.52,178.108l2.828.943v-.934l-2.509-.876-.318.17Z" transform="translate(-269.818 -157.889)" fill="#020304"/>
          <path id="Pfad_400" data-name="Pfad 400" d="M279.348,188.106l-2.509-.876-.318.169v.7l2.828.943Z" transform="translate(-269.818 -163.749)" fill="#020304"/>
          <path id="Pfad_401" data-name="Pfad 401" d="M280.071,186.338l-1.451-.488-.86.463,2.315.81v-.785Z" transform="translate(-270.546 -162.94)" fill="#020304"/>
          <path id="Pfad_402" data-name="Pfad 402" d="M276.52,183.108l2.828.943v-.934l-2.509-.876-.318.169Z" transform="translate(-269.818 -160.822)" fill="#020304"/>
          <path id="Pfad_403" data-name="Pfad 403" d="M280.071,176.354l-1.451-.484-.86.463,2.315.806v-.785Z" transform="translate(-270.546 -157.085)" fill="#020304"/>
          <rect id="Rechteck_187" data-name="Rechteck 187" width="0.823" height="28.528" transform="translate(5.651 0.145)" fill="#020304"/>
          <path id="Pfad_404" data-name="Pfad 404" d="M276.52,173.118l2.828.943v-.934l-2.509-.876-.318.169Z" transform="translate(-269.818 -154.962)" fill="#020304"/>
          <path id="Pfad_405" data-name="Pfad 405" d="M280.075,132.193v-.785h0l-1.451-.488-.86.463Z" transform="translate(-270.546 -130.717)" fill="#020304"/>
          <path id="Pfad_406" data-name="Pfad 406" d="M261.446,130.575h-.785l-.351.1v.967l.686-.2a.224.224,0,0,1,.045-.008.118.118,0,0,1,.1.045c.025.037,0,.083-.058.1l-.777.227v.761l.686-.2a.224.224,0,0,1,.046-.008.117.117,0,0,1,.1.045c.025.037,0,.083-.058.1l-.777.227v.967l.686-.2a.224.224,0,0,1,.045-.008.118.118,0,0,1,.1.045c.025.037,0,.083-.058.1l-.777.227v.761l.686-.2a.225.225,0,0,1,.045-.008.118.118,0,0,1,.1.045c.025.037,0,.083-.058.1l-.777.227v.967l.686-.2a.224.224,0,0,1,.045-.008.118.118,0,0,1,.1.045c.025.037,0,.083-.058.1l-.777.227v.761l.686-.2a.224.224,0,0,1,.045-.008.118.118,0,0,1,.1.045c.025.037,0,.083-.058.1l-.777.227v.967l.686-.2a.226.226,0,0,1,.045-.008.117.117,0,0,1,.1.045c.025.037,0,.083-.058.1l-.777.227v.761l.686-.2a.225.225,0,0,1,.045-.008.118.118,0,0,1,.1.045c.025.037,0,.083-.058.1l-.777.227v.967l.686-.2a.225.225,0,0,1,.046-.008.118.118,0,0,1,.1.045c.025.037,0,.083-.058.1l-.777.227v.761l.686-.2a.225.225,0,0,1,.046-.008.118.118,0,0,1,.1.045c.025.037,0,.083-.058.1l-.777.227v.967l.686-.2a.224.224,0,0,1,.045-.008.118.118,0,0,1,.1.045c.025.037,0,.083-.058.1l-.777.227v.761l.686-.2a.224.224,0,0,1,.045-.008.118.118,0,0,1,.1.045c.025.037,0,.083-.058.1l-.777.227v.967l.686-.2a.224.224,0,0,1,.045-.008.118.118,0,0,1,.1.045c.025.037,0,.083-.058.1l-.777.227v.761l.686-.2a.224.224,0,0,1,.045-.008.118.118,0,0,1,.1.046c.025.037,0,.083-.058.1l-.777.227v.967l.686-.2a.224.224,0,0,1,.045-.008.118.118,0,0,1,.1.045c.025.037,0,.083-.058.1l-.777.227v.761l.686-.2a.224.224,0,0,1,.045-.008.118.118,0,0,1,.1.046c.025.037,0,.083-.058.1l-.777.227v.967l.686-.2a.224.224,0,0,1,.045-.008.118.118,0,0,1,.1.045c.025.037,0,.083-.058.1l-.777.227v.761l.686-.2a.224.224,0,0,1,.045-.008.118.118,0,0,1,.1.045c.025.037,0,.083-.058.1l-.777.227v.967l.686-.2a.431.431,0,0,1,.045,0,.118.118,0,0,1,.1.045c.025.037,0,.083-.058.1l-.777.227v.761l.686-.2a.224.224,0,0,1,.045-.008.118.118,0,0,1,.1.045c.025.037,0,.083-.058.1l-.777.227v.967l.686-.2a.225.225,0,0,1,.045-.008.118.118,0,0,1,.1.045c.025.037,0,.083-.058.1l-.777.227v.761l.686-.2a.224.224,0,0,1,.045-.008.118.118,0,0,1,.1.045c.025.037,0,.083-.058.1l-.777.227v.967l.686-.2a.224.224,0,0,1,.045-.008.118.118,0,0,1,.1.045c.025.037,0,.083-.058.1l-.777.227v.761l.686-.2a.226.226,0,0,1,.045-.008.118.118,0,0,1,.1.045c.025.037,0,.083-.058.1l-.777.227v.967l.686-.2a.225.225,0,0,1,.045-.008.118.118,0,0,1,.1.045c.025.037,0,.083-.058.1l-.777.227v.761l.686-.2a.224.224,0,0,1,.045-.008.118.118,0,0,1,.1.045c.025.037,0,.083-.058.1l-.777.227v.967l.686-.2a.225.225,0,0,1,.045-.008.117.117,0,0,1,.1.045c.025.037,0,.083-.058.1l-.777.227v.451h1.137v-28.38Z" transform="translate(-260.309 -130.43)" fill="#020304"/>
          <path id="Pfad_407" data-name="Pfad 407" d="M276.52,138.158l2.828.943v-.934l-2.509-.876-.318.174Z" transform="translate(-269.818 -134.454)" fill="#020304"/>
          <path id="Pfad_408" data-name="Pfad 408" d="M279.348,193.1l-2.509-.876-.318.174v.694l2.828.943Z" transform="translate(-269.818 -166.676)" fill="#020304"/>
          <path id="Pfad_409" data-name="Pfad 409" d="M280.071,171.358l-1.451-.488-.86.463,2.315.81v-.785Z" transform="translate(-270.546 -154.152)" fill="#020304"/>
          <path id="Pfad_410" data-name="Pfad 410" d="M276.52,158.138l2.828.943v-.934l-2.509-.876-.318.169Z" transform="translate(-269.818 -146.174)" fill="#020304"/>
          <path id="Pfad_411" data-name="Pfad 411" d="M280.071,156.378l-1.451-.488-.86.463,2.315.81v-.785Z" transform="translate(-270.546 -145.365)" fill="#020304"/>
          <path id="Pfad_412" data-name="Pfad 412" d="M276.52,153.138l2.828.943v-.934l-2.509-.876-.318.174Z" transform="translate(-269.818 -143.241)" fill="#020304"/>
          <path id="Pfad_413" data-name="Pfad 413" d="M280.071,146.394l-1.451-.484-.86.459,2.315.81v-.785Z" transform="translate(-270.546 -139.511)" fill="#020304"/>
          <path id="Pfad_414" data-name="Pfad 414" d="M280.071,151.384l-1.451-.484-.86.463,2.315.806v-.785Z" transform="translate(-270.546 -142.438)" fill="#020304"/>
          <path id="Pfad_415" data-name="Pfad 415" d="M276.52,148.148l2.828.943v-.934l-2.509-.876-.318.169Z" transform="translate(-269.818 -140.314)" fill="#020304"/>
          <path id="Pfad_416" data-name="Pfad 416" d="M276.52,168.118l2.828.943v-.934l-2.509-.876-.318.174Z" transform="translate(-269.818 -152.029)" fill="#020304"/>
          <path id="Pfad_417" data-name="Pfad 417" d="M280.071,166.364l-1.451-.484-.86.463,2.315.81v-.79Z" transform="translate(-270.546 -151.225)" fill="#020304"/>
          <path id="Pfad_418" data-name="Pfad 418" d="M276.52,163.128l2.828.943v-.934l-2.509-.876-.318.169Z" transform="translate(-269.818 -149.102)" fill="#020304"/>
          <path id="Pfad_419" data-name="Pfad 419" d="M280.071,161.374l-1.451-.484-.86.459,2.315.81v-.785Z" transform="translate(-270.546 -148.298)" fill="#020304"/>
          <path id="Pfad_420" data-name="Pfad 420" d="M280.071,181.348l-1.451-.488-.86.463,2.315.81v-.785Z" transform="translate(-270.546 -160.012)" fill="#020304"/>
          <path id="Pfad_421" data-name="Pfad 421" d="M267.67,140.2l1.124.608v-.984Z" transform="translate(-264.627 -135.938)" fill="#020304"/>
          <path id="Pfad_422" data-name="Pfad 422" d="M267.67,155.176l1.124.608V154.8Z" transform="translate(-264.627 -144.725)" fill="#020304"/>
          <path id="Pfad_423" data-name="Pfad 423" d="M267.67,165.166l1.124.608v-.984Z" transform="translate(-264.627 -150.586)" fill="#020304"/>
          <path id="Pfad_424" data-name="Pfad 424" d="M267.67,150.186l1.124.6v-.98Z" transform="translate(-264.627 -141.798)" fill="#020304"/>
          <path id="Pfad_425" data-name="Pfad 425" d="M267.67,145.192l1.124.608v-.98Z" transform="translate(-264.627 -138.871)" fill="#020304"/>
          <path id="Pfad_426" data-name="Pfad 426" d="M267.67,160.172l1.124.608v-.98Z" transform="translate(-264.627 -147.659)" fill="#020304"/>
          <rect id="Rechteck_188" data-name="Rechteck 188" width="0.798" height="28.528" transform="translate(4.395 0.145)" fill="#020304"/>
          <path id="Pfad_427" data-name="Pfad 427" d="M265.065,190.85l-1.455.484h0v.785l2.311-.806Z" transform="translate(-262.245 -165.873)" fill="#020304"/>
          <path id="Pfad_428" data-name="Pfad 428" d="M267.67,185.142l1.124.608v-.98Z" transform="translate(-264.627 -162.306)" fill="#020304"/>
          <path id="Pfad_429" data-name="Pfad 429" d="M267.67,180.146l1.124.608v-.984Z" transform="translate(-264.627 -159.373)" fill="#020304"/>
          <path id="Pfad_430" data-name="Pfad 430" d="M267.67,175.156l1.124.6v-.98Z" transform="translate(-264.627 -156.446)" fill="#020304"/>
          <path id="Pfad_431" data-name="Pfad 431" d="M267.67,170.162l1.124.608v-.98Z" transform="translate(-264.627 -153.519)" fill="#020304"/>
          <path id="Pfad_432" data-name="Pfad 432" d="M266.413,197.377l-.3-.157-2.505.876v.182h2.8Z" transform="translate(-262.245 -169.609)" fill="#020304"/>
          <path id="Pfad_433" data-name="Pfad 433" d="M263.61,131.152l1.124-.372H263.61Z" transform="translate(-262.245 -130.635)" fill="#020304"/>
          <path id="Pfad_434" data-name="Pfad 434" d="M268.836,131.371v-.591h-1.1Z" transform="translate(-264.668 -130.635)" fill="#020304"/>
          <path id="Pfad_435" data-name="Pfad 435" d="M263.61,131.408h0v.785l2.311-.81-.856-.463Z" transform="translate(-262.245 -130.717)" fill="#020304"/>
          <path id="Pfad_436" data-name="Pfad 436" d="M284.269,158.822c-.058-.017-.083-.062-.058-.1a.128.128,0,0,1,.1-.046.089.089,0,0,1,.046.008l.641.19v-.967l-.732-.215c-.058-.017-.083-.062-.058-.1a.128.128,0,0,1,.1-.045.089.089,0,0,1,.046.008l.641.19v-.761l-.732-.215c-.058-.017-.083-.062-.058-.1a.128.128,0,0,1,.1-.045.089.089,0,0,1,.045.008l.641.19v-.967l-.732-.215c-.058-.017-.083-.062-.058-.1a.128.128,0,0,1,.1-.045.089.089,0,0,1,.045.008l.641.19v-.761l-.732-.215c-.058-.017-.083-.062-.058-.1a.128.128,0,0,1,.1-.045.089.089,0,0,1,.045.008l.641.19V153.8l-.732-.215c-.058-.017-.083-.062-.058-.1a.128.128,0,0,1,.1-.045.089.089,0,0,1,.045.008l.641.19v-.761l-.732-.215c-.058-.017-.083-.062-.058-.1a.128.128,0,0,1,.1-.045.089.089,0,0,1,.045.008l.641.19v-.967l-.732-.215c-.058-.017-.083-.062-.058-.1a.128.128,0,0,1,.1-.045.089.089,0,0,1,.046.008l.641.19v-.761l-.732-.215c-.058-.017-.083-.062-.058-.1a.128.128,0,0,1,.1-.045.169.169,0,0,1,.045,0l.641.19v-.967l-.732-.215c-.058-.017-.083-.062-.058-.1a.128.128,0,0,1,.1-.045.089.089,0,0,1,.045.008l.641.19v-.761l-.732-.215c-.058-.017-.083-.062-.058-.1a.128.128,0,0,1,.1-.046.089.089,0,0,1,.045.008l.641.19v-.967l-.732-.215c-.058-.016-.083-.062-.058-.1a.128.128,0,0,1,.1-.045.089.089,0,0,1,.045.008l.641.19v-.761l-.732-.215c-.058-.017-.083-.062-.058-.1a.128.128,0,0,1,.1-.045.089.089,0,0,1,.045.008l.641.19v-.967l-.732-.215c-.058-.017-.083-.062-.058-.1a.128.128,0,0,1,.1-.045.089.089,0,0,1,.045.008l.641.19v-.761l-.732-.215c-.058-.017-.083-.062-.058-.1a.128.128,0,0,1,.1-.045.089.089,0,0,1,.045.008l.641.19v-.967l-.732-.215c-.058-.017-.083-.062-.058-.1a.128.128,0,0,1,.1-.045.089.089,0,0,1,.045.008l.641.19v-.761l-.732-.215c-.058-.017-.083-.062-.058-.1a.128.128,0,0,1,.1-.045.089.089,0,0,1,.045.008l.641.19v-.967l-.732-.215c-.058-.017-.083-.062-.058-.1a.128.128,0,0,1,.1-.045.089.089,0,0,1,.045.008l.641.19v-.761l-.732-.215c-.058-.017-.083-.062-.058-.1a.128.128,0,0,1,.1-.045.089.089,0,0,1,.045.008l.641.19v-.967l-.732-.215c-.058-.017-.083-.062-.058-.1a.128.128,0,0,1,.1-.046.089.089,0,0,1,.045.008l.641.19V138.5l-.732-.215c-.058-.017-.083-.062-.058-.1a.128.128,0,0,1,.1-.045.089.089,0,0,1,.045.008l.641.19v-.967l-.732-.215c-.058-.017-.083-.062-.058-.1a.128.128,0,0,1,.1-.045.089.089,0,0,1,.045.008l.641.19v-.761l-.732-.215c-.058-.017-.083-.062-.058-.1a.128.128,0,0,1,.1-.045.089.089,0,0,1,.045.008l.641.19v-.967l-.732-.215c-.058-.017-.083-.062-.058-.1a.128.128,0,0,1,.1-.046.089.089,0,0,1,.045.008l.641.19V134.4l-.732-.215c-.058-.017-.083-.062-.058-.1a.128.128,0,0,1,.1-.045.089.089,0,0,1,.045.008l.641.19v-.967l-.732-.215c-.058-.017-.083-.062-.058-.1a.128.128,0,0,1,.1-.045.089.089,0,0,1,.045.008l.641.19v-.761l-.732-.215c-.058-.017-.083-.062-.058-.1a.128.128,0,0,1,.1-.046.089.089,0,0,1,.046.008l.641.19v-.967l-.306-.091h-.785v28.528H285v-.463l-.732-.215Z" transform="translate(-274.153 -130.835)" fill="#020304"/>
          <path id="Pfad_437" data-name="Pfad 437" d="M263.61,136.4v.785l2.311-.806-.856-.463-1.455.484Z" transform="translate(-262.245 -133.65)" fill="#020304"/>
          <path id="Pfad_438" data-name="Pfad 438" d="M268.794,135.81v-.98l-1.124.376Z" transform="translate(-264.627 -133.011)" fill="#020304"/>
          <path id="Pfad_439" data-name="Pfad 439" d="M263.61,133.176v.934l2.8-.938v-.711l-.3-.161Z" transform="translate(-262.245 -131.527)" fill="#020304"/>
          <path id="Pfad_440" data-name="Pfad 440" d="M265.065,195.84l-1.455.488h0v.785l2.311-.81Z" transform="translate(-262.245 -168.8)" fill="#020304"/>
          <path id="Pfad_441" data-name="Pfad 441" d="M268.794,194.75l-1.124.376,1.124.608Z" transform="translate(-264.627 -168.16)" fill="#020304"/>
          <path id="Pfad_442" data-name="Pfad 442" d="M268.794,189.76l-1.124.376,1.124.6Z" transform="translate(-264.627 -165.233)" fill="#020304"/>
          <path id="Pfad_443" data-name="Pfad 443" d="M265.065,150.9l-1.455.484h0v.785l2.311-.806Z" transform="translate(-262.245 -142.438)" fill="#020304"/>
          <path id="Pfad_444" data-name="Pfad 444" d="M263.61,148.156v.934l2.8-.938v-.711l-.3-.161Z" transform="translate(-262.245 -140.314)" fill="#020304"/>
          <path id="Pfad_445" data-name="Pfad 445" d="M263.61,153.146v.934l2.8-.934v-.715l-.3-.161Z" transform="translate(-262.245 -143.241)" fill="#020304"/>
          <path id="Pfad_446" data-name="Pfad 446" d="M265.065,155.89l-1.455.488h0v.785l2.311-.81Z" transform="translate(-262.245 -145.365)" fill="#020304"/>
          <path id="Pfad_447" data-name="Pfad 447" d="M263.61,158.146v.934l2.8-.938v-.715l-.3-.157Z" transform="translate(-262.245 -146.174)" fill="#020304"/>
          <path id="Pfad_448" data-name="Pfad 448" d="M265.065,160.89l-1.455.484h0v.785l2.311-.81Z" transform="translate(-262.245 -148.298)" fill="#020304"/>
          <path id="Pfad_449" data-name="Pfad 449" d="M263.61,139.1l2.8-.934v-.715l-.3-.161-2.505.876Z" transform="translate(-262.245 -134.454)" fill="#020304"/>
          <path id="Pfad_450" data-name="Pfad 450" d="M265.065,145.91l-1.455.484h0v.785l2.311-.81Z" transform="translate(-262.245 -139.511)" fill="#020304"/>
          <path id="Pfad_451" data-name="Pfad 451" d="M266.413,192.381l-.3-.161-2.505.876v.934l2.8-.934Z" transform="translate(-262.245 -166.676)" fill="#020304"/>
          <path id="Pfad_452" data-name="Pfad 452" d="M263.61,143.161v.934l2.8-.938v-.715l-.3-.161Z" transform="translate(-262.245 -137.381)" fill="#020304"/>
          <path id="Pfad_453" data-name="Pfad 453" d="M265.065,140.91l-1.455.488h0v.785l2.311-.81Z" transform="translate(-262.245 -136.578)" fill="#020304"/>
          <path id="Pfad_454" data-name="Pfad 454" d="M263.61,168.126v.934l2.8-.934v-.715l-.3-.161Z" transform="translate(-262.245 -152.029)" fill="#020304"/>
          <path id="Pfad_455" data-name="Pfad 455" d="M265.065,180.86l-1.455.488h0v.785l2.311-.81Z" transform="translate(-262.245 -160.012)" fill="#020304"/>
          <path id="Pfad_456" data-name="Pfad 456" d="M263.61,178.116v.934l2.8-.934V177.4l-.3-.161Z" transform="translate(-262.245 -157.889)" fill="#020304"/>
          <path id="Pfad_457" data-name="Pfad 457" d="M263.61,183.11v.934l2.8-.938v-.715l-.3-.161Z" transform="translate(-262.245 -160.816)" fill="#020304"/>
          <path id="Pfad_458" data-name="Pfad 458" d="M265.065,175.87l-1.455.484h0v.785l2.311-.806Z" transform="translate(-262.245 -157.085)" fill="#020304"/>
          <path id="Pfad_459" data-name="Pfad 459" d="M265.065,185.85l-1.455.488h0v.785l2.311-.81Z" transform="translate(-262.245 -162.94)" fill="#020304"/>
          <path id="Pfad_460" data-name="Pfad 460" d="M263.61,188.106v.934l2.8-.934v-.715l-.3-.161Z" transform="translate(-262.245 -163.749)" fill="#020304"/>
          <path id="Pfad_461" data-name="Pfad 461" d="M263.61,173.126v.934l2.8-.938v-.715l-.3-.157Z" transform="translate(-262.245 -154.962)" fill="#020304"/>
          <path id="Pfad_462" data-name="Pfad 462" d="M265.065,165.88l-1.455.484h0v.79l2.311-.81Z" transform="translate(-262.245 -151.225)" fill="#020304"/>
          <path id="Pfad_463" data-name="Pfad 463" d="M263.61,163.136v.934l2.8-.934v-.715l-.3-.161Z" transform="translate(-262.245 -149.102)" fill="#020304"/>
          <path id="Pfad_464" data-name="Pfad 464" d="M265.065,170.87l-1.455.488h0v.785l2.311-.81Z" transform="translate(-262.245 -154.152)" fill="#020304"/>
        </g>
      </g>
    </g>
    <g id="Ebene_1-2-11" data-name="Ebene_1-2" transform="translate(648.518 230.98)">
      <g id="Gruppe_162-8" data-name="Gruppe 162" transform="translate(0 0)">
        <circle id="Ellipse_56-8" data-name="Ellipse 56" cx="21.47" cy="21.47" r="21.47" fill="#b28a24"/>
        <circle id="Ellipse_57-8" data-name="Ellipse 57" cx="18.462" cy="18.462" r="18.462" transform="translate(3.008 3.008)" fill="url(#linear-gradient)"/>
        <path id="Pfad_278-8" data-name="Pfad 278" d="M35.942,143.246c-10.076,0-18.263-7.447-18.454-17.478,0,.119-.009-.391-.009-.27a18.462,18.462,0,1,0,36.925,0c0-.12-.007.268-.009.15C54.205,135.678,46.02,143.246,35.942,143.246Z" transform="translate(-14.472 -103.884)" fill="#f4db94"/>
        <path id="Pfad_279-8" data-name="Pfad 279" d="M35.928,14.774A18.478,18.478,0,0,1,54.38,32.9c0-.119.01-.262.01-.38a18.463,18.463,0,0,0-36.925-.176c0,.12-.012.721-.009.841A18.74,18.74,0,0,1,35.93,14.776Z" transform="translate(-14.453 -11.641)" fill="#4f3e19"/>
        <text id="_1-8" data-name="1" transform="translate(16.011 28.676)" fill="#b28a24" font-size="21" font-family="SegoeUI, Segoe UI"><tspan x="0" y="0">1</tspan></text>
      </g>
    </g>
    <g id="Ebene_1-2-12" data-name="Ebene_1-2" transform="translate(824.286 387.939)">
      <g id="Gruppe_155" data-name="Gruppe 155">
        <g id="Gruppe_145" data-name="Gruppe 145" transform="translate(13.72 112.222)">
          <path id="Pfad_254" data-name="Pfad 254" d="M128.8,141.736a44.292,44.292,0,0,0-17.093-5.9c-2.08-5.548-3.566-8.718-3.566-8.718h-53.4s-1.477,3.161-3.548,8.682a44.353,44.353,0,0,0-17.4,5.944c-18.192,11.212-21,43.768-8.033,47.893,12.878,4.1,10.042-11.113,18.12-30.035-5.1,20.8-8.664,48.992-1.621,76.577H69.524V207.209H93.38v28.972h27.261c6.853-26.846,3.656-54.26-1.216-74.893,7.232,18.129,4.926,32.331,17.417,28.35,12.959-4.125,10.15-36.681-8.033-47.893Z" transform="translate(-15.484 -124.86)" fill="#be202e"/>
          <path id="Pfad_255" data-name="Pfad 255" d="M122.13,238.174H90.862V209.2H71.508v28.972H40.249l-.432-1.693c-4.233-16.58-4.638-33.367-3.305-48.352a7.952,7.952,0,0,1-7.259,4.179,14.675,14.675,0,0,1-4.431-.774c-5.025-1.6-8.438-6.763-9.339-14.157-1.513-12.347,3.882-29.791,16.877-37.807a46.121,46.121,0,0,1,16.949-6.061c1.828-4.773,3.1-7.484,3.152-7.6l.6-1.3h56.25l.6,1.3c.054.126,1.333,2.846,3.17,7.655a45.811,45.811,0,0,1,16.634,6.007c13,8.006,18.4,25.451,16.877,37.807-.91,7.394-4.314,12.554-9.339,14.157a14.675,14.675,0,0,1-4.431.774h0a7.835,7.835,0,0,1-6.925-3.665c1.27,14.788.847,31.412-3.35,47.839l-.432,1.693Zm-26.765-4.5h23.253c6.385-26.72,2.666-53.882-1.648-72.119l4.278-1.351a121.812,121.812,0,0,1,4.737,15.355c2.269,8.889,3.449,12.248,6.853,12.248h0a10.3,10.3,0,0,0,3.062-.567c3.278-1.045,5.557-4.836,6.241-10.411,1.36-11.113-3.791-26.648-14.77-33.421a42.262,42.262,0,0,0-16.238-5.593l-1.324-.189-.468-1.252c-1.261-3.368-2.306-5.863-2.918-7.259H55.955c-.6,1.4-1.648,3.872-2.9,7.223l-.468,1.261-1.333.18a42.3,42.3,0,0,0-16.526,5.629c-10.987,6.772-16.138,22.307-14.77,33.421.684,5.575,2.954,9.366,6.241,10.411,5.9,1.873,7.079-.567,9.915-11.681a113,113,0,0,1,5.449-17.093l4.26,1.423c-4.575,18.678-8.574,46.47-2.044,73.785H67.032V204.7H95.391v28.972Z" transform="translate(-15.235 -124.61)" fill="#231f20"/>
        </g>
        <g id="Gruppe_146" data-name="Gruppe 146" transform="translate(63.014 137.141)">
          <circle id="Ellipse_54" data-name="Ellipse 54" cx="14.409" cy="14.409" r="14.409" transform="translate(2.251 2.251)" fill="#afd7d7"/>
          <path id="Pfad_256" data-name="Pfad 256" d="M86.631,185.6a16.661,16.661,0,1,1,16.661-16.661A16.681,16.681,0,0,1,86.631,185.6Zm0-28.81A12.158,12.158,0,1,0,98.789,168.95,12.17,12.17,0,0,0,86.631,156.792Z" transform="translate(-69.97 -152.28)" fill="#231f20"/>
        </g>
        <g id="Gruppe_147" data-name="Gruppe 147" transform="translate(8.991 153.996)">
          <path id="Pfad_257" data-name="Pfad 257" d="M12.588,184.989a13.229,13.229,0,1,0,11.4-11.4A13.231,13.231,0,0,0,12.588,184.989Z" transform="translate(-10.232 -171.243)" fill="#eac226"/>
          <path id="Pfad_258" data-name="Pfad 258" d="M25.452,201.935h0a15.442,15.442,0,1,1,2-.126,16.665,16.665,0,0,1-2,.126Zm0-26.45a10.939,10.939,0,0,0-10.888,9.537,10.885,10.885,0,0,0,2.648,8.691,11,11,0,0,0,8.231,3.719h0a11.152,11.152,0,0,0,1.441-.09,10.976,10.976,0,0,0-1.432-21.857Z" transform="translate(-9.983 -170.996)" fill="#231f20"/>
        </g>
        <g id="Gruppe_148" data-name="Gruppe 148" transform="translate(115.98 150.758)">
          <ellipse id="Ellipse_55" data-name="Ellipse 55" cx="13.185" cy="13.257" rx="13.185" ry="13.257" transform="matrix(0.707, -0.707, 0.707, 0.707, 0, 18.636)" fill="#eac226"/>
          <path id="Pfad_259" data-name="Pfad 259" d="M147.832,201.935h0a15.442,15.442,0,1,1,2-.126,16.664,16.664,0,0,1-2,.126Zm0-26.45a10.939,10.939,0,0,0-10.888,9.537,10.885,10.885,0,0,0,2.648,8.691,11,11,0,0,0,8.231,3.719h0a10.974,10.974,0,0,0,0-21.947Z" transform="translate(-129.139 -167.757)" fill="#231f20"/>
        </g>
        <g id="Gruppe_149" data-name="Gruppe 149" transform="translate(35.924 212.556)">
          <path id="Pfad_260" data-name="Pfad 260" d="M44.743,247.247H72V238.52H42.87c.513,2.909,1.135,5.827,1.873,8.727Z" transform="translate(-40.186 -236.269)" fill="#eac226"/>
          <path id="Pfad_261" data-name="Pfad 261" d="M73.959,249.25H42.7l-.432-1.693c-.72-2.837-1.369-5.827-1.909-8.889l-.468-2.648H73.968v13.23Zm-27.756-4.5H69.456v-4.224H45.285c.288,1.432.594,2.846.928,4.224Z" transform="translate(-39.89 -236.02)" fill="#231f20"/>
        </g>
        <g id="Gruppe_150" data-name="Gruppe 150" transform="translate(89.257 212.556)">
          <path id="Pfad_262" data-name="Pfad 262" d="M128.881,247.247H101.62V238.52h29.143c-.513,2.909-1.135,5.827-1.873,8.727Z" transform="translate(-99.36 -236.269)" fill="#eac226"/>
          <path id="Pfad_263" data-name="Pfad 263" d="M130.378,249.25H99.11V236.02h34.078l-.468,2.648c-.54,3.053-1.189,6.043-1.909,8.889Zm-26.765-4.5h23.253c.333-1.378.639-2.792.928-4.224H103.622v4.224Z" transform="translate(-99.11 -236.02)" fill="#231f20"/>
        </g>
        <path id="Pfad_264" data-name="Pfad 264" d="M132.219,146.117a25.325,25.325,0,0,0-3.044-2.224,42.263,42.263,0,0,0-16.238-5.593l-1.324-.189-.468-1.252c-1.261-3.368-2.305-5.863-2.918-7.259H57.759c-.6,1.4-1.648,3.872-2.9,7.223l-.468,1.261-1.333.18a42.3,42.3,0,0,0-16.526,5.629,24.634,24.634,0,0,0-3.152,2.314c.351.009.693.027,1.045.027l95.624-.027c.729,0,1.459-.036,2.179-.09Z" transform="translate(-3.319 -12.884)" fill="#8c181d"/>
        <g id="Gruppe_151" data-name="Gruppe 151">
          <path id="Pfad_265" data-name="Pfad 265" d="M126.924,2.5,31.3,2.527A28.822,28.822,0,0,0,2.49,31.355l.018,67.319a28.822,28.822,0,0,0,28.828,28.81l95.624-.027a28.822,28.822,0,0,0,28.81-28.828l-.018-67.319A28.822,28.822,0,0,0,126.924,2.5Z" transform="translate(-0.248 -0.249)" fill="#be202e"/>
          <path id="Pfad_266" data-name="Pfad 266" d="M126.721,129.459l-95.624.027A31.1,31.1,0,0,1,.018,98.425L0,31.106A31.115,31.115,0,0,1,31.061.027L126.676,0a31.115,31.115,0,0,1,31.079,31.061l.018,67.319a31.115,31.115,0,0,1-31.061,31.079ZM31.061,4.53A26.593,26.593,0,0,0,4.5,31.106l.018,67.319A26.593,26.593,0,0,0,31.1,124.983l95.624-.027A26.593,26.593,0,0,0,153.279,98.38l-.018-67.319A26.587,26.587,0,0,0,126.685,4.5L31.061,4.53Z" fill="#231f20"/>
        </g>
        <g id="Gruppe_152" data-name="Gruppe 152" transform="translate(0.009 0.018)">
          <path id="Pfad_267" data-name="Pfad 267" d="M128.52,40.786V2.52h-25.3L97.6,43.271H62.246L56.626,2.52h-25.3V40.786L2.51,84.014v12l43.976,31.466h66.877L155.42,96.01v-12Z" transform="translate(-0.259 -0.269)" fill="#eac226"/>
          <path id="Pfad_268" data-name="Pfad 268" d="M113.862,129.47H45.516L.01,96.923V83.09L28.829,39.862V.02H58.341l5.62,40.751h31.43L101.01.02h29.512V39.9l26.9,43.228V96.887L113.862,129.47Zm-66.9-4.5h65.409L152.92,94.635V84.414l-26.9-43.228V4.523H104.937l-5.62,40.751H60.034L54.414,4.523H33.332v36.7L4.513,84.45V94.608l42.445,30.368Z" transform="translate(-0.01 -0.02)" fill="#231f20"/>
        </g>
        <path id="Pfad_269" data-name="Pfad 269" d="M116.387,140.51,99.844,122.733H69.35L52.806,140.51l-3.3-3.071L67.4,118.23h34.4l17.886,19.209Z" transform="translate(-4.922 -11.754)" fill="#231f20"/>
        <g id="Gruppe_153" data-name="Gruppe 153" transform="translate(29.665 69.138)">
          <rect id="Rechteck_175" data-name="Rechteck 175" width="30.62" height="8.303" transform="translate(2.243 2.332) rotate(-0.13)" fill="#afd7d7"/>
          <path id="Pfad_270" data-name="Pfad 270" d="M68.09,89.576l-35.123.081L32.94,76.851l35.123-.081ZM37.461,85.145l26.117-.063v-3.8l-26.126.063v3.8Z" transform="translate(-32.94 -76.77)" fill="#231f20"/>
        </g>
        <g id="Gruppe_154" data-name="Gruppe 154" transform="translate(92.211 68.994)">
          <rect id="Rechteck_176" data-name="Rechteck 176" width="30.62" height="8.303" transform="matrix(-1, -0.01, 0.01, -1, 32.894, 10.902)" fill="#afd7d7"/>
          <path id="Pfad_271" data-name="Pfad 271" d="M102.39,89.416l.135-12.806,35.123.369-.135,12.806-35.123-.369Zm4.593-8.258-.036,3.8,26.117.27.036-3.8Z" transform="translate(-102.39 -76.61)" fill="#231f20"/>
        </g>
      </g>
    </g>
    <g id="Ebene_1-2-13" data-name="Ebene_1-2" transform="translate(1127.077 507.765)">
      <g id="Gruppe_162-9" data-name="Gruppe 162" transform="translate(0 0)">
        <circle id="Ellipse_56-9" data-name="Ellipse 56" cx="21.47" cy="21.47" r="21.47" fill="#b28a24"/>
        <circle id="Ellipse_57-9" data-name="Ellipse 57" cx="18.462" cy="18.462" r="18.462" transform="translate(3.008 3.008)" fill="url(#linear-gradient)"/>
        <path id="Pfad_278-9" data-name="Pfad 278" d="M35.942,143.246c-10.076,0-18.263-7.447-18.454-17.478,0,.119-.009-.391-.009-.27a18.462,18.462,0,1,0,36.925,0c0-.12-.007.268-.009.15C54.205,135.678,46.02,143.246,35.942,143.246Z" transform="translate(-14.472 -103.884)" fill="#f4db94"/>
        <path id="Pfad_279-9" data-name="Pfad 279" d="M35.928,14.774A18.478,18.478,0,0,1,54.38,32.9c0-.119.01-.262.01-.38a18.463,18.463,0,0,0-36.925-.176c0,.12-.012.721-.009.841A18.74,18.74,0,0,1,35.93,14.776Z" transform="translate(-14.453 -11.641)" fill="#4f3e19"/>
        <text id="_1-9" data-name="1" transform="translate(16.011 28.676)" fill="#b28a24" font-size="21" font-family="SegoeUI, Segoe UI"><tspan x="0" y="0">1</tspan></text>
      </g>
    </g>
    <g id="Ebene_1-2-14" data-name="Ebene_1-2" transform="translate(1127.077 232.118)">
      <g id="Gruppe_162-10" data-name="Gruppe 162" transform="translate(0 0)">
        <circle id="Ellipse_56-10" data-name="Ellipse 56" cx="21.47" cy="21.47" r="21.47" fill="#b28a24"/>
        <circle id="Ellipse_57-10" data-name="Ellipse 57" cx="18.462" cy="18.462" r="18.462" transform="translate(3.008 3.008)" fill="url(#linear-gradient)"/>
        <path id="Pfad_278-10" data-name="Pfad 278" d="M35.942,143.246c-10.076,0-18.263-7.447-18.454-17.478,0,.119-.009-.391-.009-.27a18.462,18.462,0,1,0,36.925,0c0-.12-.007.268-.009.15C54.205,135.678,46.02,143.246,35.942,143.246Z" transform="translate(-14.472 -103.884)" fill="#f4db94"/>
        <path id="Pfad_279-10" data-name="Pfad 279" d="M35.928,14.774A18.478,18.478,0,0,1,54.38,32.9c0-.119.01-.262.01-.38a18.463,18.463,0,0,0-36.925-.176c0,.12-.012.721-.009.841A18.74,18.74,0,0,1,35.93,14.776Z" transform="translate(-14.453 -11.641)" fill="#4f3e19"/>
        <text id="_1-10" data-name="1" transform="translate(16.011 28.676)" fill="#b28a24" font-size="21" font-family="SegoeUI, Segoe UI"><tspan x="0" y="0">1</tspan></text>
      </g>
    </g>
  </g>
</svg>
