<svg id="Ebene_1-2" xmlns="http://www.w3.org/2000/svg" width="175.19" height="250.7" viewBox="0 0 175.19 250.7">
  <g id="Gruppe_174" data-name="Gruppe 174">
    <g id="Gruppe_170" data-name="Gruppe 170">
      <path id="Pfad_465" data-name="Pfad 465" d="M158.5,158.07a19.177,19.177,0,0,0-21.5-21.5,18.935,18.935,0,0,0-6.56,2.12,55.414,55.414,0,0,0-8.6-1.91c-2.31-6.16-3.96-9.68-3.96-9.68H58.6s-1.64,3.51-3.94,9.64a54.709,54.709,0,0,0-11.84,2.95A19.16,19.16,0,0,0,18.6,168.97c-2.8,12.61-.22,25,7.81,27.55,12.28,3.91,11.69-8,16.96-24.75q.75-.51,1.44-1.08c-4.65,22.14-7.09,50.09-.09,77.51H74.99V216.03h26.49V248.2h30.27c6.73-26.35,4.73-53.19.44-74.89.39.16.79.31,1.19.44,4.64,15.69,4.57,26.52,16.36,22.77,8.96-2.85,11.13-17.92,6.63-31.9a18.814,18.814,0,0,0,2.12-6.55Z" fill="#3a9946"/>
      <path id="Pfad_466" data-name="Pfad 466" d="M133.71,250.69H98.99V218.52H77.5v32.17H42.79l-.48-1.88c-4.21-16.47-5.45-34.42-3.72-53.6a8.814,8.814,0,0,1-8.01,4.55,16.294,16.294,0,0,1-4.92-.86c-8.69-2.76-12.62-14.69-9.75-29.23a21.661,21.661,0,0,1,27.17-32.74,57.691,57.691,0,0,1,9.77-2.45c2.03-5.3,3.43-8.31,3.5-8.44l.67-1.44h62.46l.67,1.44c.06.14,1.48,3.17,3.52,8.5a59.621,59.621,0,0,1,6.53,1.48,20.809,20.809,0,0,1,6.49-1.92,21.682,21.682,0,0,1,24.3,24.29,20.884,20.884,0,0,1-1.91,6.46c3.01,10.03,2.76,20.29-.69,26.98a13.591,13.591,0,0,1-7.87,7.08,16.243,16.243,0,0,1-4.92.86h0a8.69,8.69,0,0,1-7.64-4c1.65,18.99.39,36.76-3.77,53.05l-.48,1.88Zm-29.72-5h25.82c5.15-21.5,5.13-45.68-.05-71.9l-.9-4.57,4.31,1.77c.34.14.69.27,1.04.38l1.23.41.37,1.25c.86,2.9,1.57,5.67,2.19,8.12,2.52,9.87,3.83,13.6,7.61,13.6h0a11.44,11.44,0,0,0,3.4-.63,8.6,8.6,0,0,0,4.94-4.6c2.93-5.69,2.96-15.17.06-24.15l-.33-1.01.5-.94a16.269,16.269,0,0,0,1.84-5.67,16.6,16.6,0,0,0-4.02-13.2,16.775,16.775,0,0,0-14.68-5.51,16.387,16.387,0,0,0-5.68,1.84l-.92.5-1-.31a54.428,54.428,0,0,0-8.21-1.83l-1.47-.21-.52-1.39c-1.4-3.74-2.56-6.51-3.24-8.06H60.22c-.67,1.55-1.83,4.3-3.22,8.02l-.52,1.4-1.48.2a51.975,51.975,0,0,0-11.29,2.81l-1.16.44-1.05-.66a16.665,16.665,0,0,0-21.06,25.47l.9.96-.29,1.28c-2.68,12.08-.05,22.67,6.12,24.63,6.54,2.08,7.86-.63,11.01-12.98.78-3.04,1.66-6.48,2.81-10.14l.26-.83.72-.49c.47-.32.88-.63,1.26-.94l5.51-4.56-1.47,7c-5.71,27.2-5.91,52.25-.58,74.5H72.51V213.52H104v32.17Z" fill="#231f20"/>
    </g>
    <g id="Gruppe_171" data-name="Gruppe 171">
      <path id="Pfad_467" data-name="Pfad 467" d="M135.59,225.05a176.149,176.149,0,0,0-.59-33.64H41.49a176.134,176.134,0,0,0-.59,33.64H75v-9.03h26.49v9.03Z" fill="#5254a0"/>
      <path id="Pfad_468" data-name="Pfad 468" d="M137.89,227.55H98.99v-9.03H77.5v9.03H38.6l-.19-2.29a178.186,178.186,0,0,1,.6-34.12l.24-2.23h97.99l.24,2.23a178.926,178.926,0,0,1,.59,34.12l-.19,2.29Zm-33.9-5h29.28a173.665,173.665,0,0,0-.52-28.64h-89a173.749,173.749,0,0,0-.53,28.64H72.5v-9.03h31.49Z" fill="#231f20"/>
    </g>
    <path id="Pfad_469" data-name="Pfad 469" d="M152.96,145.77c-.3-.41-.62-.82-.96-1.21a16.775,16.775,0,0,0-14.68-5.51,16.387,16.387,0,0,0-5.68,1.84l-.92.5-1-.31a54.428,54.428,0,0,0-8.21-1.83l-1.47-.21-.52-1.39c-1.4-3.74-2.56-6.51-3.24-8.06H60.22c-.67,1.55-1.83,4.3-3.22,8.02l-.52,1.4-1.48.2a51.975,51.975,0,0,0-11.29,2.81l-1.16.44-1.05-.66a16.6,16.6,0,0,0-21.34,3.11,34.257,34.257,0,0,0,14.35,3.14H140.69a34.346,34.346,0,0,0,12.29-2.27Z" fill="#297c36"/>
    <g id="Gruppe_172" data-name="Gruppe 172">
      <rect id="Rechteck_189" data-name="Rechteck 189" width="170.17" height="138.75" rx="32" transform="translate(2.5 2.5)" fill="#3a9946"/>
      <path id="Pfad_470" data-name="Pfad 470" d="M140.67,143.75H34.5A34.543,34.543,0,0,1,0,109.25V34.5A34.543,34.543,0,0,1,34.5,0H140.68a34.543,34.543,0,0,1,34.5,34.5v74.75a34.543,34.543,0,0,1-34.5,34.5ZM34.5,5A29.529,29.529,0,0,0,5,34.5v74.75a29.529,29.529,0,0,0,29.5,29.5H140.68a29.529,29.529,0,0,0,29.5-29.5V34.5A29.529,29.529,0,0,0,140.68,5Z" fill="#231f20"/>
      <path id="Pfad_471" data-name="Pfad 471" d="M140.67,7.4H34.5a34.363,34.363,0,0,0-23.45,9.23A29.352,29.352,0,0,0,5,34.5V56.12l14.21-9.61L34.85,57.82,52.54,46.43,70.32,57.76,88.04,46.47l16.15,11.34L121.9,46.38l20.14,11.38,17.53-12.61,10.62,10.13V34.51a29.352,29.352,0,0,0-6.05-17.87,34.363,34.363,0,0,0-23.45-9.23Z" fill="#297c36"/>
    </g>
    <g id="Gruppe_173" data-name="Gruppe 173">
      <circle id="Ellipse_58" data-name="Ellipse 58" cx="12.5" cy="12.5" r="12.5" transform="translate(37.59 63.66)" fill="#231f20"/>
      <circle id="Ellipse_59" data-name="Ellipse 59" cx="12.5" cy="12.5" r="12.5" transform="translate(112.59 63.66)" fill="#231f20"/>
      <circle id="Ellipse_60" data-name="Ellipse 60" cx="3.38" cy="3.38" r="3.38" transform="translate(43.33 69)" fill="#fff"/>
      <circle id="Ellipse_61" data-name="Ellipse 61" cx="3.38" cy="3.38" r="3.38" transform="translate(118.87 69)" fill="#fff"/>
    </g>
    <path id="Pfad_472" data-name="Pfad 472" d="M140.67,0H34.5A34.543,34.543,0,0,0,0,34.5V52.1L19.21,39.11,34.85,50.42,52.54,39.03,70.32,50.36,88.04,39.07l16.15,11.34L121.9,38.98l20.14,11.38,17.53-12.61,15.62,14.89V34.5A34.543,34.543,0,0,0,140.69,0Z" fill="#231f20"/>
    <path id="Pfad_473" data-name="Pfad 473" d="M104.84,109.39a38.407,38.407,0,0,1-4.72,5.18,48.354,48.354,0,0,1-5.58,4.5c-.54.38-1.11.75-1.71,1.1-.58.37-1.21.72-1.86,1.05a10.547,10.547,0,0,1-1.01.48c-.36.15-.69.32-1.08.45l-1.23.37c-.23.05-.52.09-.77.12l-.4.05-.2.02h-.15l-.02.02c-.13,0,.26.02-.3-.01-.35-.05-.65-.08-1.04-.15-.49-.12-.98-.26-1.46-.41-.45-.15-.74-.3-1.11-.45a10.546,10.546,0,0,1-1.01-.48c-.65-.33-1.28-.67-1.86-1.04-.6-.36-1.17-.72-1.71-1.1a47.508,47.508,0,0,1-5.58-4.5,38.407,38.407,0,0,1-4.72-5.18s.67.24,1.8.72,2.71,1.18,4.56,2.07c1.81.9,3.92,1.94,6.19,3.06,1.11.55,2.26,1.1,3.38,1.58a7.3,7.3,0,0,0,.84.33c.26.08.59.23.78.29a2.946,2.946,0,0,1,.5.17c.29.05.66.08.99.12-.54-.03-.15,0-.27-.02h.05l.06-.02.11-.02a2.321,2.321,0,0,0,.24-.02l.73-.21c.52-.21,1.08-.36,1.65-.63,1.13-.48,2.27-1.03,3.38-1.58,2.26-1.12,4.38-2.17,6.19-3.06,1.84-.89,3.43-1.6,4.56-2.08s1.8-.72,1.8-.72Z" fill="#231f20"/>
  </g>
</svg>
