<?xml version="1.0" encoding="utf-8"?>
<!-- Generator: Adobe Illustrator 26.3.1, SVG Export Plug-In . SVG Version: 6.00 Build 0)  -->
<svg version="1.1" id="Ebene_1-2" xmlns="http://www.w3.org/2000/svg" xmlns:xlink="http://www.w3.org/1999/xlink" x="0px" y="0px"
	 viewBox="0 0 140 200" style="enable-background:new 0 0 140 200;" xml:space="preserve">
<style type="text/css">
	.st0{fill:#3A9946;}
	.st1{fill:#231F20;}
	.st2{fill:#5254A0;}
	.st3{fill:#297C36;}
	.st4{fill:#FFFFFF;}
</style>
<g id="Gruppe_174">
	<g id="Gruppe_170">
		<path id="Pfad_465" class="st0" d="M126.6,126.1c1.1-8.4-4.8-16.1-13.2-17.2c-1.3-0.2-2.6-0.2-4,0c-1.8,0.2-3.6,0.8-5.2,1.7
			c-2.2-0.7-4.5-1.2-6.9-1.5c-1.8-4.9-3.2-7.7-3.2-7.7H46.9c0,0-1.3,2.8-3.1,7.7c-3.2,0.4-6.4,1.2-9.4,2.4
			c-7.1-4.5-16.6-2.3-21.1,4.8c-3.7,5.9-3,13.5,1.8,18.6c-2.2,10.1-0.2,19.9,6.2,22c9.8,3.1,9.3-6.4,13.5-19.7
			c0.4-0.3,0.8-0.6,1.1-0.9c-3.7,17.7-5.7,40-0.1,61.8h24.1v-25.7h21.1V198h24.1c5.4-21,3.8-42.4,0.4-59.7c0.3,0.1,0.6,0.2,0.9,0.4
			c3.7,12.5,3.6,21.2,13.1,18.2c7.1-2.3,8.9-14.3,5.3-25.4C125.7,129.7,126.3,127.9,126.6,126.1L126.6,126.1z"/>
		<path id="Pfad_466" class="st1" d="M106.8,200H79.1v-25.7H61.9V200H34.3l-0.4-1.5c-3.4-13.1-4.3-27.5-3-42.8
			c-1.3,2.3-3.7,3.7-6.4,3.6c-1.3,0-2.7-0.3-3.9-0.7c-6.9-2.2-10.1-11.7-7.8-23.3c-6.1-7.4-5-18.3,2.4-24.3
			c5.5-4.5,13.1-5.2,19.3-1.8c2.5-0.9,5.1-1.5,7.8-2c1.6-4.2,2.7-6.6,2.8-6.7l0.5-1.1h49.8l0.5,1.1c0,0.1,1.2,2.5,2.8,6.8
			c1.8,0.3,3.5,0.7,5.2,1.2c1.6-0.8,3.4-1.3,5.2-1.5c9.5-1.2,18.2,5.4,19.4,14.9c0.2,1.5,0.2,3,0,4.5c-0.2,1.8-0.7,3.5-1.5,5.2
			c2.4,8,2.2,16.2-0.6,21.5c-1.2,2.7-3.5,4.7-6.3,5.6c-1.3,0.4-2.6,0.7-3.9,0.7l0,0c-2.5,0.1-4.8-1.1-6.1-3.2
			c1.3,15.1,0.3,29.3-3,42.3L106.8,200L106.8,200z M83.1,196h20.6c4.1-17.2,4.1-36.4,0-57.4l-0.7-3.6l3.4,1.4
			c0.3,0.1,0.6,0.2,0.8,0.3l1,0.3l0.3,1c0.7,2.3,1.3,4.5,1.7,6.5c2,7.9,3.1,10.8,6.1,10.8l0,0c0.9,0,1.8-0.2,2.7-0.5
			c1.8-0.6,3.2-2,3.9-3.7c2.3-4.5,2.4-12.1,0-19.3l-0.3-0.8l0.4-0.7c0.8-1.4,1.3-2.9,1.5-4.5c0.5-3.8-0.7-7.7-3.2-10.5
			c-2.9-3.3-7.3-5-11.7-4.4c-1.6,0.2-3.1,0.7-4.5,1.5l-0.7,0.4l-0.8-0.2c-2.1-0.7-4.3-1.1-6.5-1.5l-1.2-0.2l-0.4-1.1
			c-1.1-3-2-5.2-2.6-6.4H48.2c-0.5,1.2-1.5,3.4-2.6,6.4l-0.4,1.1L44,111c-3.1,0.4-6.1,1.2-9,2.2l-0.9,0.4l-0.8-0.5
			c-6.2-3.9-14.4-2-18.3,4.2c-3.2,5.1-2.6,11.7,1.5,16.1l0.7,0.8l-0.2,1c-2.1,9.6,0,18.1,4.9,19.6c5.2,1.7,6.3-0.5,8.8-10.4
			c0.6-2.4,1.3-5.2,2.2-8.1l0.2-0.7l0.6-0.4c0.4-0.3,0.7-0.5,1-0.7L39,131l-1.2,5.6c-4.6,21.7-4.7,41.7-0.5,59.4H58v-25.7h25.1
			L83.1,196L83.1,196z"/>
	</g>
	<g id="Gruppe_171">
		<path id="Pfad_467" class="st2" d="M108.3,179.5c0.7-8.9,0.5-17.9-0.5-26.8H33.2c-1,8.9-1.2,17.9-0.5,26.8H60v-7.2h21.1v7.2H108.3
			z"/>
		<path id="Pfad_468" class="st1" d="M110.1,181.5h-31v-7.2H61.9v7.2h-31l-0.2-1.8c-0.7-9.1-0.6-18.2,0.5-27.2l0.2-1.8h78.2l0.2,1.8
			c1,9,1.2,18.2,0.5,27.2L110.1,181.5L110.1,181.5z M83.1,177.5h23.4c0.5-7.6,0.4-15.3-0.4-22.8H35c-0.8,7.6-0.9,15.2-0.4,22.8H58
			v-7.2h25.1V177.5z"/>
	</g>
	<path id="Pfad_469" class="st3" d="M122.1,116.3c-0.2-0.3-0.5-0.7-0.8-1c-2.9-3.3-7.3-5-11.7-4.4c-1.6,0.2-3.1,0.7-4.5,1.5
		l-0.7,0.4l-0.8-0.2c-2.1-0.7-4.3-1.1-6.5-1.5l-1.2-0.2l-0.4-1.1c-1.1-3-2-5.2-2.6-6.4H48.2c-0.5,1.2-1.5,3.4-2.6,6.4l-0.4,1.1
		l-1.2,0.2c-3.1,0.4-6.1,1.2-9,2.2l-0.9,0.4l-0.8-0.5c-5.5-3.5-12.7-2.4-17,2.5c3.6,1.7,7.5,2.5,11.4,2.5h84.7
		C115.7,118.1,119,117.5,122.1,116.3L122.1,116.3z"/>
	<g id="Gruppe_172">
		<path id="Rechteck_189" class="st0" d="M27.6,2h84.7c14.1,0,25.5,11.4,25.5,25.5v59.6c0,14.1-11.4,25.5-25.5,25.5H27.6
			c-14.1,0-25.5-11.4-25.5-25.5V27.5C2.1,13.4,13.5,2,27.6,2z"/>
		<path id="Pfad_470" class="st1" d="M112.3,114.7H27.6c-15.2,0-27.5-12.3-27.5-27.5V27.5C0.1,12.3,12.4,0,27.6,0h84.7
			c15.2,0,27.5,12.3,27.5,27.5v59.6C139.9,102.3,127.5,114.7,112.3,114.7L112.3,114.7z M27.6,4C14.7,4,4.1,14.5,4.1,27.5v59.6
			c0,13,10.5,23.5,23.5,23.5h84.7c13,0,23.5-10.5,23.5-23.5V27.5c0-13-10.5-23.5-23.5-23.5H27.6z"/>
		<path id="Pfad_471" class="st3" d="M112.3,5.9H27.6c-6.9,0-13.6,2.6-18.7,7.4c-3.1,4.1-4.8,9.1-4.8,14.3v17.2l11.3-7.7l12.5,9
			L42,37l14.2,9l14.1-9l12.9,9L97.4,37l16.1,9.1l14-10.1l8.5,8.1V27.5c0-5.2-1.7-10.2-4.8-14.3C126,8.5,119.3,5.9,112.3,5.9
			L112.3,5.9z"/>
	</g>
	<g id="Gruppe_173">
		<circle id="Ellipse_58" class="st1" cx="40.1" cy="60.8" r="10"/>
		<circle id="Ellipse_59" class="st1" cx="99.9" cy="60.8" r="10"/>
		<circle id="Ellipse_60" class="st4" cx="37.4" cy="57.7" r="2.7"/>
		<circle id="Ellipse_61" class="st4" cx="97.6" cy="57.7" r="2.7"/>
	</g>
	<path id="Pfad_472" class="st1" d="M112.3,0H27.6C12.4,0,0.1,12.3,0.1,27.5v14l15.3-10.4l12.5,9L42,31.1l14.2,9l14.1-9l12.9,9
		l14.1-9.1l16.1,9.1l14-10.1L139.9,42V27.5C139.9,12.3,127.6,0,112.3,0L112.3,0z"/>
	<path id="Pfad_473" class="st1" d="M83.8,87.3c-1.1,1.5-2.4,2.9-3.8,4.1c-1.4,1.3-2.9,2.5-4.5,3.6c-0.4,0.3-0.9,0.6-1.4,0.9
		c-0.5,0.3-1,0.6-1.5,0.8c-0.3,0.1-0.5,0.3-0.8,0.4c-0.3,0.1-0.6,0.3-0.9,0.4l-1,0.3c-0.2,0-0.4,0.1-0.6,0.1l-0.3,0l-0.2,0h-0.1l0,0
		c-0.1,0,0.2,0-0.2,0c-0.3,0-0.5-0.1-0.8-0.1c-0.4-0.1-0.8-0.2-1.2-0.3c-0.4-0.1-0.6-0.2-0.9-0.4c-0.3-0.1-0.5-0.2-0.8-0.4
		c-0.5-0.3-1-0.5-1.5-0.8c-0.5-0.3-0.9-0.6-1.4-0.9c-1.6-1.1-3.1-2.3-4.5-3.6c-1.4-1.3-2.6-2.6-3.8-4.1c0,0,0.5,0.2,1.4,0.6
		c0.9,0.4,2.2,0.9,3.6,1.7c1.4,0.7,3.1,1.5,4.9,2.4c0.9,0.4,1.8,0.9,2.7,1.3c0.2,0.1,0.4,0.2,0.7,0.3c0.2,0.1,0.5,0.2,0.6,0.2
		c0.1,0,0.3,0.1,0.4,0.1c0.2,0,0.5,0.1,0.8,0.1c-0.4,0-0.1,0-0.2,0h0l0,0l0.1,0c0.1,0,0.1,0,0.2,0l0.6-0.2c0.4-0.2,0.9-0.3,1.3-0.5
		c0.9-0.4,1.8-0.8,2.7-1.3c1.8-0.9,3.5-1.7,4.9-2.4c1.5-0.7,2.7-1.3,3.6-1.7C83.2,87.5,83.8,87.3,83.8,87.3L83.8,87.3z"/>
</g>
</svg>
