<svg xmlns="http://www.w3.org/2000/svg" width="47.322" height="67.732" viewBox="0 0 47.322 67.732">
  <g id="Gruppe_31" data-name="Gruppe 31" transform="translate(0)">
    <path id="Pfad_148" data-name="Pfad 148" d="M815.828,707.487a5.181,5.181,0,0,0-5.808-5.808,5.032,5.032,0,0,0-1.77.575,15.3,15.3,0,0,0-2.323-.519c-.624-1.664-1.081-2.615-1.081-2.615H788.84s-.443.946-1.064,2.6a14.612,14.612,0,0,0-3.2.794,5.176,5.176,0,0,0-6.538,7.915c-.754,3.407-.059,6.754,2.11,7.443,3.318,1.056,3.158-2.161,4.593-6.686a4.7,4.7,0,0,0,.389-.292c-1.256,5.978-1.915,13.532-.024,20.939h8.169v-8.693h7.156v8.691h8.188a46.407,46.407,0,0,0,.122-20.232c.105.043.213.081.321.119,1.253,4.239,1.235,7.164,4.42,6.151,2.418-.77,3-4.841,1.791-8.618A5.04,5.04,0,0,0,815.828,707.487Z" transform="translate(-773.009 -664.779)" fill="#bcbcbc"/>
    <path id="Pfad_149" data-name="Pfad 149" d="M807.417,730.686h-9.38V722h-5.806v8.691h-9.374l-.13-.511a42.927,42.927,0,0,1-1-14.48,2.38,2.38,0,0,1-2.161,1.232,4.411,4.411,0,0,1-1.329-.235c-2.348-.746-3.409-3.969-2.634-7.9a5.851,5.851,0,0,1,7.332-8.831,15.6,15.6,0,0,1,2.629-.675c.54-1.432.927-2.245.946-2.28l.181-.389h16.876l.181.389c.019.035.4.854.951,2.3a16.069,16.069,0,0,1,1.775.389,5.714,5.714,0,0,1,1.753-.519,5.857,5.857,0,0,1,6.562,6.562,5.638,5.638,0,0,1-.516,1.745,10.333,10.333,0,0,1-.184,7.294,3.68,3.68,0,0,1-2.129,1.91,4.381,4.381,0,0,1-1.326.235h0a2.353,2.353,0,0,1-2.067-1.081,42.8,42.8,0,0,1-1.016,14.332Zm-8.029-1.351h6.973a45.467,45.467,0,0,0-.016-19.427l-.243-1.235,1.164.481c.092.038.186.07.27.1l.332.113.1.335c.232.783.421,1.534.592,2.194.681,2.666,1.035,3.677,2.056,3.677h0a3.1,3.1,0,0,0,.919-.17,2.332,2.332,0,0,0,1.335-1.243c.791-1.537.81-4.1.019-6.527l-.089-.27.135-.254a4.338,4.338,0,0,0,.5-1.532,4.466,4.466,0,0,0-1.081-3.566,4.536,4.536,0,0,0-3.969-1.489,4.376,4.376,0,0,0-1.534.5l-.249.132-.27-.081a14.39,14.39,0,0,0-2.218-.494l-.4-.057-.141-.375c-.378-1.01-.692-1.759-.875-2.177H787.563c-.181.419-.494,1.162-.87,2.161l-.141.375-.4.054a14.2,14.2,0,0,0-3.05.751l-.316.119-.27-.178a4.5,4.5,0,0,0-5.689,6.878l.243.27-.076.349c-.724,3.263,0,6.122,1.653,6.654,1.767.562,2.123-.17,2.972-3.512.211-.81.448-1.751.759-2.739l.07-.224.195-.132c.124-.086.238-.17.34-.254l1.489-1.232-.4,1.891a45.88,45.88,0,0,0-.159,20.126h6.964v-8.685h8.507Z" transform="translate(-771.295 -662.954)" fill="#231f20"/>
    <path id="Pfad_150" data-name="Pfad 150" d="M829.289,772.528a47.585,47.585,0,0,0-.159-9.088H803.867a47.6,47.6,0,0,0-.16,9.088h9.212V770.1h7.156v2.431Z" transform="translate(-792.659 -711.722)" fill="#3c3c3c"/>
    <path id="Pfad_151" data-name="Pfad 151" d="M828.086,771.379H817.577v-2.431h-5.806v2.431H801.263l-.051-.619a48.162,48.162,0,0,1,.162-9.218l.065-.6h26.475l.068.6a48.341,48.341,0,0,1,.159,9.218Zm-9.158-1.351h7.91a47.224,47.224,0,0,0-.141-7.737H802.654a47.237,47.237,0,0,0-.14,7.737h7.907V767.6h8.507Z" transform="translate(-790.835 -709.898)" fill="#231f20"/>
    <path id="Pfad_152" data-name="Pfad 152" d="M819.265,705.991a2.773,2.773,0,0,0-.27-.33,4.536,4.536,0,0,0-3.969-1.489,4.375,4.375,0,0,0-1.534.5l-.249.132-.27-.081a14.374,14.374,0,0,0-2.218-.494l-.4-.057-.141-.375c-.378-1.01-.692-1.759-.875-2.177H794.212c-.181.419-.494,1.162-.87,2.161l-.14.376-.4.054a14.2,14.2,0,0,0-3.05.754l-.316.119-.27-.178a4.485,4.485,0,0,0-5.765.84,9.252,9.252,0,0,0,3.877.846h28.668A9.276,9.276,0,0,0,819.265,705.991Z" transform="translate(-777.943 -666.603)" fill="#3c3c3c"/>
    <rect id="Rechteck_49" data-name="Rechteck 49" width="45.972" height="37.483" rx="10" transform="translate(0.676 0.683)" fill="#bcbcbc"/>
    <path id="Pfad_153" data-name="Pfad 153" d="M801.2,610.84H772.52a9.328,9.328,0,0,1-9.32-9.317V581.328A9.328,9.328,0,0,1,772.52,572H801.2a9.328,9.328,0,0,1,9.32,9.32v20.194A9.328,9.328,0,0,1,801.2,610.84ZM772.52,573.351a7.978,7.978,0,0,0-7.969,7.97v20.194a7.977,7.977,0,0,0,7.969,7.967H801.2a7.978,7.978,0,0,0,7.969-7.967V581.328a7.977,7.977,0,0,0-7.969-7.969Z" transform="translate(-763.2 -572)" fill="#231f20"/>
    <path id="Pfad_154" data-name="Pfad 154" d="M804.888,579.43H776.206a9.282,9.282,0,0,0-6.335,2.493,7.923,7.923,0,0,0-1.621,4.828v5.838L772.086,590l4.228,3.053,4.776-3.077,4.806,3.061,4.787-3.05,4.363,3.064,4.782-3.088,5.441,3.074L810,589.625l2.866,2.737v-5.611a7.924,7.924,0,0,0-1.621-4.828A9.282,9.282,0,0,0,804.888,579.43Z" transform="translate(-766.886 -577.423)" fill="#3c3c3c"/>
    <ellipse id="Ellipse_30" data-name="Ellipse 30" cx="3.377" cy="3.377" rx="3.377" ry="3.377" transform="translate(10.155 17.206)" fill="#231f20"/>
    <ellipse id="Ellipse_31" data-name="Ellipse 31" cx="3.377" cy="3.377" rx="3.377" ry="3.377" transform="translate(30.416 17.206)" fill="#231f20"/>
    <ellipse id="Ellipse_32" data-name="Ellipse 32" cx="0.913" cy="0.913" rx="0.913" ry="0.913" transform="translate(11.706 18.649)" fill="#fff"/>
    <ellipse id="Ellipse_33" data-name="Ellipse 33" cx="0.913" cy="0.913" rx="0.913" ry="0.913" transform="translate(32.113 18.649)" fill="#fff"/>
    <path id="Pfad_155" data-name="Pfad 155" d="M842.142,684.828s-3.828-2.928-5.065-2.928S832,684.828,832,684.828Z" transform="translate(-813.414 -652.21)" fill="#231f20"/>
    <path id="Pfad_156" data-name="Pfad 156" d="M801.2,572H772.52a9.328,9.328,0,0,0-9.32,9.32v4.752l5.187-3.512,4.228,3.055,4.776-3.077L782.2,585.6l4.787-3.05,4.363,3.063,4.782-3.077,5.441,3.074,4.736-3.407,4.217,4.023v-4.9A9.328,9.328,0,0,0,801.2,572Z" transform="translate(-763.2 -572)" fill="#231f20"/>
    <rect id="Rechteck_50" data-name="Rechteck 50" width="6.754" height="1.081" transform="translate(10.442 14.236) rotate(15.95)" fill="#231f20"/>
    <rect id="Rechteck_51" data-name="Rechteck 51" width="6.754" height="1.081" transform="translate(37.192 15.271) rotate(164.05)" fill="#231f20"/>
  </g>
</svg>
