<svg id="Ebene_1-2" xmlns="http://www.w3.org/2000/svg" width="175.19" height="250.71" viewBox="0 0 175.19 250.71">
  <g id="Gruppe_155" data-name="Gruppe 155">
    <g id="Gruppe_145" data-name="Gruppe 145">
      <path id="Pfad_254" data-name="Pfad 254" d="M141.06,143.35a49.182,49.182,0,0,0-18.98-6.55c-2.31-6.16-3.96-9.68-3.96-9.68H58.83s-1.64,3.51-3.94,9.64a49.249,49.249,0,0,0-19.32,6.6c-20.2,12.45-23.32,48.6-8.92,53.18,14.3,4.55,11.15-12.34,20.12-33.35-5.66,23.1-9.62,54.4-1.8,85.03H75.24V216.05h26.49v32.17H132c7.61-29.81,4.06-60.25-1.35-83.16,8.03,20.13,5.47,35.9,19.34,31.48,14.39-4.58,11.27-40.73-8.92-53.18Z" fill="#be202e"/>
      <path id="Pfad_255" data-name="Pfad 255" d="M133.93,250.71H99.21V218.54H77.72v32.17H43.01l-.48-1.88c-4.7-18.41-5.15-37.05-3.67-53.69a8.83,8.83,0,0,1-8.06,4.64,16.294,16.294,0,0,1-4.92-.86c-5.58-1.78-9.37-7.51-10.37-15.72-1.68-13.71,4.31-33.08,18.74-41.98a51.214,51.214,0,0,1,18.82-6.73c2.03-5.3,3.44-8.31,3.5-8.44l.67-1.44H119.7l.67,1.44c.06.14,1.48,3.16,3.52,8.5a50.867,50.867,0,0,1,18.47,6.67c14.43,8.89,20.43,28.26,18.74,41.98-1.01,8.21-4.79,13.94-10.37,15.72a16.294,16.294,0,0,1-4.92.86h0a8.7,8.7,0,0,1-7.69-4.07c1.41,16.42.94,34.88-3.72,53.12l-.48,1.88Zm-29.72-5h25.82c7.09-29.67,2.96-59.83-1.83-80.08l4.75-1.5a135.255,135.255,0,0,1,5.26,17.05c2.52,9.87,3.83,13.6,7.61,13.6h0a11.44,11.44,0,0,0,3.4-.63c3.64-1.16,6.17-5.37,6.93-11.56,1.51-12.34-4.21-29.59-16.4-37.11a46.928,46.928,0,0,0-18.03-6.21l-1.47-.21-.52-1.39c-1.4-3.74-2.56-6.51-3.24-8.06H60.45c-.67,1.55-1.83,4.3-3.22,8.02l-.52,1.4-1.48.2a46.967,46.967,0,0,0-18.35,6.25c-12.2,7.52-17.92,24.77-16.4,37.11.76,6.19,3.28,10.4,6.93,11.56,6.55,2.08,7.86-.63,11.01-12.97a125.472,125.472,0,0,1,6.05-18.98l4.73,1.58c-5.08,20.74-9.52,51.6-2.27,81.93H72.75V213.54h31.49v32.17Z" fill="#231f20"/>
    </g>
    <g id="Gruppe_146" data-name="Gruppe 146">
      <circle id="Ellipse_54" data-name="Ellipse 54" cx="16" cy="16" r="16" transform="translate(72.47 154.78)" fill="#afd7d7"/>
      <path id="Pfad_256" data-name="Pfad 256" d="M88.47,189.28a18.5,18.5,0,1,1,18.5-18.5A18.522,18.522,0,0,1,88.47,189.28Zm0-31.99a13.5,13.5,0,1,0,13.5,13.5A13.514,13.514,0,0,0,88.47,157.29Z" fill="#231f20"/>
    </g>
    <g id="Gruppe_147" data-name="Gruppe 147">
      <path id="Pfad_257" data-name="Pfad 257" d="M12.6,186.26A14.689,14.689,0,1,0,25.26,173.6,14.691,14.691,0,0,0,12.6,186.26Z" fill="#eac226"/>
      <path id="Pfad_258" data-name="Pfad 258" d="M27.16,205.35h0a17.147,17.147,0,1,1,2.22-.14,18.509,18.509,0,0,1-2.22.14Zm0-29.37a12.146,12.146,0,0,0-12.09,10.59,12.086,12.086,0,0,0,2.94,9.65,12.208,12.208,0,0,0,9.14,4.13h0a12.384,12.384,0,0,0,1.6-.1,12.187,12.187,0,0,0-1.59-24.27Z" fill="#231f20"/>
    </g>
    <g id="Gruppe_148" data-name="Gruppe 148">
      <ellipse id="Ellipse_55" data-name="Ellipse 55" cx="14.64" cy="14.72" rx="14.64" ry="14.72" transform="matrix(0.707, -0.707, 0.707, 0.707, 128.783, 188.093)" fill="#eac226"/>
      <path id="Pfad_259" data-name="Pfad 259" d="M149.54,205.35h0a17.147,17.147,0,1,1,2.22-.14,18.509,18.509,0,0,1-2.22.14Zm0-29.37a12.146,12.146,0,0,0-12.09,10.59,12.086,12.086,0,0,0,2.94,9.65,12.208,12.208,0,0,0,9.14,4.13h0a12.185,12.185,0,0,0,0-24.37Z" fill="#231f20"/>
    </g>
    <g id="Gruppe_149" data-name="Gruppe 149">
      <path id="Pfad_260" data-name="Pfad 260" d="M44.95,248.21H75.22v-9.69H42.87c.57,3.23,1.26,6.47,2.08,9.69Z" fill="#eac226"/>
      <path id="Pfad_261" data-name="Pfad 261" d="M77.72,250.71H43.01l-.48-1.88c-.8-3.15-1.52-6.47-2.12-9.87l-.52-2.94H77.73v14.69Zm-30.82-5H72.72v-4.69H45.88c.32,1.59.66,3.16,1.03,4.69Z" fill="#231f20"/>
    </g>
    <g id="Gruppe_150" data-name="Gruppe 150">
      <path id="Pfad_262" data-name="Pfad 262" d="M131.89,248.21H101.62v-9.69h32.36c-.57,3.23-1.26,6.47-2.08,9.69Z" fill="#eac226"/>
      <path id="Pfad_263" data-name="Pfad 263" d="M133.83,250.71H99.11V236.02h37.84l-.52,2.94c-.6,3.39-1.32,6.71-2.12,9.87Zm-29.72-5h25.82c.37-1.53.71-3.1,1.03-4.69H104.12v4.69Z" fill="#231f20"/>
    </g>
    <path id="Pfad_264" data-name="Pfad 264" d="M143.13,147.94a28.117,28.117,0,0,0-3.38-2.47,46.928,46.928,0,0,0-18.03-6.21l-1.47-.21-.52-1.39c-1.4-3.74-2.56-6.51-3.24-8.06H60.45c-.67,1.55-1.83,4.3-3.22,8.02l-.52,1.4-1.48.2a46.967,46.967,0,0,0-18.35,6.25,27.357,27.357,0,0,0-3.5,2.57c.39.01.77.03,1.16.03l106.18-.03c.81,0,1.62-.04,2.42-.1Z" fill="#8c181d"/>
    <g id="Gruppe_151" data-name="Gruppe 151">
      <path id="Pfad_265" data-name="Pfad 265" d="M140.66,2.5,34.48,2.53A32,32,0,0,0,2.49,34.54l.02,74.75a32,32,0,0,0,32.01,31.99l106.18-.03a32,32,0,0,0,31.99-32.01l-.02-74.75A32,32,0,0,0,140.66,2.5Z" fill="#be202e"/>
      <path id="Pfad_266" data-name="Pfad 266" d="M140.71,143.75l-106.18.03A34.537,34.537,0,0,1,.02,109.29L0,34.54A34.55,34.55,0,0,1,34.49.03L140.66,0a34.55,34.55,0,0,1,34.51,34.49l.02,74.75a34.55,34.55,0,0,1-34.49,34.51ZM34.49,5.03A29.529,29.529,0,0,0,5,34.54l.02,74.75a29.529,29.529,0,0,0,29.51,29.49l106.18-.03a29.529,29.529,0,0,0,29.49-29.51l-.02-74.75A29.522,29.522,0,0,0,140.67,5L34.49,5.03Z" fill="#231f20"/>
    </g>
    <g id="Gruppe_152" data-name="Gruppe 152">
      <path id="Pfad_267" data-name="Pfad 267" d="M142.43,45.01V2.52H114.34L108.1,47.77H68.84L62.6,2.52H34.51V45.01l-32,48v13.32l48.83,34.94H125.6l46.7-34.94V93.01Z" fill="#eac226"/>
      <path id="Pfad_268" data-name="Pfad 268" d="M126.43,143.76H50.54L.01,107.62V92.26l32-48V.02H64.78l6.24,45.25h34.9L112.16.02h32.77V44.3l29.87,48v15.28l-48.37,36.18Zm-74.29-5h72.63l45.03-33.68V93.73l-29.87-48V5.02H116.52l-6.24,45.25H66.66L60.42,5.02H37.01V45.77l-32,48v11.28l47.13,33.72Z" fill="#231f20"/>
    </g>
    <path id="Pfad_269" data-name="Pfad 269" d="M123.77,142.97,105.4,123.23H71.54L53.17,142.97l-3.66-3.41,19.86-21.33h38.2l19.86,21.33Z" fill="#231f20"/>
    <g id="Gruppe_153" data-name="Gruppe 153">
      <rect id="Rechteck_175" data-name="Rechteck 175" width="34" height="9.22" transform="translate(35.43 79.36) rotate(-0.13)" fill="#afd7d7"/>
      <path id="Pfad_270" data-name="Pfad 270" d="M71.97,90.99l-39,.09-.03-14.22,39-.09ZM37.96,86.07l29-.07V81.78l-29.01.07v4.22Z" fill="#231f20"/>
    </g>
    <g id="Gruppe_154" data-name="Gruppe 154">
      <rect id="Rechteck_176" data-name="Rechteck 176" width="34" height="9.22" transform="matrix(-1, -0.01, 0.01, -1, 138.916, 88.715)" fill="#afd7d7"/>
      <path id="Pfad_271" data-name="Pfad 271" d="M102.39,90.83l.15-14.22,39,.41-.15,14.22-39-.41Zm5.1-9.17-.04,4.22,29,.3.04-4.22-29-.3Z" fill="#231f20"/>
    </g>
  </g>
</svg>
