<?xml version="1.0" encoding="utf-8"?>
<!-- Generator: Adobe Illustrator 26.3.1, SVG Export Plug-In . SVG Version: 6.00 Build 0)  -->
<svg version="1.1" id="Ebene_1-2" xmlns="http://www.w3.org/2000/svg" xmlns:xlink="http://www.w3.org/1999/xlink" x="0px" y="0px"
	 viewBox="0 0 140 200" style="enable-background:new 0 0 140 200;" xml:space="preserve">
<style type="text/css">
	.st0{fill:#BE202E;}
	.st1{fill:#231F20;}
	.st2{fill:#AFD7D7;}
	.st3{fill:#EAC226;}
	.st4{fill:#8C181D;}
</style>
<g id="Gruppe_155">
	<g id="Gruppe_145">
		<path id="Pfad_254" class="st0" d="M112.7,114.4c-4.6-2.8-9.8-4.5-15.1-5.2c-1.8-4.9-3.2-7.7-3.2-7.7H47.1c0,0-1.3,2.8-3.1,7.7
			c-5.4,0.7-10.7,2.5-15.4,5.3c-16.1,9.9-18.6,38.8-7.1,42.4c11.4,3.6,8.9-9.8,16.1-26.6c-4.5,18.4-7.7,43.4-1.4,67.8h24.1v-25.7
			h21.1V198h24.1c6.1-23.8,3.2-48.1-1.1-66.3c6.4,16.1,4.4,28.6,15.4,25.1C131.3,153.1,128.8,124.3,112.7,114.4L112.7,114.4z"/>
		<path id="Pfad_255" class="st1" d="M107,200H79.3v-25.7H62.1V200H34.4l-0.4-1.5c-3.7-14.7-4.1-29.6-2.9-42.8
			c-1.3,2.4-3.8,3.8-6.4,3.7c-1.3,0-2.7-0.3-3.9-0.7c-4.5-1.4-7.5-6-8.3-12.5c-1.3-10.9,3.4-26.4,14.9-33.5c4.6-2.8,9.7-4.6,15-5.4
			c1.6-4.2,2.7-6.6,2.8-6.7l0.5-1.1h49.8l0.5,1.1c0,0.1,1.2,2.5,2.8,6.8c5.2,0.8,10.2,2.6,14.7,5.3c11.5,7.1,16.3,22.5,14.9,33.5
			c-0.8,6.5-3.8,11.1-8.3,12.5c-1.3,0.4-2.6,0.7-3.9,0.7l0,0c-2.5,0.1-4.8-1.1-6.1-3.2c1.1,13.1,0.7,27.8-3,42.4L107,200L107,200z
			 M83.3,196h20.6c5.7-23.7,2.4-47.7-1.5-63.9l3.8-1.2c1.7,4.4,3.1,9,4.2,13.6c2,7.9,3.1,10.8,6.1,10.8l0,0c0.9,0,1.8-0.2,2.7-0.5
			c2.9-0.9,4.9-4.3,5.5-9.2c1.2-9.8-3.4-23.6-13.1-29.6c-4.4-2.6-9.3-4.3-14.4-5l-1.2-0.2l-0.4-1.1c-1.1-3-2-5.2-2.6-6.4H48.3
			c-0.5,1.2-1.5,3.4-2.6,6.4l-0.4,1.1l-1.2,0.2c-5.2,0.6-10.2,2.3-14.6,5c-9.7,6-14.3,19.8-13.1,29.6c0.6,4.9,2.6,8.3,5.5,9.2
			c5.2,1.7,6.3-0.5,8.8-10.3c1.2-5.2,2.8-10.2,4.8-15.1l3.8,1.3c-4.1,16.5-7.6,41.2-1.8,65.4h20.6v-25.7h25.1L83.3,196L83.3,196z"/>
	</g>
	<g id="Gruppe_146">
		<circle id="Ellipse_54" class="st2" cx="70.7" cy="136.2" r="12.8"/>
		<path id="Pfad_256" class="st1" d="M70.7,151c-8.2,0-14.8-6.6-14.8-14.8s6.6-14.8,14.8-14.8s14.8,6.6,14.8,14.8l0,0
			C85.4,144.4,78.8,151,70.7,151z M70.7,125.5c-5.9,0-10.8,4.8-10.8,10.8c0,5.9,4.8,10.8,10.8,10.8c5.9,0,10.8-4.8,10.8-10.8
			C81.5,130.3,76.6,125.5,70.7,125.5z"/>
	</g>
	<g id="Gruppe_147">
		<path id="Pfad_257" class="st3" d="M10.2,148.6c-0.8,6.4,3.7,12.3,10.1,13.1c6.4,0.8,12.3-3.7,13.1-10.1
			c0.8-6.4-3.7-12.3-10.1-13.1c-1-0.1-2-0.1-3,0C15,139.2,10.9,143.3,10.2,148.6z"/>
		<path id="Pfad_258" class="st1" d="M21.8,163.8L21.8,163.8c-7.6,0-13.7-6.2-13.7-13.7c0-7.6,6.2-13.7,13.7-13.7
			s13.7,6.2,13.7,13.7c0,6.9-5.1,12.7-11.9,13.5C23,163.8,22.4,163.8,21.8,163.8z M21.8,140.4c-4.9,0-9,3.6-9.6,8.4
			c-0.4,2.8,0.5,5.6,2.3,7.7c1.8,2.1,4.5,3.3,7.3,3.3l0,0c0.4,0,0.9,0,1.3-0.1c5.3-0.7,9.1-5.6,8.4-10.9
			C30.8,144,26.7,140.4,21.8,140.4L21.8,140.4z"/>
	</g>
	<g id="Gruppe_148">
		
			<ellipse id="Ellipse_55" transform="matrix(0.7071 -0.7071 0.7071 0.7071 -71.1559 128.4013)" class="st3" cx="119.4" cy="150.1" rx="11.7" ry="11.7"/>
		<path id="Pfad_259" class="st1" d="M119.4,163.8L119.4,163.8c-7.6,0-13.7-6.2-13.7-13.7c0-7.6,6.2-13.7,13.7-13.7
			c7.6,0,13.7,6.2,13.7,13.7c0,6.9-5.1,12.7-11.9,13.5C120.6,163.8,120,163.8,119.4,163.8z M119.4,140.4c-4.9,0-9,3.6-9.6,8.4
			c-0.4,2.8,0.5,5.6,2.3,7.7c1.8,2.1,4.5,3.3,7.3,3.3l0,0c5.4,0,9.7-4.4,9.7-9.7C129.1,144.7,124.8,140.4,119.4,140.4L119.4,140.4z"
			/>
	</g>
	<g id="Gruppe_149">
		<path id="Pfad_260" class="st3" d="M36,198h24.1v-7.7H34.3C34.8,192.9,35.3,195.4,36,198z"/>
		<path id="Pfad_261" class="st1" d="M62.1,200H34.4l-0.4-1.5c-0.6-2.5-1.2-5.2-1.7-7.9l-0.4-2.3h30.2L62.1,200L62.1,200z M37.5,196
			h20.6v-3.7H36.7C37,193.5,37.2,194.8,37.5,196L37.5,196z"/>
	</g>
	<g id="Gruppe_150">
		<path id="Pfad_262" class="st3" d="M105.3,198H81.2v-7.7H107C106.5,192.9,106,195.4,105.3,198L105.3,198z"/>
		<path id="Pfad_263" class="st1" d="M106.9,200H79.2v-11.7h30.2l-0.4,2.3c-0.5,2.7-1.1,5.4-1.7,7.9L106.9,200z M83.2,196h20.6
			c0.3-1.2,0.6-2.5,0.8-3.7H83.2L83.2,196L83.2,196z"/>
	</g>
	<path id="Pfad_264" class="st4" d="M114.3,118c-0.8-0.7-1.7-1.4-2.7-2c-4.4-2.6-9.3-4.3-14.4-5l-1.2-0.2l-0.4-1.1
		c-1.1-3-2-5.2-2.6-6.4H48.3c-0.5,1.2-1.5,3.4-2.6,6.4l-0.4,1.1l-1.2,0.2c-5.2,0.6-10.2,2.3-14.6,5c-1,0.6-1.9,1.3-2.8,2.1
		c0.3,0,0.6,0,0.9,0l84.7,0C113,118.1,113.7,118.1,114.3,118L114.3,118z"/>
	<g id="Gruppe_151">
		<path id="Pfad_265" class="st0" d="M112.3,2L27.6,2C13.5,2,2.1,13.5,2.1,27.6v0l0,59.6c0,14.1,11.4,25.5,25.5,25.5l84.7,0
			c14.1,0,25.5-11.4,25.5-25.5l0,0l0-59.6C137.9,13.4,126.4,2,112.3,2L112.3,2z"/>
		<path id="Pfad_266" class="st1" d="M112.4,114.7l-84.7,0c-15.2,0-27.5-12.3-27.5-27.5l0-59.6C0.1,12.4,12.4,0.1,27.6,0l84.7,0
			c15.2,0,27.5,12.3,27.5,27.5l0,59.6C139.9,102.3,127.6,114.6,112.4,114.7L112.4,114.7z M27.6,4C14.6,4,4.1,14.6,4.1,27.6l0,59.6
			c0,13,10.5,23.5,23.5,23.5l84.7,0c13,0,23.5-10.5,23.5-23.5l0-59.6c0-13-10.5-23.5-23.5-23.5L27.6,4z"/>
	</g>
	<g id="Gruppe_152">
		<path id="Pfad_267" class="st3" d="M113.7,35.9V2H91.3l-5,36.1H55L50.1,2H27.7v33.9L2.1,74.2v10.6l39,27.9h59.2l37.3-27.9V74.2
			L113.7,35.9z"/>
		<path id="Pfad_268" class="st1" d="M101,114.7H40.4L0.1,85.9V73.6l25.5-38.3V0h26.1l5,36.1h27.8l5-36.1h26.1v35.3l23.8,38.3v12.2
			L101,114.7L101,114.7z M41.7,110.7h57.9l35.9-26.9v-9.1l-23.8-38.3V4H93.1l-5,36.1H53.3L48.3,4H29.6v32.5L4.1,74.8v9L41.7,110.7
			L41.7,110.7z"/>
	</g>
	<path id="Pfad_269" class="st1" d="M98.9,114.1L84.2,98.3h-27l-14.7,15.7l-2.9-2.7l15.8-17h30.5l15.8,17L98.9,114.1z"/>
	<g id="Gruppe_153">
		
			<rect id="Rechteck_175" x="28.4" y="63.3" transform="matrix(1 -2.268920e-03 2.268920e-03 1 -0.1518 9.536719e-02)" class="st2" width="27.1" height="7.4"/>
		<path id="Pfad_270" class="st1" d="M57.5,72.6l-31.1,0.1l0-11.3l31.1-0.1L57.5,72.6z M30.4,68.7l23.1-0.1v-3.4l-23.1,0.1
			L30.4,68.7L30.4,68.7z"/>
	</g>
	<g id="Gruppe_154">
		
			<rect id="Rechteck_176" x="93.7" y="53.4" transform="matrix(9.999500e-03 -0.9999 0.9999 9.999500e-03 29.4872 163.6992)" class="st2" width="7.4" height="27.1"/>
		<path id="Pfad_271" class="st1" d="M81.8,72.5l0.1-11.3l31.1,0.3l-0.1,11.3L81.8,72.5L81.8,72.5z M85.9,65.1l0,3.4l23.1,0.2l0-3.4
			C109,65.4,85.9,65.1,85.9,65.1z"/>
	</g>
</g>
</svg>
