<?xml version="1.0" encoding="UTF-8"?><svg id="Ebene_2" xmlns="http://www.w3.org/2000/svg" viewBox="0 0 248.73 192.37"><defs><style>.cls-1{fill:none;}.cls-1,.cls-2{stroke:#000;stroke-miterlimit:10;}.cls-2{fill:#404040;stroke-width:3px;}</style></defs><g id="Ebene_1-2"><g><g><polygon class="cls-2" points="175.26 48.24 73.47 48.24 1.5 90.02 1.5 149.1 73.47 190.87 175.26 190.87 247.23 149.1 247.23 90.02 175.26 48.24"/><g><rect class="cls-1" x="73.95" y="173.1" width="100.69" height="18.16"/><polyline class="cls-1" points="174.95 191.25 246.09 149.44 246.4 131.4 174.64 173.1"/><polyline class="cls-1" points="73.95 173.1 2.58 131.32 2.74 148.85 73.95 191.25"/></g></g><g><polygon class="cls-2" points="169.13 1.5 80.94 1.5 18.58 37.7 18.58 88.89 80.94 125.08 169.13 125.08 231.49 88.89 231.49 37.7 169.13 1.5"/><g><rect class="cls-1" x="81.35" y="109.68" width="87.24" height="15.73"/><polyline class="cls-1" points="168.86 125.41 230.5 89.19 230.77 73.56 168.59 109.68"/><polyline class="cls-1" points="81.35 109.68 19.51 73.48 19.65 88.67 81.35 125.41"/></g></g></g></g></svg>
