<svg id="Logo" xmlns="http://www.w3.org/2000/svg" width="67.384" height="67.381" viewBox="0 0 67.384 67.381">
  <g id="Gruppe_160" data-name="Gruppe 160" transform="translate(1 1)">
    <g id="Gruppe_157" data-name="Gruppe 157" transform="translate(0 16.139)">
      <path id="Pfad_272" data-name="Pfad 272" d="M46.8,55.6H20.151L1,70.022v20.4l19.151,14.422H46.8L66.384,90.42v-20.4Z" transform="translate(-1 -55.6)" fill="#404040" stroke="#000" stroke-miterlimit="10" stroke-width="2"/>
      <g id="Gruppe_156" data-name="Gruppe 156" transform="translate(0.287 28.681)">
        <rect id="Rechteck_177" data-name="Rechteck 177" width="26.52" height="6.269" transform="translate(18.992 14.425)" fill="none" stroke="#000" stroke-miterlimit="10" stroke-width="1"/>
        <path id="Pfad_273" data-name="Pfad 273" d="M155.94,173.395l19.284-14.437.083-6.228-19.367,14.4" transform="translate(-110.428 -152.7)" fill="none" stroke="#000" stroke-miterlimit="10" stroke-width="1"/>
        <path id="Pfad_274" data-name="Pfad 274" d="M20.962,167.055,1.97,152.63l.044,6.051,18.947,14.644" transform="translate(-1.97 -152.63)" fill="none" stroke="#000" stroke-miterlimit="10" stroke-width="1"/>
      </g>
    </g>
    <g id="Gruppe_159" data-name="Gruppe 159" transform="translate(4.543)">
      <path id="Pfad_275" data-name="Pfad 275" d="M56.431,1H32.964L16.37,13.5V31.171l16.594,12.5H56.739l16.284-12.5V13.5Z" transform="translate(-16.37 -1)" fill="#404040" stroke="#000" stroke-miterlimit="10" stroke-width="2"/>
      <g id="Gruppe_158" data-name="Gruppe 158" transform="translate(0.248 24.853)">
        <rect id="Rechteck_178" data-name="Rechteck 178" width="23.665" height="5.433" transform="translate(16.455 12.498)" fill="none" stroke="#000" stroke-miterlimit="10" stroke-width="1"/>
        <path id="Pfad_276" data-name="Pfad 276" d="M152.94,103.064l16.021-12.506.074-5.4L152.94,97.634" transform="translate(-112.82 -85.136)" fill="none" stroke="#000" stroke-miterlimit="10" stroke-width="1"/>
        <path id="Pfad_277" data-name="Pfad 277" d="M33.665,97.578,17.21,85.08l.038,5.241,16.417,12.687" transform="translate(-17.21 -85.08)" fill="none" stroke="#000" stroke-miterlimit="10" stroke-width="1"/>
      </g>
    </g>
  </g>
</svg>
