<svg xmlns="http://www.w3.org/2000/svg" width="47.325" height="67.73" viewBox="0 0 47.325 67.73">
  <g id="Gruppe_33" data-name="Gruppe 33" transform="translate(0.001)">
    <path id="Pfad_184" data-name="Pfad 184" d="M814.228,320.565a13.256,13.256,0,0,0-5.133-1.769c-.624-1.664-1.081-2.615-1.081-2.615h-16s-.443.946-1.064,2.6a13.333,13.333,0,0,0-5.222,1.783c-5.454,3.363-6.3,13.132-2.41,14.369s3.012-3.334,5.435-9.01c-1.529,6.24-2.6,14.7-.486,22.963h8.177V340.2H803.6v8.688h8.18c2.056-8.05,1.1-16.277-.367-22.463,2.161,5.438,1.48,9.7,5.227,8.5C820.528,333.691,819.685,323.928,814.228,320.565Z" transform="translate(-776.126 -281.838)" fill="#3c3c3c"/>
    <path id="Pfad_185" data-name="Pfad 185" d="M810.484,347.721H801.1v-8.688H795.3v8.688h-9.377l-.13-.508a43.309,43.309,0,0,1-.994-14.5,2.388,2.388,0,0,1-2.177,1.251,4.4,4.4,0,0,1-1.329-.232c-1.507-.481-2.529-2.029-2.8-4.247-.454-3.7,1.167-8.937,5.063-11.346a13.778,13.778,0,0,1,5.084-1.818c.54-1.432.929-2.245.946-2.283l.181-.386h16.876l.181.386c.019.038.4.856.951,2.3a13.744,13.744,0,0,1,4.99,1.8c3.9,2.4,5.519,7.634,5.065,11.346-.27,2.218-1.294,3.766-2.8,4.247a4.37,4.37,0,0,1-1.326.232h0a2.345,2.345,0,0,1-2.077-1.1,43.327,43.327,0,0,1-1.005,14.35Zm-8.029-1.351h6.975c1.915-8.013.81-16.16-.495-21.634l1.286-.405a36.449,36.449,0,0,1,1.418,4.606c.681,2.666,1.035,3.674,2.056,3.674h0a3.107,3.107,0,0,0,.919-.17c.983-.311,1.667-1.451,1.872-3.123.408-3.334-1.137-7.994-4.433-10.025a12.664,12.664,0,0,0-4.863-1.678l-.4-.057-.141-.373c-.378-1.01-.692-1.759-.875-2.177H790.649c-.181.416-.495,1.159-.87,2.161l-.14.378-.4.054a12.7,12.7,0,0,0-4.957,1.688c-3.3,2.031-4.841,6.692-4.433,10.025.205,1.672.889,2.812,1.872,3.123,1.77.565,2.121-.167,2.972-3.512a33.8,33.8,0,0,1,1.621-5.133l1.278.424c-1.372,5.6-2.572,13.943-.616,22.133h6.975v-8.669h8.5Z" transform="translate(-774.306 -279.992)" fill="#231f20"/>
    <ellipse id="Ellipse_38" data-name="Ellipse 38" cx="4.322" cy="4.322" rx="4.322" ry="4.322" transform="translate(19.575 41.817)" fill="#bcbcbc"/>
    <path id="Pfad_186" data-name="Pfad 186" d="M838.151,351.346a5,5,0,1,1,5-5A5,5,0,0,1,838.151,351.346Zm0-8.645a3.647,3.647,0,1,0,3.644,3.647A3.647,3.647,0,0,0,838.151,342.7Z" transform="translate(-814.254 -300.209)" fill="#231f20"/>
    <ellipse id="Ellipse_39" data-name="Ellipse 39" cx="3.955" cy="3.977" rx="3.955" ry="3.977" transform="translate(1.726 50.823) rotate(-44.99)" fill="#bcbcbc"/>
    <path id="Pfad_187" data-name="Pfad 187" d="M777.857,369.386h0a4.633,4.633,0,1,1,.6-.038A5.006,5.006,0,0,1,777.857,369.386Zm0-7.934a3.292,3.292,0,1,0,0,6.584h0a3.815,3.815,0,0,0,.43-.027,3.292,3.292,0,0,0-.43-6.557Z" transform="translate(-770.523 -313.908)" fill="#231f20"/>
    <ellipse id="Ellipse_40" data-name="Ellipse 40" cx="3.955" cy="3.977" rx="3.955" ry="3.977" transform="matrix(0.707, -0.707, 0.707, 0.707, 34.782, 50.805)" fill="#bcbcbc"/>
    <path id="Pfad_188" data-name="Pfad 188" d="M900.237,369.386h0a4.633,4.633,0,1,1,.6-.038A5.012,5.012,0,0,1,900.237,369.386Zm0-7.934a3.292,3.292,0,1,0,0,6.584h0a3.872,3.872,0,0,0,.43-.027,3.292,3.292,0,0,0-.43-6.557Z" transform="translate(-859.842 -313.908)" fill="#231f20"/>
    <path id="Pfad_189" data-name="Pfad 189" d="M806.615,430.2h8.178V427.58H806.05C806.207,428.453,806.39,429.328,806.615,430.2Z" transform="translate(-794.475 -363.144)" fill="#bcbcbc"/>
    <path id="Pfad_190" data-name="Pfad 190" d="M813.293,429.049h-9.377l-.13-.508c-.219-.848-.411-1.748-.575-2.666l-.14-.794h10.222Zm-8.326-1.351h6.975v-1.267h-7.251C804.777,426.863,804.869,427.284,804.967,427.7Z" transform="translate(-792.3 -361.319)" fill="#231f20"/>
    <path id="Pfad_191" data-name="Pfad 191" d="M872.98,430.2H864.8V427.58h8.742C873.388,428.453,873.2,429.328,872.98,430.2Z" transform="translate(-837.353 -363.144)" fill="#bcbcbc"/>
    <path id="Pfad_192" data-name="Pfad 192" d="M871.674,429.049H862.3V425.08h10.222l-.14.794c-.162.916-.354,1.813-.573,2.666Zm-8.029-1.351h6.975c.1-.413.192-.837.27-1.267h-7.24Z" transform="translate(-835.529 -361.319)" fill="#231f20"/>
    <path id="Pfad_193" data-name="Pfad 193" d="M826.26,323.622a7.385,7.385,0,0,0-.913-.667,12.664,12.664,0,0,0-4.863-1.678l-.4-.057-.141-.373c-.378-1.01-.691-1.759-.875-2.177H803.943c-.181.416-.494,1.159-.87,2.161l-.141.378-.4.054a12.7,12.7,0,0,0-4.957,1.688,7.455,7.455,0,0,0-.946.694h29C825.828,323.649,826.044,323.641,826.26,323.622Z" transform="translate(-787.6 -283.656)" fill="#3c3c3c"/>
    <path id="Pfad_194" data-name="Pfad 194" d="M803.007,191.57H774.325a8.645,8.645,0,0,0-8.645,8.645v20.194a8.645,8.645,0,0,0,8.645,8.645h28.685a8.645,8.645,0,0,0,8.645-8.645V200.218A8.645,8.645,0,0,0,803.007,191.57Z" transform="translate(-765.011 -190.892)" fill="#3c3c3c"/>
    <path id="Pfad_195" data-name="Pfad 195" d="M801.218,227.894H772.533a9.334,9.334,0,0,1-9.323-9.318V198.383a9.328,9.328,0,0,1,9.315-9.323h28.685a9.328,9.328,0,0,1,9.323,9.315v20.194a9.326,9.326,0,0,1-9.315,9.326Zm-28.7-37.473a7.975,7.975,0,0,0-7.967,7.972v20.194a7.98,7.98,0,0,0,7.972,7.967h28.682a7.975,7.975,0,0,0,7.967-7.969V198.391a7.975,7.975,0,0,0-7.972-7.967Z" transform="translate(-763.208 -189.06)" fill="#231f20"/>
    <path id="Pfad_196" data-name="Pfad 196" d="M803.5,203.061V191.58h-7.586L794.223,203.8h-10.6l-1.688-12.224h-7.586v11.481L765.7,216.029v3.6l13.191,9.436h20.061l12.616-9.436v-3.6Z" transform="translate(-765.025 -190.899)" fill="#bcbcbc"/>
    <path id="Pfad_197" data-name="Pfad 197" d="M797.352,227.914h-20.5L763.2,218.148V214l8.645-12.967V189.08h8.861l1.688,12.224h9.428l1.686-12.224h8.85v11.965l8.072,12.967v4.128Zm-20.069-1.351h19.632l12.157-9.1V214.4L801,201.431v-11h-6.322l-1.688,12.224H781.206l-1.686-12.224H773.2v11.011l-8.645,12.967v3.045Z" transform="translate(-763.201 -189.075)" fill="#231f20"/>
    <path id="Pfad_198" data-name="Pfad 198" d="M832.761,313.981l-4.965-5.33h-9.145l-4.963,5.33-.989-.919,5.363-5.762h10.322l5.365,5.762Z" transform="translate(-799.328 -275.357)" fill="#231f20"/>
    <rect id="Rechteck_53" data-name="Rechteck 53" width="9.185" height="2.491" transform="translate(10.354 19.826) rotate(21.84)" fill="#bcbcbc"/>
    <path id="Pfad_199" data-name="Pfad 199" d="M804.669,266.623l-9.779-3.917,1.429-3.566,9.782,3.917Zm-8.023-4.668,7.272,2.912.424-1.056-7.262-2.915Z" transform="translate(-786.33 -240.208)" fill="#231f20"/>
    <rect id="Rechteck_54" data-name="Rechteck 54" width="9.185" height="2.491" transform="translate(37.67 22.142) rotate(158.16)" fill="#bcbcbc"/>
    <path id="Pfad_200" data-name="Pfad 200" d="M865.829,266.623l-1.429-3.566,9.779-3.917,1.429,3.566Zm.327-2.812.424,1.056,7.272-2.912-.424-1.059Z" transform="translate(-837.061 -240.208)" fill="#231f20"/>
  </g>
</svg>
