<svg xmlns="http://www.w3.org/2000/svg" width="176.153" height="285.697" viewBox="0 0 176.153 285.697">
  <g id="Player_4" transform="translate(0 0.032)">
    <g id="Ebene_1" data-name="Ebene 1">
      <path id="Pfad_542" data-name="Pfad 542" d="M151.56,211.21c-.14-11.71-5.87-26.06-17.11-32.89a47.55,47.55,0,0,0-18.22-6.19c-2.22-5.83-3.8-9.16-3.8-9.16H55.52s-1.59,3.34-3.81,9.17a47.54,47.54,0,0,0-18.12,6.18c-11.24,6.83-17,21.18-17.11,32.89a35.52,35.52,0,0,1,20.94,8c1.5-5.25,2.92-12.15,5.92-19.74-5.11,21.58-8.38,50.09-1.14,78H71.26v-30.4H96.69v30.42h29.06c7.29-28.15,3.9-56.9-1.28-78.56,3.15,7.81,4.62,14.93,6.15,20.3a35.52,35.52,0,0,1,20.94-8.02Z" fill="#b3301c"/>
      <path id="Pfad_543" data-name="Pfad 543" d="M128.33,280.75H95V249.87H74.38v30.88H41.05l-.46-1.8c-5.05-19.8-5-39.86-3-57l-1.05-.9a33,33,0,0,0-19.38-7.56H14.78v-2.43c.14-12.11,5.84-27.75,18.25-35.4a48.79,48.79,0,0,1,17.63-6.38c2-5.14,3.32-8.05,3.38-8.18l.65-1.38h60l.65,1.38c.06.13,1.42,3,3.38,8.16a49,49,0,0,1,17.73,6.4c12.41,7.65,18.11,23.29,18.25,35.4v2.44h-2.44A33,33,0,0,0,132.9,221l-1.14,1c2,17.18,2.08,37.18-3,56.94ZM99.81,276h24.78c6.8-28.44,2.85-57.36-1.73-76.79l4.56-1.43a128.779,128.779,0,0,1,5,16.35q.15.53.27,1a38.39,38.39,0,0,1,17.05-6.28c-.76-10.16-5.83-22.93-15.87-29.11a44.79,44.79,0,0,0-17.3-6l-1.41-.2-.49-1.33c-1.35-3.59-2.47-6.25-3.12-7.74H57.79c-.65,1.49-1.77,4.15-3.12,7.76l-.5,1.32-1.4.21a44.79,44.79,0,0,0-17.2,5.94c-10,6.18-15.11,18.95-15.87,29.11a38.35,38.35,0,0,1,17.05,6.28l.27-1.08a133.478,133.478,0,0,1,4.8-15.75l4.58,1.42c-4.5,19.28-8.35,48-1.61,76.23H69.58V245.08H99.81Z" fill="#231f20"/>
      <path id="Pfad_544" data-name="Pfad 544" d="M10,225.14A14.1,14.1,0,1,0,22.19,213,14.1,14.1,0,0,0,10,225.14Z" fill="#ebb887"/>
      <path id="Pfad_545" data-name="Pfad 545" d="M24,243.47h0a16.42,16.42,0,1,1,2.13-.13,17,17,0,0,1-2.13.13Zm0-28.19a13.072,13.072,0,0,0-1.528.09A11.7,11.7,0,0,0,24,238.67h0a11.341,11.341,0,0,0,1.53-.1A11.7,11.7,0,0,0,24,215.28Z" fill="#231f20"/>
      <path id="Pfad_546" data-name="Pfad 546" d="M39.39,267.41H35.5a7.91,7.91,0,0,0-7.91,7.91h0a7.91,7.91,0,0,0,7.91,7.92H71.85V261.47H39.41C39.58,263.52,39.13,265.52,39.39,267.41Z" fill="#b3301c"/>
      <path id="Pfad_547" data-name="Pfad 547" d="M74.25,285.64H35.5a10.32,10.32,0,0,1,0-20.63h1.44v-.83a17.71,17.71,0,0,0,0-2.51l-.22-2.6H74.25ZM35.5,269.81a5.52,5.52,0,0,0,0,11h34v-17H41.81v.6a14.18,14.18,0,0,0,0,2.61l.38,2.73Z" fill="#231f20"/>
      <path id="Pfad_548" data-name="Pfad 548" d="M131,225.14A14.1,14.1,0,1,0,143.11,213,14.1,14.1,0,0,0,131,225.14Z" fill="#ebb887"/>
      <path id="Pfad_549" data-name="Pfad 549" d="M144.94,243.47h0a16.42,16.42,0,1,1,2.13-.13A16.909,16.909,0,0,1,144.94,243.47Zm0-28.19a13.066,13.066,0,0,0-1.528.09,11.7,11.7,0,0,0,1.528,23.3h0a11.229,11.229,0,0,0,1.53-.1,11.69,11.69,0,0,0-1.53-23.29Z" fill="#231f20"/>
      <path id="Pfad_550" data-name="Pfad 550" d="M106.65,167.44c-.14-7-.4-13.57-.38-15.35a.44.44,0,0,0-.43-.46H73.26a.44.44,0,0,0-.43.46c0,1.77-.26,8.38-.41,15.4,2.33,2.43,11,5.88,16.76,5.91C95.22,173.45,104.14,169.36,106.65,167.44Z" fill="#f2b88c"/>
      <path id="Pfad_551" data-name="Pfad 551" d="M115.53,20.72c-6.8-.51-14-1-21.43-1.18-20.24-.59-41.79.53-59.54,6.87-15,5.38-27,16.31-27,33.26v82.79a30.72,30.72,0,0,0,30.72,30.72H140.16a30.72,30.72,0,0,0,30.72-30.72V59.67C170.88,30,139.49,22.5,115.53,20.72Z" fill="#ebb887"/>
      <path id="Pfad_552" data-name="Pfad 552" d="M140.16,175.58H38.24A33.16,33.16,0,0,1,5.12,142.46V59.67c0-16.07,10.44-29,28.64-35.52C47.21,19.34,63.93,17,84.88,17q4.5,0,9.29.15c6.46.19,13.3.56,21.54,1.17,37.66,2.81,57.57,17.11,57.57,41.35v82.79A33.16,33.16,0,0,1,140.16,175.58ZM84.88,21.8c-20.39,0-36.58,2.25-49.51,6.87-9.5,3.4-25.45,11.94-25.45,31v82.79a28.35,28.35,0,0,0,28.32,28.32H140.16a28.35,28.35,0,0,0,28.32-28.32V59.67c0-21.63-17.87-33.93-53.13-36.56-8.16-.61-14.93-1-21.32-1.17C90.88,21.85,87.8,21.8,84.88,21.8Z" fill="#231f20"/>
      <circle id="Ellipse_93" data-name="Ellipse 93" cx="12" cy="12" r="12" transform="translate(41.21 98.7)" fill="#231f20"/>
      <circle id="Ellipse_94" data-name="Ellipse 94" cx="12" cy="12" r="12" transform="translate(113.2 98.7)" fill="#231f20"/>
      <circle id="Ellipse_95" data-name="Ellipse 95" cx="3.24" cy="3.24" r="3.24" transform="translate(46.72 103.83)" fill="#fff"/>
      <circle id="Ellipse_96" data-name="Ellipse 96" cx="3.24" cy="3.24" r="3.24" transform="translate(119.24 103.83)" fill="#fff"/>
      <path id="Pfad_553" data-name="Pfad 553" d="M129.61,260.61A182.861,182.861,0,0,0,129,227H39a183.741,183.741,0,0,0-.57,33.63H71.27v-9h25.5v9Z" fill="#383838"/>
      <path id="Pfad_554" data-name="Pfad 554" d="M132.3,261.67l-37.21-.18v-9H74.4l-.15,9.9H36.86l-.1-3.16a185.73,185.73,0,0,1,.57-34.12l.24-2.23h94.35l.24,2.23a186.569,186.569,0,0,1,.57,34.12Zm-32.39-5.18H128.1a180.5,180.5,0,0,0-.51-28.64H41.9a179.359,179.359,0,0,0-.51,28.64H69.58v-9H99.91Z" fill="#231f20"/>
      <path id="Pfad_555" data-name="Pfad 555" d="M74.85,143.77a15.28,15.28,0,0,0,27.86,0Z" fill="#fff" stroke="#282828" stroke-miterlimit="10" stroke-width="4"/>
      <path id="Pfad_556" data-name="Pfad 556" d="M116.74,30.69c-19.44-6.92-38.22-7.11-59.23-2.32S19.2,43.94,11.44,57.05l56.75-9.87c23-4,37.71-16.25,60.13-18.7,16-1.75,38.32.75,15,10.07-6.81,2.73-14.63,4.27-22.35,5.78L78.3,52.71c3.28-.64,12.53-11.33,16.25-13.45,5.54-3.15-1.25-1.15,5.54-3.15" fill="#b3301c"/>
      <path id="Pfad_557" data-name="Pfad 557" d="M156.91,20.51C161,15.22,155,9.26,144.2,5.59S118.72.29,104.3,0C61.93-.72,20.16,10.78,8.58,26.4l4.84,1.13c42.69,10,96.7,1.65,141.92-5.7C154.41,21.21,157.84,21.12,156.91,20.51Z" fill="#b3301c"/>
      <path id="Pfad_558" data-name="Pfad 558" d="M169.48,23.41a3.86,3.86,0,0,0-1.5-1.89c-13.44-9.78-42-16.93-79-16.28-37.09-.65-65.62,6.5-79.06,16.28a3.91,3.91,0,0,0-1.5,1.89C-1.28,31.76.27,50.92,0,57.93A26.89,26.89,0,0,0,5.12,71.17c.52-1.27,4.07.13,4.63-1.68s-.22-4.44.4-6.6c1.75-6.09,2.38-15.24,4.26-19,2.34-4.65,49.23-9.64,74.52-9.64,24,0,46-1.8,63.68-4.77-10,4.82,5.28,12.88,13.68,18.67.57,2.32,1,7.12,1.55,9.28s.37,1.86.49,4.52c1.54-2,4,1.4,4.89-.76s2.11-10.38,2.44-12.76C175.39,41.46,179.13,31.76,169.48,23.41Z" fill="#b3301c"/>
      <path id="Pfad_559" data-name="Pfad 559" d="M96.3,38.15l8.38-3.41,1.31-.5-9.14,2.63Z" fill="#b3301c"/>
      <path id="Pfad_560" data-name="Pfad 560" d="M134.22,267.41h-3.89c.26-1.89-.6-3.89-.42-5.94H97.46v21.77h36.76a7.91,7.91,0,0,0,7.92-7.92h0a7.91,7.91,0,0,0-7.92-7.91Z" fill="#b3301c"/>
      <path id="Pfad_561" data-name="Pfad 561" d="M134.22,285.64H95.06V259.07h37.46l-.22,2.6a10,10,0,0,0,.21,2.36c.05.32.1.64.15,1h1.56a10.32,10.32,0,1,1,0,20.63Zm-34.36-4.8h34.36a5.52,5.52,0,1,0,0-11h-6.64l.38-2.73a8.7,8.7,0,0,0-.19-2.28,8.064,8.064,0,0,0-.14-.93H99.86Z" fill="#231f20"/>
    </g>
  </g>
</svg>
