<svg xmlns="http://www.w3.org/2000/svg" xmlns:xlink="http://www.w3.org/1999/xlink" width="179.422" height="286.745" viewBox="0 0 179.422 286.745">
  <defs>
    <linearGradient id="linear-gradient" y1="0.5" x2="1" y2="0.5" gradientUnits="objectBoundingBox">
      <stop offset="0" stop-color="#433a40"/>
      <stop offset="0" stop-color="#676073"/>
    </linearGradient>
    <linearGradient id="linear-gradient-2" x1="0" x2="1" xlink:href="#linear-gradient"/>
    <linearGradient id="linear-gradient-4" y1="0.5" x2="1" y2="0.5" gradientUnits="objectBoundingBox">
      <stop offset="0.15" stop-color="#433a40"/>
      <stop offset="1" stop-color="#676073"/>
    </linearGradient>
    <linearGradient id="linear-gradient-5" x1="0" y1="0.5" x2="1" y2="0.5" xlink:href="#linear-gradient-4"/>
    <linearGradient id="linear-gradient-6" x1="0.5" y1="0.249" x2="0.5" y2="0.817" xlink:href="#linear-gradient-4"/>
    <linearGradient id="linear-gradient-7" x1="0" y1="0.5" x2="0.999" y2="0.5" xlink:href="#linear-gradient-4"/>
    <linearGradient id="linear-gradient-8" x1="0.001" y1="0.5" x2="1" y2="0.5" gradientUnits="objectBoundingBox">
      <stop offset="0" stop-color="#676073"/>
      <stop offset="1" stop-color="#433a40"/>
    </linearGradient>
    <linearGradient id="linear-gradient-9" y1="0.498" x2="1" y2="0.498" gradientUnits="objectBoundingBox">
      <stop offset="0" stop-color="#433a40"/>
      <stop offset="0" stop-color="#655e70"/>
      <stop offset="1" stop-color="#676073"/>
    </linearGradient>
  </defs>
  <g id="Player_2" transform="translate(-0.005)">
    <g id="Ebene_1" data-name="Ebene 1">
      <path id="Pfad_500" data-name="Pfad 500" d="M152.27,212.29c-.14-11.7-5.87-26.06-17.11-32.88a47.58,47.58,0,0,0-18.22-6.2c-2.22-5.83-3.8-9.16-3.8-9.16H56.22s-1.59,3.34-3.81,9.18a47.38,47.38,0,0,0-18.11,6.18c-11.24,6.82-17,21.18-17.11,32.88a35.52,35.52,0,0,1,20.94,8c1.5-5.25,2.92-12.15,5.92-19.74-5.11,21.59-8.38,50.09-1.15,78H72v-30.4H97.4v30.42h29.06c7.29-28.15,3.9-56.9-1.28-78.56,3.15,7.81,4.61,14.93,6.15,20.3a35.52,35.52,0,0,1,20.94-8.02Z" fill="url(#linear-gradient)"/>
      <path id="Pfad_501" data-name="Pfad 501" d="M129,281.83H95.72V251H75.09v30.87H41.76L41.3,280c-5.06-19.8-5-39.85-3-57l-1.05-.9a33,33,0,0,0-19.38-7.56H15.49v-2.43c.14-12.11,5.84-27.75,18.25-35.4a48.81,48.81,0,0,1,17.62-6.38c2-5.13,3.33-8,3.39-8.18l.65-1.38h60l.65,1.38c.06.13,1.42,3,3.38,8.16a49.069,49.069,0,0,1,17.73,6.4c12.41,7.65,18.11,23.29,18.25,35.4v2.44H153a33,33,0,0,0-19.37,7.56l-1.14,1c2,17.18,2.08,37.19-3,56.94ZM100.52,277H125.3c6.79-28.44,2.85-57.36-1.74-76.78l4.57-1.44a130.428,130.428,0,0,1,5,16.35q.14.54.27,1.05a38.39,38.39,0,0,1,17.05-6.28c-.76-10.16-5.83-22.93-15.87-29.11a44.67,44.67,0,0,0-17.3-5.95l-1.41-.21-.5-1.33c-1.34-3.59-2.46-6.25-3.11-7.74H58.5c-.65,1.49-1.77,4.16-3.12,7.76l-.5,1.33-1.4.2a44.79,44.79,0,0,0-17.2,5.94c-10,6.18-15.11,19-15.87,29.11a38.47,38.47,0,0,1,17.05,6.28l.27-1.08a133.367,133.367,0,0,1,4.8-15.74l4.58,1.41c-4.5,19.28-8.36,48-1.61,76.23H70.29V246.16h30.23Z" fill="#231f20"/>
      <path id="Pfad_502" data-name="Pfad 502" d="M10.75,226.22a14.1,14.1,0,1,0,12.14-12.14,14.1,14.1,0,0,0-12.14,12.14Z" fill="#ebb887"/>
      <path id="Pfad_503" data-name="Pfad 503" d="M24.73,244.55h0a16.42,16.42,0,1,1,2.13-.13A17,17,0,0,1,24.73,244.55Zm0-28.19a11.384,11.384,0,0,0-1.54.1,11.7,11.7,0,0,0,1.54,23.29h0a13.217,13.217,0,0,0,1.53-.09,11.7,11.7,0,0,0-1.53-23.3Z" fill="#231f20"/>
      <path id="Pfad_504" data-name="Pfad 504" d="M40.1,268.49H36.21a7.91,7.91,0,0,0-7.91,7.92h0a7.91,7.91,0,0,0,7.91,7.91H72.56V262.55H40.12C40.29,264.61,39.84,266.6,40.1,268.49Z" fill="url(#linear-gradient-2)"/>
      <path id="Pfad_505" data-name="Pfad 505" d="M75,286.72H36.21a10.32,10.32,0,0,1,0-20.63h1.44v-.83a19.33,19.33,0,0,0,0-2.51l-.22-2.6H75ZM36.21,270.89a5.52,5.52,0,1,0,0,11H70.16V265H42.52v.6a14.18,14.18,0,0,0,0,2.61l.38,2.73Z" fill="#231f20"/>
      <path id="Pfad_506" data-name="Pfad 506" d="M134.93,268.49H131c.26-1.89-.6-3.88-.42-5.94H98.17v21.77h36.76a7.91,7.91,0,0,0,7.92-7.91h0a7.91,7.91,0,0,0-7.92-7.92Z" fill="url(#linear-gradient-2)"/>
      <path id="Pfad_507" data-name="Pfad 507" d="M134.93,286.72H95.77V260.15h37.46l-.22,2.61a10,10,0,0,0,.21,2.35c.05.32.1.64.15,1h1.56a10.32,10.32,0,1,1,0,20.63Zm-34.36-4.8h34.36a5.52,5.52,0,1,0,0-11h-6.64l.38-2.73a8.76,8.76,0,0,0-.19-2.28,8.066,8.066,0,0,0-.14-.93H100.57Z" fill="#231f20"/>
      <path id="Pfad_508" data-name="Pfad 508" d="M131.67,226.22a14.1,14.1,0,1,0,12.15-12.14,14.1,14.1,0,0,0-12.15,12.14Z" fill="#ebb887"/>
      <path id="Pfad_509" data-name="Pfad 509" d="M145.65,244.55h0a16.42,16.42,0,1,1,2.13-.13,16.907,16.907,0,0,1-2.13.13Zm0-28.19a11.234,11.234,0,0,0-1.53.1,11.695,11.695,0,0,0,1.53,23.29h0a13.075,13.075,0,0,0,1.528-.09,11.7,11.7,0,0,0-1.528-23.3Z" fill="#231f20"/>
      <path id="Pfad_510" data-name="Pfad 510" d="M107.36,168.52c-.14-7-.4-13.57-.38-15.35a.44.44,0,0,0-.43-.46H74a.44.44,0,0,0-.43.46c0,1.78-.26,8.38-.41,15.4,2.33,2.43,11,5.88,16.76,5.92C95.93,174.53,104.85,170.44,107.36,168.52Z" fill="#f2b88c"/>
      <path id="Pfad_511" data-name="Pfad 511" d="M116.24,21.8c-6.8-.51-14-.95-21.43-1.17-20.24-.6-41.8.52-59.54,6.86-15.05,5.38-27,16.31-27,33.26v82.79A30.72,30.72,0,0,0,39,174.26H140.87a30.72,30.72,0,0,0,30.72-30.72V60.75C171.59,31.12,140.2,23.59,116.24,21.8Z" fill="#ebb887"/>
      <path id="Pfad_512" data-name="Pfad 512" d="M140.87,176.66H39A33.15,33.15,0,0,1,5.83,143.54V60.75c0-16.07,10.44-29,28.63-35.52,13.46-4.81,30.18-7.14,51.13-7.14,3,0,6.1,0,9.29.14,6.46.19,13.3.56,21.54,1.18C154.08,22.21,174,36.51,174,60.75v82.79a33.15,33.15,0,0,1-33.13,33.12ZM85.59,22.89c-20.39,0-36.58,2.24-49.51,6.86-9.5,3.4-25.45,12-25.45,31v82.79A28.35,28.35,0,0,0,39,171.86H140.87a28.35,28.35,0,0,0,28.32-28.32V60.75c0-21.63-17.87-33.93-53.13-36.56-8.16-.6-14.93-1-21.32-1.16C91.59,22.93,88.51,22.89,85.59,22.89Z" fill="#231f20"/>
      <circle id="Ellipse_85" data-name="Ellipse 85" cx="12" cy="12" r="12" transform="translate(41.91 99.79)" fill="#231f20"/>
      <circle id="Ellipse_86" data-name="Ellipse 86" cx="12" cy="12" r="12" transform="translate(113.91 99.79)" fill="#231f20"/>
      <circle id="Ellipse_87" data-name="Ellipse 87" cx="3.24" cy="3.24" r="3.24" transform="translate(47.43 104.91)" fill="#fff"/>
      <circle id="Ellipse_88" data-name="Ellipse 88" cx="3.24" cy="3.24" r="3.24" transform="translate(119.95 104.91)" fill="#fff"/>
      <path id="Pfad_513" data-name="Pfad 513" d="M129.32,262.73a183,183,0,0,0-.57-33.64h-90a183.005,183.005,0,0,0-.57,33.64H71v-9H96.5v9Z" fill="#383838"/>
      <path id="Pfad_514" data-name="Pfad 514" d="M133.25,263.57H95.8v-9H75.11v9H37.65l-.18-2.29A184.854,184.854,0,0,1,38,227.16l.24-2.22h94.35l.24,2.22a186.569,186.569,0,0,1,.57,34.12Zm-32.64-5h28.2a181.54,181.54,0,0,0-.51-28.63H42.6a180.357,180.357,0,0,0-.5,28.63H70.29v-9h30.32Z" fill="#231f20"/>
      <path id="Pfad_515" data-name="Pfad 515" d="M75.56,144.86a15.28,15.28,0,0,0,27.86,0Z" fill="#fff" stroke="#282828" stroke-miterlimit="10" stroke-width="4"/>
      <path id="Pfad_516" data-name="Pfad 516" d="M18.48,36.66C10.32,38.85,4.12,52.79,1.6,69.84s-1.8,36.77.4,55.61a342.81,342.81,0,0,0,13.71,64.83C6.24,145.43,12.15,96.63,25.84,65.73c2.4-5.42,1.79-17.5-.94-23.91S22,35.7,18.48,36.66Z" fill="url(#linear-gradient-4)"/>
      <path id="Pfad_517" data-name="Pfad 517" d="M161,34.84C169.11,37,175.31,51,177.83,68s1.8,36.77-.37,55.6a342.47,342.47,0,0,1-13.71,64.83c9.44-44.85,3.53-93.64-10.16-124.55-2.4-5.42-1.79-17.5.94-23.9S157.39,33.89,161,34.84Z" fill="url(#linear-gradient-5)"/>
      <path id="Pfad_518" data-name="Pfad 518" d="M172.43,54.57C172.43,24.43,135.67,0,90.33,0S8.23,24.43,8.23,54.57a39.56,39.56,0,0,0,6.93,21.95H165.5a39.48,39.48,0,0,0,6.93-21.95Z" fill="url(#linear-gradient-6)"/>
      <path id="Pfad_519" data-name="Pfad 519" d="M79.39,98.74C66.61,83.17,16.5,94.42,16.51,94.37c-.42,3.24-2,7.11-2.06,10.54C14.34,108.51,24.5,113,24.86,116c1.73,14.21,11.24,24.68,31.25,24.18,20-1,24.74-15.55,25.56-24.69a35.39,35.39,0,0,0-2.28-16.75ZM77.1,116.19c-1,12.73-8.84,20.18-21.48,20.79a30.6,30.6,0,0,1-3.71,0C32,137,28.59,119.55,28.2,108.53A11.76,11.76,0,0,1,38.8,96.19c3.66-.36,7.78-.36,12.53-.36,14.88,0,21.36,3.55,23.08,6.4A25.26,25.26,0,0,1,77.1,116.19Z" fill="url(#linear-gradient-7)"/>
      <path id="Pfad_520" data-name="Pfad 520" d="M93.5,115.47c.82,9.14,5.51,23.65,25.57,24.69,20,.5,29.51-10,31.24-24.18.36-2.94,14.5-7.28,14.84-10.86s-1.26-7.14-1.81-10.64c0,0-54.77-11.32-67.56,4.26a35.39,35.39,0,0,0-2.28,16.73Zm7.26-13.24c1.73-2.85,8.2-6.4,23.08-6.4,4.76,0,8.87,0,12.53.36A11.76,11.76,0,0,1,147,108.53c-.4,11-3.8,28.44-23.72,28.48-1.18.05-2.43,0-3.71,0-12.64-.61-20.45-8.06-21.48-20.79a25.26,25.26,0,0,1,2.67-13.99Z" fill="url(#linear-gradient-8)"/>
      <path id="Pfad_521" data-name="Pfad 521" d="M96.23,111a15.35,15.35,0,0,0-9-2.57A13.26,13.26,0,0,0,78.94,111q-1.31-3.62-2.62-7.23H98.86Q97.54,107.37,96.23,111Z" fill="url(#linear-gradient-9)"/>
    </g>
  </g>
</svg>
