<svg xmlns="http://www.w3.org/2000/svg" width="192.693" height="275.586" viewBox="0 0 192.693 275.586">
  <g id="Player_1" transform="translate(-0.003 -0.004)">
    <g id="Ebene_1" data-name="Ebene 1">
      <path id="Pfad_478" data-name="Pfad 478" d="M163,201.17c-.14-11.71-5.87-26.07-17.1-32.89a47.62,47.62,0,0,0-18.23-6.2c-2.21-5.83-3.8-9.16-3.8-9.16H66.91s-1.59,3.34-3.81,9.18A47.6,47.6,0,0,0,45,168.28c-11.24,6.82-17,21.18-17.11,32.89a35.51,35.51,0,0,1,21,8c1.49-5.25,2.92-12.15,5.91-19.74-5.1,21.59-8.38,50.09-1.14,78H82.65V237h25.43v30.43h29.06c7.3-28.16,3.91-56.91-1.28-78.56,3.15,7.8,4.62,14.92,6.15,20.29A35.47,35.47,0,0,1,163,201.17Z" fill="#853c15"/>
      <path id="Pfad_479" data-name="Pfad 479" d="M139.72,270.71H106.4V239.83H85.77v30.88H52.45L52,268.9c-5-19.8-5-39.85-2.95-57L48,211a33.06,33.06,0,0,0-19.38-7.56H26.17v-2.43c.15-12.11,5.84-27.75,18.25-35.4a49,49,0,0,1,17.63-6.38c2-5.13,3.33-8.05,3.39-8.18l.64-1.38h60l.64,1.38c.07.13,1.42,3,3.38,8.16a49,49,0,0,1,17.73,6.4c12.41,7.65,18.11,23.29,18.25,35.4v2.44h-2.44A33,33,0,0,0,144.29,211l-1.14,1c2,17.17,2.08,37.18-3,56.93Zm-28.52-4.8H136c6.8-28.45,2.85-57.37-1.73-76.79l4.56-1.44A130.639,130.639,0,0,1,143.86,204q.13.54.27,1.05a38.32,38.32,0,0,1,17-6.28c-.76-10.16-5.83-22.92-15.86-29.11a44.73,44.73,0,0,0-17.3-5.95l-1.41-.2-.5-1.34c-1.35-3.59-2.46-6.25-3.11-7.74H69.19c-.66,1.49-1.77,4.16-3.12,7.76l-.5,1.33-1.41.2A44.79,44.79,0,0,0,47,169.69c-10,6.19-15.11,18.95-15.87,29.11a38.43,38.43,0,0,1,17.05,6.28c.09-.35.18-.71.28-1.08a129.7,129.7,0,0,1,4.8-15.74l4.57,1.41c-4.49,19.28-8.35,48-1.6,76.24H81V235h30.2Z" fill="#231f20"/>
      <path id="Pfad_480" data-name="Pfad 480" d="M21.43,215.1A14.1,14.1,0,1,0,33.58,203,14.1,14.1,0,0,0,21.43,215.1Z" fill="#ebb887"/>
      <path id="Pfad_481" data-name="Pfad 481" d="M35.41,233.42h0a16.42,16.42,0,1,1,2.13-.13,16.91,16.91,0,0,1-2.13.13Zm0-28.19a11.232,11.232,0,0,0-1.53.1,11.695,11.695,0,0,0,1.53,23.29h0a13.075,13.075,0,0,0,1.528-.09,11.7,11.7,0,0,0-1.538-23.3Z" fill="#231f20"/>
      <path id="Pfad_482" data-name="Pfad 482" d="M50.79,257.36h-3.9A7.92,7.92,0,0,0,39,265.28h0a7.91,7.91,0,0,0,7.91,7.91H83.25V251.42H50.8C51,253.48,50.52,255.47,50.79,257.36Z" fill="#853c15"/>
      <path id="Pfad_483" data-name="Pfad 483" d="M85.65,275.59H46.89a10.32,10.32,0,0,1,0-20.63h1.44a4.463,4.463,0,0,1,.05-.82,17.689,17.689,0,0,0,0-2.51L48.19,249H85.65ZM46.89,259.76a5.52,5.52,0,0,0,0,11h34v-17H53.2v.6a14.24,14.24,0,0,0,0,2.61l.38,2.73Z" fill="#231f20"/>
      <path id="Pfad_484" data-name="Pfad 484" d="M145.62,257.36h-3.89c.26-1.89-.6-3.88-.43-5.94H108.86v21.77h36.76a7.91,7.91,0,0,0,7.91-7.91h0a7.92,7.92,0,0,0-7.91-7.92Z" fill="#853c15"/>
      <path id="Pfad_485" data-name="Pfad 485" d="M145.62,275.59H106.46V249h37.45l-.22,2.61a10,10,0,0,0,.21,2.35c0,.32.11.64.15,1h1.57a10.32,10.32,0,0,1,0,20.63Zm-34.36-4.8h34.36a5.52,5.52,0,0,0,0-11H139l.38-2.73a8.76,8.76,0,0,0-.19-2.28,6.35,6.35,0,0,0-.14-.93H111.26Z" fill="#231f20"/>
      <path id="Pfad_486" data-name="Pfad 486" d="M142.35,215.1A14.1,14.1,0,1,0,154.5,203a14.1,14.1,0,0,0-12.15,12.1Z" fill="#ebb887"/>
      <path id="Pfad_487" data-name="Pfad 487" d="M156.33,233.42h0a16.42,16.42,0,1,1,2.13-.13A16.8,16.8,0,0,1,156.33,233.42Zm0-28.19a11.341,11.341,0,0,0-1.53.1,11.7,11.7,0,0,0,1.53,23.29h0a13.076,13.076,0,0,0,1.528-.09,11.7,11.7,0,0,0-1.528-23.3Z" fill="#231f20"/>
      <path id="Pfad_488" data-name="Pfad 488" d="M118.05,157.39c-.15-7-.41-13.57-.39-15.35a.44.44,0,0,0-.42-.46H84.65a.43.43,0,0,0-.42.46c0,1.78-.26,8.38-.41,15.4,2.32,2.43,11,5.88,16.75,5.92C106.61,163.4,115.53,159.31,118.05,157.39Z" fill="#f2b88c"/>
      <path id="Pfad_489" data-name="Pfad 489" d="M122.46,9.25c-6.79-.51-14-.95-21.42-1.17-20.24-.6-41.8.52-59.54,6.86-15,5.38-27,16.31-27,33.26V131a30.72,30.72,0,0,0,30.72,30.72H147.1A30.72,30.72,0,0,0,177.82,131V48.2C177.82,18.57,146.42,11,122.46,9.25Z" fill="#ebb887"/>
      <path id="Pfad_490" data-name="Pfad 490" d="M147.1,164.11H45.18A33.15,33.15,0,0,1,12.06,131V48.2c0-16.07,10.43-29,28.63-35.52C54.14,7.87,70.86,5.54,91.81,5.54c3,0,6.1,0,9.3.14,6.45.19,13.3.56,21.53,1.18,37.67,2.8,57.57,17.1,57.57,41.34V131a33.15,33.15,0,0,1-33.11,33.11ZM91.81,10.34c-20.39,0-36.58,2.24-49.5,6.86-9.51,3.4-25.45,12-25.45,31V131a28.35,28.35,0,0,0,28.32,28.32H147.1A28.35,28.35,0,0,0,175.42,131V48.2c0-21.63-17.88-33.93-53.13-36.56-8.16-.61-14.94-1-21.32-1.16C97.82,10.38,94.74,10.34,91.81,10.34Z" fill="#231f20"/>
      <circle id="Ellipse_81" data-name="Ellipse 81" cx="12" cy="12" r="12" transform="translate(52.6 89.66)" fill="#231f20"/>
      <circle id="Ellipse_82" data-name="Ellipse 82" cx="12" cy="12" r="12" transform="translate(124.59 89.66)" fill="#231f20"/>
      <circle id="Ellipse_83" data-name="Ellipse 83" cx="3.24" cy="3.24" r="3.24" transform="translate(58.12 94.78)" fill="#fff"/>
      <circle id="Ellipse_84" data-name="Ellipse 84" cx="3.24" cy="3.24" r="3.24" transform="translate(130.63 94.78)" fill="#fff"/>
      <path id="Pfad_491" data-name="Pfad 491" d="M140,251.6a182.1,182.1,0,0,0-.57-33.64h-90a183,183,0,0,0-.56,33.64H81.66v-9h25.51v9Z" fill="#383838"/>
      <path id="Pfad_492" data-name="Pfad 492" d="M143.94,252.45H106.48v-9H85.79v9H48.33l-.18-2.3A184.759,184.759,0,0,1,48.73,216l.23-2.23h94.36l.23,2.23a184.678,184.678,0,0,1,.57,34.11Zm-32.64-5h28.19a180.431,180.431,0,0,0-.5-28.64H53.29a181.693,181.693,0,0,0-.51,28.64H81v-9h30.3Z" fill="#231f20"/>
      <path id="Pfad_493" data-name="Pfad 493" d="M86.24,133.73a15.29,15.29,0,0,0,27.87,0Z" fill="#fff" stroke="#282828" stroke-miterlimit="10" stroke-width="4"/>
      <path id="Pfad_494" data-name="Pfad 494" d="M12.06,92.08c-4.81,20.61,48.36,67,63.25,82,3.88,3.92,8.28,7.34,11.75,11.63s9,9.78,8.12,15.23" fill="none" stroke="#cdcccc" stroke-miterlimit="10" stroke-width="3"/>
      <path id="Pfad_495" data-name="Pfad 495" d="M180.21,92.08c4.81,20.61-49.59,67-64.48,82-3.88,3.92-8.29,7.34-11.75,11.63s-9,9.78-8.12,15.23" fill="none" stroke="#cdcccc" stroke-miterlimit="10" stroke-width="3"/>
      <line id="Linie_18" data-name="Linie 18" y2="14.98" transform="translate(95.52 198.69)" fill="none" stroke="#cdcccc" stroke-miterlimit="10" stroke-width="3"/>
      <path id="Pfad_496" data-name="Pfad 496" d="M183.52,92.3a3.75,3.75,0,0,1-3.77,3.7c-2.08,0-2.76-1.67-2.76-3.74s.68-3.75,2.76-3.75a3.76,3.76,0,0,1,3.77,3.79Z" fill="#cdcccc"/>
      <path id="Pfad_497" data-name="Pfad 497" d="M8.44,92.75a3.76,3.76,0,0,0,3.77,3.75c2.08,0,2.77-1.68,2.77-3.75S14.29,89,12.21,89a3.76,3.76,0,0,0-3.77,3.75Z" fill="#cdcccc"/>
      <path id="Pfad_498" data-name="Pfad 498" d="M100.65,14.85c.08-8-9.2-12.55-17.09-13.41C59.48-1.21,31.61,8.3,17.39,28S1.44,76.5.18,100.8c-.75,14.34,1,27.85,3.15,41.31q.59,3.19,1.3,6.36c1.86-21.62,11.93-47.72,18.75-60.26C37.27,62.69,70.32,49.28,96.22,36.08,102.73,32.76,100.57,22.19,100.65,14.85Z" fill="#853c15"/>
      <path id="Pfad_499" data-name="Pfad 499" d="M92.05,13.85C92,5.87,101.25,1.3,109.14.44c24.08-2.65,52,6.86,66.17,26.51S191.26,75.5,192.52,99.8c.75,14.34-1,27.85-3.15,41.31-.38,2.13-.82,4.25-1.3,6.36-1.86-21.62-11.93-47.72-18.75-60.26-13.89-25.52-46.94-38.93-72.84-52.13C90,31.76,92.13,21.19,92.05,13.85Z" fill="#853c15"/>
    </g>
  </g>
</svg>
