<svg xmlns="http://www.w3.org/2000/svg" width="185.322" height="286.322" viewBox="0 0 185.322 286.322">
  <g id="Player_5" transform="translate(0.002 0.002)">
    <g id="Ebene_1" data-name="Ebene 1">
      <path id="Pfad_562" data-name="Pfad 562" d="M151.24,211.87c-.14-11.71-5.86-26.06-17.1-32.89a47.61,47.61,0,0,0-18.22-6.19c-2.22-5.83-3.81-9.16-3.81-9.16H55.2s-1.59,3.34-3.81,9.17A47.6,47.6,0,0,0,33.27,179c-11.24,6.83-17,21.18-17.11,32.89a35.56,35.56,0,0,1,21,8C38.6,214.64,40,207.74,43,200.15c-5.1,21.58-8.37,50.09-1.14,78H70.94V247.73H96.37v30.42h29.06c7.3-28.15,3.91-56.9-1.28-78.56,3.15,7.81,4.62,14.93,6.15,20.3a35.52,35.52,0,0,1,20.94-8.02Z" fill="#7a91c9"/>
      <path id="Pfad_563" data-name="Pfad 563" d="M128,281.41H94.69V250.53H74.06v30.88H40.74l-.46-1.8c-5.06-19.8-5-39.86-3-57l-1-.9a33.06,33.06,0,0,0-19.38-7.56H14.46v-2.43c.15-12.11,5.84-27.75,18.25-35.4a48.86,48.86,0,0,1,17.63-6.38c2-5.14,3.33-8.05,3.39-8.18l.65-1.38h60l.65,1.38c.06.13,1.42,3,3.38,8.16a49.14,49.14,0,0,1,17.73,6.4c12.4,7.65,18.1,23.29,18.25,35.4v2.44H152a33.06,33.06,0,0,0-19.38,7.56l-1.14,1c2,17.18,2.08,37.18-3,56.94Zm-28.53-4.8h24.78c6.8-28.44,2.85-57.36-1.73-76.79l4.57-1.43a132.13,132.13,0,0,1,5,16.35l.27,1a38.31,38.31,0,0,1,17.05-6.28c-.77-10.16-5.84-22.93-15.87-29.11a44.9,44.9,0,0,0-17.3-6l-1.41-.2-.5-1.33c-1.35-3.59-2.46-6.25-3.11-7.74H57.48c-.65,1.49-1.77,4.15-3.12,7.76l-.5,1.32-1.41.21a44.79,44.79,0,0,0-17.2,5.94c-10,6.18-15.1,18.95-15.87,29.11a38.31,38.31,0,0,1,17.05,6.28c.09-.36.18-.72.28-1.08A129.8,129.8,0,0,1,41.51,199l4.57,1.42c-4.49,19.28-8.35,48-1.6,76.23H69.26V245.74H99.49Z" fill="#231f20"/>
      <path id="Pfad_564" data-name="Pfad 564" d="M9.72,225.8a14.1,14.1,0,1,0,12.15-12.15A14.1,14.1,0,0,0,9.72,225.8Z" fill="#ebb887"/>
      <path id="Pfad_565" data-name="Pfad 565" d="M23.7,244.13h0a16.42,16.42,0,1,1,2.13-.13,16.8,16.8,0,0,1-2.13.13Zm0-28.19a13.21,13.21,0,0,0-1.53.09,11.7,11.7,0,0,0,1.53,23.3h0a11.232,11.232,0,0,0,1.53-.1,11.69,11.69,0,0,0-1.53-23.29Z" fill="#231f20"/>
      <path id="Pfad_566" data-name="Pfad 566" d="M39.08,268.07H35.19A7.91,7.91,0,0,0,27.27,276h0a7.91,7.91,0,0,0,7.92,7.92H71.54V262.13H39.09C39.27,264.18,38.81,266.18,39.08,268.07Z" fill="#7a91c9"/>
      <path id="Pfad_567" data-name="Pfad 567" d="M73.94,286.3H35.19a10.32,10.32,0,1,1,0-20.63h1.43a4.627,4.627,0,0,1,.05-.83,17.659,17.659,0,0,0,0-2.51l-.22-2.6H73.94ZM35.19,270.47a5.52,5.52,0,1,0,0,11h34v-17H41.49v.6a14.25,14.25,0,0,0,0,2.61l.38,2.73Z" fill="#231f20"/>
      <path id="Pfad_568" data-name="Pfad 568" d="M133.91,268.07H130c.26-1.89-.6-3.89-.43-5.94H97.15V283.9h36.76a7.91,7.91,0,0,0,7.91-7.92h0a7.91,7.91,0,0,0-7.91-7.91Z" fill="#7a91c9"/>
      <path id="Pfad_569" data-name="Pfad 569" d="M133.91,286.3H94.75V259.73h37.46l-.23,2.6a10.59,10.59,0,0,0,.21,2.36c.05.32.11.64.15,1h1.57a10.32,10.32,0,0,1,0,20.63Zm-34.36-4.8h34.36a5.52,5.52,0,0,0,0-11h-6.65l.38-2.73a8.65,8.65,0,0,0-.18-2.28q-.08-.45-.15-.93H99.55Z" fill="#231f20"/>
      <path id="Pfad_570" data-name="Pfad 570" d="M130.64,225.8a14.1,14.1,0,1,0,12.15-12.15A14.1,14.1,0,0,0,130.64,225.8Z" fill="#ebb887"/>
      <path id="Pfad_571" data-name="Pfad 571" d="M144.62,244.13h0a16.42,16.42,0,1,1,2.14-.13,17.068,17.068,0,0,1-2.14.13Zm0-28.19a13.21,13.21,0,0,0-1.53.09,11.7,11.7,0,0,0,1.51,23.3h0a11.338,11.338,0,0,0,1.53-.1,11.7,11.7,0,0,0-1.54-23.29Z" fill="#231f20"/>
      <path id="Pfad_572" data-name="Pfad 572" d="M106.34,168.1c-.14-7-.4-13.57-.39-15.35a.44.44,0,0,0-.42-.46H72.94a.43.43,0,0,0-.42.46c0,1.77-.26,8.38-.41,15.4,2.33,2.43,11,5.88,16.75,5.91C94.9,174.11,103.82,170,106.34,168.1Z" fill="#f2b88c"/>
      <path id="Pfad_573" data-name="Pfad 573" d="M115.21,21.38c-6.79-.51-14-1-21.42-1.18-20.24-.59-41.8.53-59.54,6.87-15,5.38-27,16.31-27,33.26v82.79a30.72,30.72,0,0,0,30.72,30.72H139.85a30.72,30.72,0,0,0,30.72-30.72V60.33C170.57,30.69,139.17,23.16,115.21,21.38Z" fill="#ebb887"/>
      <path id="Pfad_574" data-name="Pfad 574" d="M139.85,176.24H37.93A33.16,33.16,0,0,1,4.81,143.12V60.33c0-16.07,10.43-29,28.63-35.52C46.89,20,63.61,17.66,84.56,17.66q4.5,0,9.3.15c6.46.19,13.3.56,21.53,1.17C153.06,21.79,173,36.09,173,60.33v82.79a33.16,33.16,0,0,1-33.15,33.12ZM84.56,22.46c-20.39,0-36.58,2.25-49.5,6.87-9.51,3.4-25.45,11.94-25.45,31v82.79a28.35,28.35,0,0,0,28.32,28.32H139.85a28.35,28.35,0,0,0,28.32-28.32V60.33c0-21.63-17.88-33.93-53.13-36.56-8.16-.61-14.94-1-21.32-1.17C90.57,22.51,87.49,22.46,84.56,22.46Z" fill="#231f20"/>
      <circle id="Ellipse_97" data-name="Ellipse 97" cx="12" cy="12" r="12" transform="translate(40.89 99.36)" fill="#231f20"/>
      <circle id="Ellipse_98" data-name="Ellipse 98" cx="12" cy="12" r="12" transform="translate(112.88 99.36)" fill="#231f20"/>
      <circle id="Ellipse_99" data-name="Ellipse 99" cx="3.24" cy="3.24" r="3.24" transform="translate(46.41 104.49)" fill="#fff"/>
      <circle id="Ellipse_100" data-name="Ellipse 100" cx="3.24" cy="3.24" r="3.24" transform="translate(118.93 104.49)" fill="#fff"/>
      <path id="Pfad_575" data-name="Pfad 575" d="M95.76,63.51c17.7,4.4,36.51,7.57,53.69,1,17-6.49,30.8-22.74,35.87-42.19-15.74,7.8-32.9-4.62-48.62-12.5C98.39-9.39,49.45.19,19.25,33.2,3.45,50.46-4.23,65.77,22,61.38,49.42,56.78,68,56.61,95.76,63.51Z" fill="#231f20"/>
      <path id="Pfad_576" data-name="Pfad 576" d="M5.67,70.9a68.91,68.91,0,0,1,8.75-22c-1.62-1.59-4.43-1.82-7-1.14C.51,57.53-.34,69.25.09,77.34a42.09,42.09,0,0,0,4.23,13.3C5.33,84.1,4.3,77.52,5.67,70.9Z" fill="#231f20"/>
      <path id="Pfad_577" data-name="Pfad 577" d="M170.66,70.21a65.25,65.25,0,0,0-10-22.44c1.94-1.5,5.29-1.59,8.31-.78,8.08,10.11,8.9,21.88,8.25,30a36.421,36.421,0,0,1-5.25,13.1C170.85,83.44,172.17,76.92,170.66,70.21Z" fill="#231f20"/>
      <path id="Pfad_578" data-name="Pfad 578" d="M129.29,262.31a183,183,0,0,0-.56-33.64h-90a182.092,182.092,0,0,0-.57,33.64H71v-9H96.46v9Z" fill="#383838"/>
      <path id="Pfad_579" data-name="Pfad 579" d="M132.23,262.15H94.78v-9H74.08v9H36.63l-.19-2.29A185.761,185.761,0,0,1,37,225.74l.23-2.23h94.36l.23,2.23a184.8,184.8,0,0,1,.57,34.12Zm-32.64-5h28.19a180.459,180.459,0,0,0-.5-28.64H41.58a181.733,181.733,0,0,0-.51,28.64h28.2v-9H99.59Z" fill="#231f20"/>
      <path id="Pfad_580" data-name="Pfad 580" d="M74.53,144.43a15.29,15.29,0,0,0,27.87,0Z" fill="#fff" stroke="#282828" stroke-miterlimit="10" stroke-width="4"/>
    </g>
  </g>
</svg>
